<svg width="24" height="18" viewBox="0 0 24 18" fill="none" xmlns="http://www.w3.org/2000/svg">
<path d="M24 2.97614V15.024C24 15.5546 23.8909 16.0566 23.6899 16.4869L15.2727 8.69885L23.4775 1.11877C23.8048 1.62794 24 2.27336 24 2.97614Z" fill="#1B93C7"/>
<path d="M22.8574 17.5625C22.4957 17.8422 22.0708 18 21.6172 18H2.38277C1.92918 18 1.5043 17.8422 1.14258 17.5625L9.72631 9.6239L10.6852 10.5131C11.0526 10.8502 11.5234 11.0223 11.9943 11.0223C12.4651 11.0223 12.9359 10.8502 13.3033 10.5131L14.2622 9.6239L22.8574 17.5625Z" fill="#1B93C7"/>
<path d="M8.72727 8.69885L0.310048 16.4869C0.114833 16.0566 0 15.5546 0 15.024V2.97614C0 2.27336 0.195215 1.62794 0.522488 1.11877L8.72727 8.69885Z" fill="#1B93C7"/>
<path d="M22.4669 0.193626L14.2736 7.77371L13.2746 8.69881L12.6028 9.31554C12.287 9.60956 11.7129 9.60956 11.3971 9.31554L10.7253 8.69881L9.72626 7.77371L1.53296 0.193626C1.79707 0.0717131 2.08416 0 2.38272 0H21.6172C21.9157 0 22.2028 0.0717131 22.4669 0.193626Z" fill="#1B93C7"/>
</svg>
