<svg width="20" height="11" viewBox="0 0 20 11" fill="none" xmlns="http://www.w3.org/2000/svg">
<path d="M0.36377 5.7942C10.5875 -6.10725 19.3307 5.5521 19.3307 5.5521C19.3307 5.5521 10.0775 16.313 0.36377 5.7942Z" fill="#1B93C7"/>
<path d="M12.1584 5.43248C12.1584 5.88999 12.0228 6.33721 11.7689 6.71761C11.5149 7.09802 11.154 7.3945 10.7317 7.56958C10.3094 7.74466 9.84468 7.79048 9.39637 7.70122C8.94806 7.61196 8.53626 7.39165 8.21305 7.06814C7.88983 6.74464 7.66972 6.33246 7.58054 5.88374C7.49137 5.43502 7.53713 4.96994 7.71206 4.54726C7.88698 4.12458 8.1832 3.76331 8.56326 3.50914C8.94332 3.25496 9.39015 3.11926 9.84724 3.11926C10.4602 3.11926 11.048 3.36297 11.4814 3.79678C11.9149 4.23059 12.1584 4.81898 12.1584 5.43248Z" fill="white"/>
</svg>
