<svg width="28" height="28" viewBox="0 0 28 28" fill="none" xmlns="http://www.w3.org/2000/svg">
<path d="M13.4682 11.326C12.8802 7.98001 15.1202 4.77401 18.4662 4.18601C21.8122 3.59801 25.0182 5.83801 25.6062 9.18401C26.1942 12.53 23.9542 15.736 20.6082 16.324C17.2622 16.912 14.0562 14.672 13.4682 11.326V11.326ZM16.2262 10.836C16.5482 12.67 18.2982 13.888 20.1182 13.566C21.9522 13.244 23.1702 11.494 22.8482 9.67401C22.5262 7.84001 20.7762 6.62201 18.9562 6.94401C17.1362 7.26601 15.9042 9.01601 16.2262 10.836Z" fill="#1B93C7"/>
<path d="M6.15991 23.59L16.1279 15.218C16.9819 14.504 17.5139 13.636 16.7999 12.782C16.0859 11.928 14.7979 11.816 13.9439 12.53L3.97591 20.902C3.12191 21.616 2.72991 22.624 3.44391 23.478C4.15791 24.332 5.29191 24.304 6.15991 23.59V23.59Z" fill="#1B93C7"/>
<path d="M6.57986 21.168L8.74986 19.432C8.98786 19.236 9.01586 18.872 8.81986 18.648L6.08986 15.4C5.89386 15.162 5.52986 15.134 5.30586 15.33L3.13586 17.066C2.89786 17.262 2.86986 17.626 3.06586 17.85L5.78186 21.098C5.99186 21.336 6.34186 21.364 6.57986 21.168V21.168Z" fill="#1B93C7"/>
</svg>
