<svg width="20" height="18" viewBox="0 0 20 18" fill="none" xmlns="http://www.w3.org/2000/svg">
<path d="M17.3624 17.9725H2.6377C2.25404 17.9725 1.93652 17.6616 1.93652 17.2713V8.18253C1.93652 7.79887 2.24742 7.48797 2.63108 7.48136C6.81167 7.46151 6.81167 16.2063 6.81167 16.5966L3.33226 16.5768H16.6678L13.1619 16.5966C13.1619 16.213 13.1619 8.123 17.316 7.49459C17.7129 7.43505 18.0635 7.75257 18.0635 8.14946V17.2713C18.0635 17.6616 17.7526 17.9725 17.3624 17.9725Z" fill="#1B93C7"/>
<path d="M0.699521 10.6962C0.52092 10.6962 0.342319 10.6301 0.203407 10.4912C-0.0678022 10.2199 -0.0678022 9.77675 0.203407 9.50554L9.50389 0.20506C9.63618 0.0727634 9.81479 0 10 0C10.1852 0 10.3638 0.0727634 10.4961 0.20506L19.7966 9.50554C20.0678 9.77675 20.0678 10.2199 19.7966 10.4912C19.5254 10.7624 19.0822 10.7624 18.811 10.4912L11.3031 3.01637C10.5755 2.29535 9.39805 2.29535 8.67703 3.01637L1.18902 10.4978C1.05672 10.6301 0.878122 10.6962 0.699521 10.6962Z" fill="#1B93C7"/>
<path d="M12.4872 17.9726H7.51283C7.12917 17.9726 6.81166 17.6617 6.81166 17.2714L3.83498 7.46822C3.83498 7.08456 2.97505 8.3943 7.51283 2.50708H12.4872C16.6016 8.32815 16.1386 7.48145 16.1386 7.86511L13.1884 17.278C13.1884 17.6617 12.8709 17.9726 12.4872 17.9726ZM8.20739 16.5769H11.786V11.49H8.20739V16.5769Z" fill="#1B93C7"/>
</svg>
