<svg width="13" height="19" viewBox="0 0 13 19" fill="none" xmlns="http://www.w3.org/2000/svg">
<g clip-path="url(#clip0_848_151)">
<path fill-rule="evenodd" clip-rule="evenodd" d="M13 6.74706C13 3.02556 10.0893 0 6.49304 0H6.4913V2.99251H6.49304C8.50776 2.99251 10.1101 4.6784 10.1101 6.74706C10.1101 8.81223 8.50776 10.4964 6.49304 10.4964H6.4913V18.8998L6.49304 18.9032L11.9056 10.4964H11.8935C12.5911 9.43335 13 8.13544 13 6.74706ZM6.4913 0C2.90029 0.00173983 0 3.0273 0 6.74706C0 8.13544 0.40886 9.43335 1.11871 10.4964V10.519L6.49304 18.8998V10.4964C4.49572 10.4946 2.8742 8.81223 2.8742 6.74706C2.8742 4.6784 4.49572 2.99425 6.49304 2.99251V0H6.4913Z" fill="#1B93C7"/>
</g>
<defs>
<clipPath id="clip0_848_151">
<rect width="13" height="18.9032" fill="white"/>
</clipPath>
</defs>
</svg>
