<svg width="13" height="16" viewBox="0 0 13 16" fill="none" xmlns="http://www.w3.org/2000/svg">
<path d="M9.94586 15.5682C8.37198 15.5682 6.0754 14.5618 3.12037 10.5843L2.95977 10.3702C1.28417 8.11106 0.309869 6.10891 0.0636157 4.41191C-0.241524 2.33482 0.609655 1.22133 1.36983 0.653873L1.93728 0.23096C2.19424 0.0382406 2.51544 -0.036706 2.83664 0.0168272C3.15249 0.0703605 3.43086 0.241667 3.61822 0.498627L5.45977 2.97186C5.89339 3.55538 5.78097 4.36908 5.20816 4.79199L4.77454 5.11855C4.4694 5.34874 4.41587 5.79842 4.65677 6.12497L7.67605 10.1881C7.91695 10.5147 8.36663 10.595 8.67177 10.3648L9.10539 10.0383C9.67284 9.61534 10.4919 9.74382 10.9202 10.322L12.7564 12.7952C13.1579 13.3305 13.0508 14.0907 12.5262 14.4815L11.9587 14.9044C11.5572 15.2149 10.8773 15.5682 9.94586 15.5682Z" fill="#1B93C7"/>
</svg>
