<svg width="20" height="17" viewBox="0 0 20 17" fill="none" xmlns="http://www.w3.org/2000/svg">
<path fill-rule="evenodd" clip-rule="evenodd" d="M19.4931 15.7118C20.3128 14.6502 20.1181 13.1235 19.0545 12.3018C17.993 11.482 16.4663 11.6767 15.6445 12.7403C14.8248 13.8018 15.0195 15.3285 16.0831 16.1503C17.1446 16.97 18.6713 16.7733 19.4931 15.7118ZM18.7123 15.1093C19.2 14.4781 19.0832 13.5703 18.452 13.0825C17.8209 12.5948 16.913 12.7116 16.4253 13.3428C15.9376 13.974 16.0544 14.8818 16.6856 15.3695C17.3167 15.8573 18.2246 15.7404 18.7123 15.1093Z" fill="#1B93C7"/>
<path fill-rule="evenodd" clip-rule="evenodd" d="M5.83292 15.7118C6.65263 14.6502 6.45794 13.1235 5.39437 12.3018C4.33284 11.482 2.80613 11.6767 1.98437 12.7403C1.16466 13.8018 1.35934 15.3285 2.42292 16.1503C3.48649 16.97 5.01321 16.7733 5.83292 15.7118ZM5.05419 15.1093C5.54192 14.4781 5.42511 13.5703 4.79393 13.0825C4.16276 12.5948 3.25492 12.7116 2.7672 13.3428C2.27947 13.974 2.39628 14.8818 3.02745 15.3695C3.65658 15.8573 4.56441 15.7404 5.05419 15.1093Z" fill="#1B93C7"/>
<path fill-rule="evenodd" clip-rule="evenodd" d="M3.57666 9.12739C3.57666 9.12739 7.87604 9.68685 8.94986 9.96555C10.0237 10.2443 10.2389 10.7176 10.411 10.3098C10.5831 9.90202 10.7327 8.67655 9.46423 8.69705C8.19573 8.71754 5.05829 8.43884 4.4558 8.41835C3.85536 8.39785 3.61969 8.80566 3.57666 9.12739Z" fill="#1B93C7"/>
<path fill-rule="evenodd" clip-rule="evenodd" d="M5.92711 8.945L3.74873 8.84869C3.74873 8.84869 2.95361 9.66635 2.58884 10.2893C2.22407 10.9123 2.138 11.064 2.138 11.064L1.44944 11.0844L1.32034 11.3427L1.87979 11.4062L0.955566 13.1255L1.1277 13.3182L2.93312 11.4902C2.93312 11.4902 8.47846 14.7998 9.31662 15.015C10.1548 15.2301 13.7451 15.3592 14.3455 14.8859C14.948 14.4125 16.4727 12.3714 16.8825 11.4677C17.2904 10.5639 17.3334 10.1992 17.0752 9.55364C16.817 8.90812 15.0833 6.16823 15.0013 6.08831C14.9214 6.00839 14.6898 6.01863 14.6898 6.01863C14.6898 6.01863 14.8271 5.88133 14.7472 5.70714C14.6673 5.535 14.3783 5.64976 14.3783 5.64976C14.3783 5.64976 15.3784 4.6948 15.4132 4.56775C15.4481 4.44069 15.3333 4.21117 14.9993 4.60258C14.6652 4.994 14.2062 5.47763 14.2062 5.47763L14.2185 4.92637L13.9767 4.93867C13.9767 4.93867 13.9193 4.36282 14.0812 4.07592C14.2431 3.78902 14.1509 3.6968 14.0812 3.67426C14.0115 3.65172 13.9439 2.75414 13.6898 2.8689C13.4377 2.98366 13.3557 3.74394 13.5525 3.90378C13.7472 4.06567 13.8742 3.9837 13.8742 3.9837L13.8291 4.99605H13.657C13.657 4.99605 13.6693 4.50217 13.4725 4.15584C13.2779 3.81156 13.243 3.75418 13.2082 3.52262C13.1734 3.2931 13.0012 3.17834 12.702 3.37302C12.4028 3.5677 12.3229 4.19068 12.6446 4.2706C12.9664 4.35052 13.2205 3.9837 13.3803 4.2829C13.5422 4.58209 13.5422 5.15794 13.5422 5.15794C13.5422 5.15794 13.0934 5.17023 12.991 5.39975C12.8865 5.62927 12.5647 5.69895 12.6119 5.88338C12.6569 6.06782 13.2328 5.76862 13.4049 5.76862C13.5771 5.76862 13.6467 5.90592 13.7963 5.88338C13.9459 5.86084 13.9459 5.9879 14.0156 6.13544C14.0853 6.28504 14.1201 6.30758 14.1201 6.30758C14.1201 6.30758 13.6713 6.60678 13.8783 7.6888C14.0853 8.77081 14.6263 9.59872 14.5915 10.4717C14.5566 11.3468 13.6836 12.9903 13.6836 12.9903C13.6836 12.9903 10.3023 12.7608 9.9232 12.7382C9.54408 12.7157 9.40473 12.2894 9.71622 11.7607C10.0277 11.232 10.2675 10.9553 10.0728 10.6459C9.87812 10.3344 9.25514 9.85283 9.25514 9.85283L5.92711 8.945Z" fill="#1B93C7"/>
<path fill-rule="evenodd" clip-rule="evenodd" d="M5.5275 8.79744L6.44353 2.5082L5.99269 2.44263L5.07666 8.73186L5.5275 8.79744Z" fill="#1B93C7"/>
<path fill-rule="evenodd" clip-rule="evenodd" d="M6.0786 2.73981L1.69314 2.16192C1.69314 2.16192 0.861138 2.09224 0.664407 3.03696C0.467677 3.98168 0.0168363 6.98387 0.0168363 6.98387C0.0168363 6.98387 -0.208584 7.71751 0.990243 7.80153C2.18907 7.88555 5.3757 8.32409 5.3757 8.32409L6.0786 2.73981Z" fill="#1B93C7"/>
<path d="M3.84262 12.2813C3.84262 12.2444 3.87131 12.2157 3.90819 12.2157C3.94508 12.2157 3.97377 12.2444 3.97377 12.2813V13.9801L4.82422 12.5087C4.84266 12.478 4.8816 12.4678 4.91439 12.4842C4.94513 12.5026 4.95537 12.5415 4.93898 12.5743L4.08853 14.0457L5.55991 13.1953C5.59065 13.1768 5.63164 13.1871 5.65008 13.2198C5.66852 13.2506 5.65828 13.2916 5.62549 13.31L4.15411 14.1605H5.85296C5.88985 14.1605 5.91854 14.1892 5.91854 14.226C5.91854 14.2629 5.88985 14.2916 5.85296 14.2916H4.15411L5.62549 15.1421C5.65623 15.1605 5.66647 15.1994 5.65008 15.2322C5.63164 15.263 5.5927 15.2732 5.55991 15.2568L4.08853 14.4064L4.93898 15.8778C4.95742 15.9085 4.94718 15.9495 4.91439 15.9679C4.88365 15.9864 4.84266 15.9761 4.82422 15.9433L3.97377 14.472V16.1708C3.97377 16.2077 3.94508 16.2364 3.90819 16.2364C3.87131 16.2364 3.84262 16.2077 3.84262 16.1708V14.472L2.99217 15.9433C2.97372 15.9741 2.93479 15.9843 2.902 15.9679C2.87126 15.9495 2.86101 15.9105 2.87741 15.8778L3.72786 14.4064L2.25648 15.2568C2.22574 15.2753 2.18475 15.265 2.16631 15.2322C2.14786 15.2015 2.15811 15.1605 2.1909 15.1421L3.66228 14.2916H1.96548C1.92859 14.2916 1.8999 14.2629 1.8999 14.226C1.8999 14.1892 1.92859 14.1605 1.96548 14.1605H3.66433L2.19295 13.31C2.16221 13.2916 2.15196 13.2526 2.16836 13.2198C2.1868 13.1891 2.22574 13.1789 2.25853 13.1953L3.72991 14.0457L2.87946 12.5743C2.86101 12.5436 2.87126 12.5026 2.90405 12.4842C2.93479 12.4657 2.97577 12.476 2.99422 12.5087L3.84467 13.9801V12.2813H3.84262Z" fill="#1B93C7"/>
<path d="M17.5034 12.2813C17.5034 12.2444 17.532 12.2157 17.5689 12.2157C17.6058 12.2157 17.6345 12.2444 17.6345 12.2813V13.9801L18.485 12.5087C18.5034 12.478 18.5423 12.4678 18.5751 12.4842C18.6059 12.5026 18.6161 12.5415 18.5997 12.5743L17.7493 14.0457L19.2207 13.1953C19.2514 13.1768 19.2924 13.1871 19.3108 13.2198C19.3293 13.2526 19.319 13.2916 19.2862 13.31L17.8148 14.1605H19.5137C19.5506 14.1605 19.5793 14.1892 19.5793 14.226C19.5793 14.2629 19.5506 14.2916 19.5137 14.2916H17.8148L19.2862 15.1421C19.317 15.1605 19.3272 15.1994 19.3108 15.2322C19.2924 15.263 19.2534 15.2732 19.2207 15.2568L17.7493 14.4064L18.5997 15.8778C18.6182 15.9085 18.6079 15.9495 18.5751 15.9679C18.5444 15.9864 18.5034 15.9761 18.485 15.9433L17.6345 14.472V16.1708C17.6345 16.2077 17.6058 16.2364 17.5689 16.2364C17.532 16.2364 17.5034 16.2077 17.5034 16.1708V14.472L16.6529 15.9433C16.6345 15.9741 16.5955 15.9843 16.5627 15.9679C16.532 15.9495 16.5218 15.9105 16.5381 15.8778L17.3886 14.4064L15.9172 15.2568C15.8865 15.2753 15.8455 15.265 15.827 15.2322C15.8086 15.2015 15.8189 15.1605 15.8516 15.1421L17.323 14.2916H15.6242C15.5873 14.2916 15.5586 14.2629 15.5586 14.226C15.5586 14.1892 15.5873 14.1605 15.6242 14.1605H17.323L15.8516 13.31C15.8209 13.2916 15.8107 13.2526 15.827 13.2198C15.8455 13.1891 15.8844 13.1789 15.9172 13.1953L17.3886 14.0457L16.5381 12.5743C16.5197 12.5436 16.53 12.5026 16.5627 12.4842C16.5935 12.4657 16.6345 12.476 16.6529 12.5087L17.5034 13.9801V12.2813Z" fill="#1B93C7"/>
<path fill-rule="evenodd" clip-rule="evenodd" d="M16.5505 9.86719C16.5505 9.86719 17.1079 8.92247 17.3723 9.22372C17.6367 9.52701 17.8334 10.8365 17.3805 10.9963C16.9256 11.1562 16.4829 10.5004 16.4829 10.5004L16.5505 9.86719Z" fill="#1B93C7"/>
<path fill-rule="evenodd" clip-rule="evenodd" d="M5.12955 12.6891H8.16043C8.77521 12.6891 9.27729 13.1912 9.27729 13.8059C9.27729 14.4207 8.77521 14.9228 8.16043 14.9228H5.12955C4.51477 14.9228 4.0127 14.4207 4.0127 13.8059C4.0127 13.1912 4.51477 12.6891 5.12955 12.6891Z" fill="#1B93C7"/>
<path fill-rule="evenodd" clip-rule="evenodd" d="M9.68508 7.7462C9.68508 7.7462 11.2548 8.10277 12.0786 8.39787C12.9024 8.69501 13.6525 9.05979 13.1197 10.1705C12.5869 11.2812 12.425 11.4492 12.384 12.0743C12.3409 12.7014 12.5397 12.6173 12.8451 12.6604C13.1525 12.7034 13.4824 12.7608 13.5603 12.9145C13.6381 13.0682 13.6176 13.1092 13.1873 13.1071C12.7569 13.1051 11.7139 13.101 11.5786 13.0989C11.4434 13.0989 11.3839 12.5272 11.5725 12.187C11.759 11.8468 11.5458 10.6336 11.7651 10.1889C11.9823 9.74424 12.2446 9.66227 12.0581 9.59055C11.8717 9.52087 10.3081 9.48399 9.32851 9.32824C8.34895 9.17045 7.39604 8.62329 7.06815 8.00851C6.74027 7.39372 7.16857 6.42236 7.69318 4.98992C8.21985 3.55748 8.6297 3.30951 9.40843 3.43862C10.1872 3.56772 11.0028 3.93249 10.804 4.50424L9.68508 7.7462Z" fill="#1B93C7"/>
<path fill-rule="evenodd" clip-rule="evenodd" d="M9.30807 3.05949L10.9004 3.85461C10.9004 3.85461 11.3041 3.69886 11.634 3.28901C11.3 3.08203 10.3471 2.44266 10.2241 1.85451C10.0806 1.16596 11.0684 1.13317 12.0705 1.9078C12.0643 1.15981 11.7365 0.430267 11.0418 0.147467C10.1319 -0.223452 9.19741 0.120827 9.02732 1.00611C8.85518 1.89345 9.30807 3.05949 9.30807 3.05949Z" fill="#1B93C7"/>
<path fill-rule="evenodd" clip-rule="evenodd" d="M10.2345 3.81567L10.3 3.83412C10.3 3.83412 13.2633 5.18664 13.4764 5.28501C13.6895 5.38337 13.7695 5.71945 13.5768 5.84036C13.3842 5.96127 13.1239 5.96332 11.7837 5.35468C10.4435 4.74605 9.55615 4.41816 9.55615 4.41816L10.2345 3.81567Z" fill="#1B93C7"/>
<path fill-rule="evenodd" clip-rule="evenodd" d="M9.75308 4.42224L9.82071 4.43044C9.82071 4.43044 12.9459 5.34851 13.1713 5.41614C13.3967 5.48377 13.5238 5.80345 13.3496 5.951C13.1754 6.09855 12.9172 6.13749 11.5052 5.72353C10.0933 5.30958 9.16699 5.11285 9.16699 5.11285L9.75308 4.42224Z" fill="#1B93C7"/>
<path d="M4.5312 5.43048C4.45333 5.89361 4.25045 6.27478 3.92666 6.57398C3.54345 6.9285 3.07826 7.05965 2.5311 6.96744L2.19092 6.91416L2.28724 6.34446L2.66841 6.40798C2.9799 6.46126 3.2627 6.36085 3.51681 6.10879C3.74018 5.88542 3.87543 5.62516 3.92461 5.33416C3.98199 4.99193 3.92051 4.68659 3.74018 4.42223C3.54755 4.14558 3.26475 3.97754 2.88973 3.91401L2.63152 3.87098L2.1192 6.90391L1.53516 6.80554L2.13969 3.21521L3.11515 3.37915C3.53935 3.45088 3.89387 3.6599 4.17872 4.00623C4.50866 4.40174 4.62547 4.87717 4.5312 5.43048Z" fill="white"/>
</svg>
