<svg width="20" height="11" viewBox="0 0 20 11" fill="none" xmlns="http://www.w3.org/2000/svg">
<path d="M0.167969 5.95411C10.3917 -5.94733 19.1349 5.71201 19.1349 5.71201C19.1349 5.71201 9.88166 16.4729 0.167969 5.95411Z" fill="#1B93C7"/>
<path d="M11.9626 5.59227C11.9626 6.04978 11.827 6.497 11.5731 6.8774C11.3191 7.25781 10.9582 7.55429 10.5359 7.72937C10.1136 7.90445 9.64888 7.95027 9.20057 7.86101C8.75226 7.77175 8.34046 7.55144 8.01725 7.22793C7.69403 6.90443 7.47391 6.49225 7.38474 6.04353C7.29557 5.59481 7.34133 5.12973 7.51626 4.70705C7.69118 4.28437 7.9874 3.9231 8.36746 3.66893C8.74752 3.41475 9.19435 3.27905 9.65144 3.27905C10.2644 3.27905 10.8522 3.52276 11.2856 3.95657C11.7191 4.39038 11.9626 4.97877 11.9626 5.59227Z" fill="white"/>
</svg>
