<svg width="15" height="17" viewBox="0 0 15 17" fill="none" xmlns="http://www.w3.org/2000/svg">
<g clip-path="url(#clip0_848_154)">
<path d="M9.68311 10.5237L9.7699 10.5557L9.82471 10.574L9.68311 10.5237Z" fill="#1B93C7"/>
<path fill-rule="evenodd" clip-rule="evenodd" d="M9.22635 12.3325C9.19438 12.3645 9.16697 12.3919 9.135 12.4193C8.70107 12.8304 8.19864 13.1821 7.64139 13.4105C7.23944 13.5749 6.81465 13.6754 6.38073 13.6754C5.80521 13.6754 5.26624 13.5018 4.80491 13.1592C4.33445 12.8075 3.99188 12.3234 3.77263 11.7798C3.52141 11.1678 3.42093 10.4963 3.42093 9.83859C3.42093 8.49115 3.84115 7.1026 4.52172 5.94243C5.14748 4.87361 6.09297 3.85504 7.25771 3.37544C7.65966 3.21101 8.08445 3.11052 8.51837 3.11052C9.09389 3.11052 9.63287 3.28409 10.0942 3.62666C10.5647 3.97837 10.9072 4.46253 11.1265 5.00607C11.1904 5.16137 11.2452 5.32124 11.2909 5.4811C11.3914 5.22075 11.4919 4.95583 11.5878 4.69091C11.6837 4.42599 11.976 4.28896 12.241 4.38945C12.5059 4.48537 12.6429 4.77769 12.5424 5.04262C12.378 5.49024 12.2044 5.9333 12.0263 6.37635C11.807 6.92903 11.5924 7.47714 11.3868 8.03439C11.3092 8.52312 11.1813 9.00272 11.0168 9.46405C10.8478 9.93451 10.6377 10.3913 10.3865 10.8206C10.2906 11.1038 10.0668 11.8346 10.2267 12.0996C10.2678 12.1681 10.5144 12.1041 10.5692 12.0858C11.0077 11.9488 11.469 11.5834 11.7979 11.2728C12.5607 10.5511 13.1728 9.59194 13.5427 8.60991C13.9949 7.40406 14.1091 6.10687 13.8305 4.84621C13.424 3.0146 11.8893 1.81789 10.1536 1.30632C9.16697 1.01856 8.11642 0.940914 7.09785 1.07794C6.04273 1.21954 5.02415 1.58951 4.14261 2.1833C3.13317 2.86387 2.36581 3.79566 1.85424 4.89645C1.19194 6.30784 0.981827 7.8928 1.0275 9.43664C1.06404 10.8435 1.38834 12.2686 2.20138 13.4424C2.94133 14.5021 3.99188 15.2192 5.2297 15.5664C6.53146 15.9318 7.93372 15.8633 9.23092 15.4978C11.0899 14.9771 12.748 13.8581 13.9949 12.3964C14.1776 12.1818 14.5019 12.1589 14.712 12.3416C14.9267 12.5243 14.9496 12.8486 14.7668 13.0587C13.3829 14.6848 11.5558 15.9135 9.5004 16.489C8.02507 16.9047 6.43554 16.9732 4.95107 16.5575C3.48487 16.1464 2.23335 15.2923 1.36094 14.0316C0.429147 12.6979 0.0500364 11.0855 0.00436034 9.47318C-0.0413157 7.75577 0.200767 6.00181 0.940719 4.43969C1.53451 3.1836 2.41605 2.12392 3.57166 1.34286C4.58567 0.657723 5.75497 0.232937 6.96539 0.073071C8.12099 -0.0822272 9.32227 0.00455711 10.4413 0.333424C12.5424 0.950049 14.3375 2.42995 14.8262 4.63153C15.146 6.08403 15.0181 7.57763 14.4974 8.96618C14.0726 10.0944 13.3783 11.186 12.5013 12.0128C12.0537 12.4376 11.469 12.8715 10.8753 13.0587C10.2952 13.2415 9.68311 13.1775 9.34967 12.6157C9.29486 12.5289 9.25375 12.433 9.22635 12.3325ZM9.4867 10.341C9.69224 9.94365 9.90692 9.5417 10.0622 9.12148C10.213 8.70583 10.3226 8.27191 10.3911 7.83342C10.4139 7.68269 10.4322 7.53652 10.4413 7.38579C10.4505 7.23963 10.4596 7.09347 10.4596 6.9473C10.4596 6.42203 10.3865 5.87849 10.1855 5.38975C10.0348 5.02435 9.80643 4.68178 9.4867 4.44426C9.20351 4.23415 8.87008 4.1291 8.51837 4.1291C8.21691 4.1291 7.92001 4.20218 7.64596 4.31637C6.69133 4.70918 5.91484 5.58616 5.40327 6.45857C4.81405 7.46344 4.44407 8.66929 4.44407 9.83859C4.44407 10.3639 4.51715 10.9074 4.71813 11.3961C4.86886 11.7615 5.09724 12.1041 5.41697 12.3416C5.70016 12.5517 6.0336 12.6568 6.3853 12.6568C6.68676 12.6568 6.98366 12.5837 7.25771 12.4695C7.6962 12.2868 8.09358 12.0036 8.44072 11.6793C8.84724 11.2957 9.19894 10.8389 9.48213 10.3593L9.4867 10.341Z" fill="#1B93C7"/>
<path fill-rule="evenodd" clip-rule="evenodd" d="M10.1627 10.6927C10.4048 10.2771 10.6103 9.83404 10.7748 9.37728C10.9346 8.92965 11.0579 8.46376 11.131 7.9933L11.1356 7.96589L11.1447 7.94305C11.3503 7.3858 11.5649 6.83313 11.7888 6.28045C11.9623 5.84196 12.1359 5.3989 12.3003 4.95584C12.346 4.82795 12.2821 4.68635 12.1542 4.64068C12.0263 4.595 11.8847 4.65895 11.839 4.78684C11.7431 5.05176 11.6426 5.31668 11.5375 5.5816L11.2498 6.31699L11.0397 5.55877C10.9986 5.40803 10.9483 5.2573 10.8844 5.11114C10.6788 4.6087 10.3682 4.15651 9.93431 3.83678C9.51866 3.52618 9.02993 3.37089 8.51379 3.37089C8.11184 3.37089 7.71903 3.4668 7.35362 3.61754C6.24369 4.0743 5.34387 5.05633 4.74552 6.0749C4.08778 7.19397 3.68127 8.53684 3.68127 9.83861C3.68127 10.4644 3.77719 11.1038 4.0147 11.6793C4.22024 12.1726 4.52627 12.6248 4.9602 12.9446C5.37585 13.2552 5.86458 13.4105 6.38072 13.4105C6.78267 13.4105 7.17548 13.3145 7.54089 13.1638C8.06616 12.9491 8.54119 12.6157 8.95228 12.2275C8.97968 12.2001 9.01166 12.1726 9.03906 12.1452L9.35423 11.8346L9.47755 12.2594C9.50039 12.3371 9.53236 12.4147 9.57347 12.4832C9.84296 12.9354 10.3363 12.9491 10.793 12.8075C11.3503 12.634 11.8984 12.2183 12.3186 11.8209C13.1682 11.017 13.8396 9.96193 14.2507 8.87027C14.7531 7.53197 14.8765 6.08404 14.5704 4.68635C14.1045 2.57612 12.3734 1.17387 10.3682 0.58465C9.28115 0.264918 8.12098 0.182701 7.00191 0.333432C5.83261 0.48873 4.69984 0.899814 3.71781 1.56212C2.60331 2.31577 1.75374 3.33891 1.17822 4.55389C0.456541 6.07947 0.219026 7.79232 0.264702 9.46863C0.30581 11.0262 0.675786 12.5929 1.5756 13.8855C2.41147 15.0913 3.61275 15.9135 5.01957 16.3063C6.45837 16.7083 7.99765 16.6398 9.42731 16.2378C11.4279 15.676 13.2139 14.4747 14.5613 12.8989C14.6481 12.7984 14.6344 12.6385 14.5339 12.5518C14.4334 12.465 14.2735 12.4787 14.1868 12.5792C12.9033 14.0819 11.1995 15.2238 9.29028 15.7628C7.94741 16.1419 6.49948 16.2104 5.14747 15.8313C3.85027 15.4659 2.74491 14.7122 1.97298 13.6023C1.13711 12.3873 0.799111 10.9166 0.76257 9.45493C0.721462 7.86997 0.936139 6.24391 1.61671 4.79598C2.15112 3.65408 2.95045 2.68118 3.99643 1.9732C4.91452 1.35201 5.96964 0.968328 7.06586 0.822165C8.12098 0.680569 9.21263 0.758219 10.2312 1.05968C12.0582 1.59866 13.666 2.86845 14.0908 4.79598C14.3786 6.10231 14.2644 7.45889 13.7894 8.70584C13.4057 9.72898 12.7708 10.7156 11.9806 11.4647C11.6152 11.8072 11.131 12.1864 10.6469 12.3371C10.4413 12.401 10.1307 12.4513 9.99826 12.232C9.78358 11.8666 10.0074 11.1175 10.1353 10.7339L10.1444 10.711L10.1627 10.6927ZM9.71507 10.4781L9.70593 10.4918C9.40904 10.9942 9.04363 11.4692 8.61884 11.8712C8.24887 12.2183 7.82408 12.5198 7.35819 12.7116C7.04759 12.8395 6.71872 12.9172 6.38529 12.9172C5.9742 12.9172 5.59052 12.7938 5.25709 12.5518C4.89625 12.2868 4.64046 11.9032 4.47146 11.4921C4.25679 10.9714 4.17914 10.3959 4.17914 9.83861C4.17914 8.62362 4.56281 7.36753 5.17487 6.32612C5.71842 5.40347 6.53602 4.48995 7.54546 4.0743C7.85605 3.9464 8.18492 3.86875 8.51836 3.86875C8.92944 3.86875 9.31312 3.99208 9.64655 4.23416C10.0074 4.49908 10.2632 4.88276 10.4322 5.29384C10.6469 5.81455 10.7245 6.39007 10.7245 6.94732C10.7245 7.09805 10.7199 7.25334 10.7062 7.40408C10.6925 7.55937 10.6743 7.71467 10.6514 7.86997C10.5829 8.32673 10.4687 8.77436 10.3134 9.20828C10.1536 9.65133 9.95258 10.0761 9.71507 10.4781Z" fill="#1B93C7"/>
</g>
<defs>
<clipPath id="clip0_848_154">
<rect width="15" height="16.8362" fill="white"/>
</clipPath>
</defs>
</svg>
