<svg width="14" height="15" viewBox="0 0 14 15" fill="none" xmlns="http://www.w3.org/2000/svg">
<path d="M11.0754 4.22137C11.076 5.03418 10.8404 5.82888 10.3985 6.50499C9.95665 7.1811 9.32827 7.70822 8.59289 8.01968C7.85751 8.33113 7.04817 8.41294 6.26724 8.25473C5.48632 8.09652 4.7689 7.70542 4.20574 7.13088C3.64257 6.55635 3.25896 5.82419 3.10343 5.02705C2.9479 4.2299 3.02743 3.40358 3.33197 2.65259C3.63651 1.9016 4.15237 1.25969 4.8143 0.808058C5.47623 0.356426 6.2545 0.115357 7.05065 0.115356C8.11758 0.115356 9.14086 0.547857 9.89557 1.3178C10.6503 2.08773 11.0747 3.13212 11.0754 4.22137V4.22137Z" fill="#1B93C7"/>
<path d="M0.575188 14.8375C0.556899 13.9573 0.710919 13.0822 1.02822 12.2636C1.34551 11.4449 1.8197 10.6992 2.42298 10.0701C3.02626 9.44102 3.7465 8.94121 4.54145 8.59999C5.33641 8.25877 6.19009 8.08301 7.05245 8.08301C7.91481 8.08301 8.76849 8.25877 9.56345 8.59999C10.3584 8.94121 11.0786 9.44102 11.6819 10.0701C12.2852 10.6992 12.7594 11.4449 13.0767 12.2636C13.394 13.0822 13.548 13.9573 13.5297 14.8375H0.575188Z" fill="#1B93C7"/>
</svg>
