<svg width="24" height="28" viewBox="0 0 24 28" fill="none" xmlns="http://www.w3.org/2000/svg">
<path d="M24 5.96581C23.9585 5.54536 23.7885 5.14943 23.5145 4.83523C23.2406 4.52103 22.8769 4.30485 22.476 4.21793C20.8084 3.94746 19.1613 3.55628 17.547 3.0473C15.9661 2.37841 14.4837 1.48449 13.143 0.391564C12.8002 0.136976 12.3885 0 11.9661 0C11.5437 0 11.132 0.136976 10.7891 0.391564C9.52002 1.60255 8.00363 2.50421 6.35177 3.03007C4.82225 3.68254 3.20649 4.09457 1.55846 4.25239C1.15066 4.32038 0.778069 4.53135 0.503492 4.84975C0.228916 5.16815 0.0691545 5.57449 0.051148 6.00027C0.051148 6.00027 0 10.3866 0 14.2475C0 21.2368 7.99374 28 11.9917 28C15.9885 28 22.7641 23.2292 23.8476 14.353C24.119 9.11047 23.9311 5.98304 23.9311 5.98304L24 5.96473V5.96581ZM19.6472 11.3645L11.2965 19.49C10.9207 19.8594 10.3466 19.9176 9.90814 19.63L9.68894 19.4372L5.08142 14.493C4.87476 14.2614 4.76575 13.9545 4.77837 13.64C4.791 13.3254 4.92423 13.0289 5.14875 12.8157C5.37327 12.6025 5.67069 12.49 5.97558 12.503C6.28048 12.5161 6.56787 12.6535 6.77453 12.8851L10.5689 16.9915L18.0887 9.65217C18.2 9.5466 18.3303 9.46466 18.4722 9.41104C18.6141 9.35743 18.7649 9.33317 18.9159 9.33967C19.0669 9.34617 19.2152 9.3833 19.3524 9.44893C19.4895 9.51456 19.6127 9.60741 19.715 9.72217C19.8174 9.83694 19.8968 9.97138 19.9487 10.1178C20.0007 10.2642 20.0242 10.4198 20.0179 10.5756C20.0116 10.7314 19.9756 10.8844 19.912 11.0259C19.8484 11.1673 19.7584 11.2945 19.6472 11.4V11.3645V11.3645Z" fill="#1B93C7"/>
</svg>
