<svg width="1838" height="1024" viewBox="0 0 1838 1024" fill="none" xmlns="http://www.w3.org/2000/svg">
<path d="M1836.57 0H0.000488281V1021.61H1836.57V0Z" fill="url(#paint0_linear_33_3518)"/>
<path d="M533.598 0C533.598 0 673.406 61.4869 679.147 131.483C684.888 201.479 538.534 415.263 751.839 425.671C965.144 436.079 959.406 169.321 1122.98 156.078C1286.55 142.834 1325.77 305.532 1435.77 234.59C1545.77 163.648 1646.07 0 1646.07 0H533.598Z" fill="url(#paint1_linear_33_3518)"/>
<path d="M587.996 0C587.996 0 634.19 177.834 502.186 290.4C370.181 402.965 316.615 420.94 284.11 550.524C251.605 680.108 418.986 722.681 338.632 843.749C258.279 964.817 112.494 1024 112.494 1024L0.000488281 1021.61V0H587.996Z" fill="url(#paint2_linear_33_3518)"/>
<path d="M1596.94 0C1596.94 0 1640.47 51.0786 1587.87 150.404C1535.26 249.729 1458.73 322.564 1437.69 437.965C1416.64 553.366 1566.82 627.154 1577.34 770.934C1587.87 914.714 1486.39 1021.61 1486.39 1021.61H1731.98C1731.98 1021.61 1778.22 897.689 1699.78 793.636C1621.35 689.583 1542.9 648.91 1528.56 538.237C1514.22 427.563 1622.3 341.482 1713.17 326.346C1804.03 311.21 1835.56 309.113 1835.56 309.113L1836.57 0H1596.94Z" fill="url(#paint3_linear_33_3518)"/>
<path d="M503.771 1021.61C503.771 1021.61 454.358 748.232 691.583 694.314C928.808 640.397 985.241 846.607 1184.2 818.231C1383.15 789.855 1467.33 593.1 1507.51 492.832C1547.69 392.564 1590.68 303.613 1627.07 244.995C1694.04 137.16 1836.57 67.9198 1836.57 67.9198V583.641C1836.57 583.641 1670.13 551.477 1466.38 754.852C1302.24 918.683 1094.29 893.904 918.283 850.392C742.278 806.88 872.369 1021.61 872.369 1021.61H503.771Z" fill="url(#paint4_linear_33_3518)"/>
<path d="M1494.12 0C1494.12 0 1465.43 198.647 1383.17 133.376C1300.92 68.1037 1078.03 -55.8097 1012.98 85.1355C945.7 230.892 896.59 342.658 830.282 335.804C733.585 325.814 676.277 251.618 714.54 171.214C752.803 90.8094 827.412 0 827.412 0H1494.12Z" fill="url(#paint5_linear_33_3518)"/>
<path d="M0.000488281 0H726.975C726.975 0 835.063 157.97 600.712 352.833C366.36 547.695 121.48 524.993 132.005 684.842C142.53 844.692 387.4 1021.61 387.4 1021.61H0.000488281V0Z" fill="url(#paint6_linear_33_3518)"/>
<path d="M0.000159419 668.305C0.000159419 668.305 -0.956667 487.155 145.384 396.345C291.724 305.536 499.305 352.833 447.646 96.4834C429.439 6.03502 480.959 0.247419 480.959 0.247419L0.000159419 0V668.305Z" fill="url(#paint7_linear_33_3518)"/>
<path opacity="0.5" d="M1837.58 933.375V933.462H1837.43L1837.58 933.375Z" fill="white"/>
<defs>
<linearGradient id="paint0_linear_33_3518" x1="0.000488281" y1="510.803" x2="1836.57" y2="510.803" gradientUnits="userSpaceOnUse">
<stop stop-color="#0041BF"/>
<stop offset="1" stop-color="#09002A"/>
</linearGradient>
<linearGradient id="paint1_linear_33_3518" x1="680.899" y1="-192.813" x2="1435.42" y2="445.355" gradientUnits="userSpaceOnUse">
<stop offset="0.22" stop-color="#0041BF"/>
<stop offset="1" stop-color="#09002A"/>
</linearGradient>
<linearGradient id="paint2_linear_33_3518" x1="967532" y1="1.33746e+06" x2="-68894.8" y2="1.43066e+06" gradientUnits="userSpaceOnUse">
<stop stop-color="#0041BF"/>
<stop offset="1" stop-color="#09002A"/>
</linearGradient>
<linearGradient id="paint3_linear_33_3518" x1="1.10941e+06" y1="1.43467e+06" x2="2.05454e+06" y2="1.45596e+06" gradientUnits="userSpaceOnUse">
<stop stop-color="#0041BF"/>
<stop offset="1" stop-color="#09002A"/>
</linearGradient>
<linearGradient id="paint4_linear_33_3518" x1="3.87899e+06" y1="1.20735e+06" x2="5.8743e+06" y2="3.02189e+06" gradientUnits="userSpaceOnUse">
<stop stop-color="#0041BF"/>
<stop offset="1" stop-color="#09002A"/>
</linearGradient>
<linearGradient id="paint5_linear_33_3518" x1="2.12869e+06" y1="-135302" x2="2.32847e+06" y2="520991" gradientUnits="userSpaceOnUse">
<stop offset="0.22" stop-color="#0041BF"/>
<stop offset="1" stop-color="#09002A"/>
</linearGradient>
<linearGradient id="paint6_linear_33_3518" x1="1.39754e+06" y1="2.18033e+06" x2="-8635.02" y2="1.37947e+06" gradientUnits="userSpaceOnUse">
<stop offset="0.22" stop-color="#0041BF"/>
<stop offset="1" stop-color="#09002A"/>
</linearGradient>
<linearGradient id="paint7_linear_33_3518" x1="-233737" y1="-349484" x2="864824" y2="656041" gradientUnits="userSpaceOnUse">
<stop stop-color="#0041BF"/>
<stop offset="1" stop-color="#09002A"/>
</linearGradient>
</defs>
</svg>

