<svg width="100" height="100" viewBox="0 0 100 100" fill="none" xmlns="http://www.w3.org/2000/svg">
<path d="M88.6213 74.0677H70.0266C69.6682 74.0677 69.3245 73.9253 69.0711 73.6719C68.8177 73.4184 68.6753 73.0747 68.6753 72.7163C68.6753 72.3579 68.8177 72.0142 69.0711 71.7608C69.3245 71.5073 69.6682 71.365 70.0266 71.365H88.6213C88.9797 71.365 89.3234 71.5073 89.5768 71.7608C89.8302 72.0142 89.9726 72.3579 89.9726 72.7163C89.9726 73.0747 89.8302 73.4184 89.5768 73.6719C89.3234 73.9253 88.9797 74.0677 88.6213 74.0677Z" fill="#1B93C7"/>
<path d="M47.1891 74.0675H32.5945C30.5154 74.0742 28.502 73.3397 26.9155 71.9959C25.329 70.6521 24.2733 68.7869 23.9378 66.735L14.7743 11.7567H4.05399C3.69559 11.7567 3.35187 11.6143 3.09844 11.3609C2.84501 11.1074 2.70264 10.7637 2.70264 10.4053C2.70264 10.0469 2.84501 9.70318 3.09844 9.44976C3.35187 9.19633 3.69559 9.05396 4.05399 9.05396H15.9189C16.2387 9.05411 16.5482 9.16771 16.7922 9.37458C17.0361 9.58144 17.1988 9.86814 17.2513 10.1837L26.604 66.2931C26.8366 67.7126 27.5674 69.0028 28.6652 69.9323C29.763 70.8617 31.1561 71.3696 32.5945 71.3648H47.1891C47.5475 71.3648 47.8912 71.5071 48.1447 71.7606C48.3981 72.014 48.5405 72.3577 48.5405 72.7161C48.5405 73.0745 48.3981 73.4182 48.1447 73.6717C47.8912 73.9251 47.5475 74.0675 47.1891 74.0675Z" fill="#1B93C7"/>
<path d="M60.5676 74.0677H56.6487C56.2903 74.0677 55.9466 73.9253 55.6932 73.6719C55.4397 73.4184 55.2974 73.0747 55.2974 72.7163C55.2974 72.3579 55.4397 72.0142 55.6932 71.7608C55.9466 71.5073 56.2903 71.365 56.6487 71.365H60.5676C60.926 71.365 61.2698 71.5073 61.5232 71.7608C61.7766 72.0142 61.919 72.3579 61.919 72.7163C61.919 73.0747 61.7766 73.4184 61.5232 73.6719C61.2698 73.9253 60.926 74.0677 60.5676 74.0677Z" fill="#1B93C7"/>
<path d="M69.4313 22.1487H17.661C17.2979 22.1502 16.9485 22.0098 16.6874 21.7573C16.4263 21.5048 16.2743 21.1603 16.2637 20.7973C16.2587 20.6223 16.2887 20.4481 16.3519 20.2849C16.4151 20.1217 16.5104 19.9727 16.632 19.8468C16.7536 19.721 16.8992 19.6206 17.0601 19.5518C17.221 19.4829 17.3941 19.447 17.5691 19.446H69.4313C69.7897 19.446 70.1334 19.5883 70.3868 19.8418C70.6403 20.0952 70.7827 20.4389 70.7827 20.7973C70.7827 21.1557 70.6403 21.4994 70.3868 21.7529C70.1334 22.0063 69.7897 22.1487 69.4313 22.1487Z" fill="#1B93C7"/>
<path d="M24.4716 63.0472C24.1384 63.0471 23.8169 62.9239 23.5689 62.7012C23.321 62.4784 23.1641 62.172 23.1284 61.8406C23.0927 61.5092 23.1807 61.1764 23.3755 60.9059C23.5703 60.6355 23.8582 60.4466 24.1838 60.3756L81.3351 47.8931V34.054C81.3351 33.6956 81.4775 33.3518 81.7309 33.0984C81.9844 32.845 82.3281 32.7026 82.6865 32.7026C83.0449 32.7026 83.3886 32.845 83.642 33.0984C83.8955 33.3518 84.0378 33.6956 84.0378 34.054V48.981C84.0378 49.2894 83.9323 49.5885 83.7389 49.8286C83.5454 50.0688 83.2756 50.2356 82.9743 50.3012L24.7622 63.0161C24.6667 63.0369 24.5693 63.0474 24.4716 63.0472Z" fill="#1B93C7"/>
<path d="M75.981 93.8203C74.4941 93.8203 73.0407 93.3794 71.8044 92.5533C70.5682 91.7273 69.6046 90.5532 69.0356 89.1795C68.4666 87.8059 68.3178 86.2944 68.6078 84.8361C68.8979 83.3778 69.6139 82.0383 70.6652 80.987C71.7166 79.9356 73.0561 79.2196 74.5144 78.9296C75.9726 78.6395 77.4841 78.7884 78.8578 79.3574C80.2315 79.9264 81.4056 80.8899 82.2316 82.1262C83.0576 83.3624 83.4985 84.8159 83.4985 86.3027C83.4964 88.2958 82.7037 90.2067 81.2943 91.616C79.885 93.0254 77.9741 93.8181 75.981 93.8203ZM75.981 81.4878C75.0287 81.4878 74.0978 81.7702 73.306 82.2993C72.5142 82.8283 71.897 83.5803 71.5326 84.4601C71.1682 85.3399 71.0728 86.308 71.2586 87.242C71.4444 88.176 71.903 89.0339 72.5763 89.7073C73.2497 90.3807 74.1076 90.8393 75.0416 91.025C75.9756 91.2108 76.9437 91.1155 77.8235 90.751C78.7033 90.3866 79.4553 89.7695 79.9844 88.9777C80.5134 88.1859 80.7958 87.255 80.7958 86.3027C80.7948 85.0259 80.2872 83.8017 79.3845 82.8988C78.4818 81.9958 77.2577 81.4879 75.981 81.4865V81.4878Z" fill="#1B93C7"/>
<path d="M42.6284 93.8203C41.1416 93.8203 39.6881 93.3794 38.4519 92.5533C37.2156 91.7273 36.2521 90.5532 35.6831 89.1795C35.1141 87.8059 34.9652 86.2944 35.2553 84.8361C35.5454 83.3778 36.2613 82.0383 37.3127 80.987C38.364 79.9356 39.7035 79.2196 41.1618 78.9296C42.6201 78.6395 44.1316 78.7884 45.5053 79.3574C46.8789 79.9264 48.053 80.8899 48.879 82.1262C49.7051 83.3624 50.146 84.8159 50.146 86.3027C50.1435 88.2957 49.3506 90.2064 47.9414 91.6156C46.5321 93.0249 44.6214 93.8178 42.6284 93.8203ZM42.6284 81.4878C41.6761 81.4878 40.7452 81.7702 39.9534 82.2993C39.1616 82.8283 38.5445 83.5803 38.1801 84.4601C37.8156 85.3399 37.7203 86.308 37.9061 87.242C38.0918 88.176 38.5504 89.0339 39.2238 89.7073C39.8972 90.3807 40.7551 90.8393 41.6891 91.025C42.6231 91.2108 43.5912 91.1155 44.471 90.751C45.3508 90.3866 46.1028 89.7695 46.6318 88.9777C47.1609 88.1859 47.4433 87.255 47.4433 86.3027C47.4422 85.0259 46.9346 83.8017 46.0319 82.8988C45.1292 81.9958 43.9052 81.4879 42.6284 81.4865V81.4878Z" fill="#1B93C7"/>
<path d="M66.9756 53.7582H66.8986C66.7212 53.7484 66.5476 53.7037 66.3876 53.6267C66.2275 53.5497 66.0842 53.4419 65.9659 53.3095C65.8475 53.1771 65.7564 53.0227 65.6978 52.855C65.6392 52.6874 65.6142 52.5099 65.6242 52.3326L67.4053 20.7109C67.4254 20.3525 67.587 20.0168 67.8546 19.7775C68.1223 19.5383 68.474 19.4152 68.8324 19.4352C69.1908 19.4553 69.5265 19.6169 69.7657 19.8846C70.005 20.1522 70.1281 20.5039 70.108 20.8623L68.3283 52.4839C68.3086 52.829 68.1574 53.1535 67.9058 53.3905C67.6542 53.6275 67.3213 53.7591 66.9756 53.7582Z" fill="#1B93C7"/>
<path d="M51.7825 57.0824C51.4241 57.0824 51.0804 56.94 50.827 56.6866C50.5735 56.4332 50.4312 56.0895 50.4312 55.7311V20.7905C50.4312 20.4321 50.5735 20.0884 50.827 19.835C51.0804 19.5816 51.4241 19.4392 51.7825 19.4392C52.1409 19.4392 52.4846 19.5816 52.7381 19.835C52.9915 20.0884 53.1339 20.4321 53.1339 20.7905V55.7311C53.1339 56.0895 52.9915 56.4332 52.7381 56.6866C52.4846 56.94 52.1409 57.0824 51.7825 57.0824Z" fill="#1B93C7"/>
<path d="M36.6917 60.3757C36.3463 60.3762 36.0137 60.2445 35.7624 60.0075C35.5111 59.7705 35.36 59.4462 35.3404 59.1013L33.1633 20.8676C33.1429 20.5092 33.2657 20.1573 33.5047 19.8895C33.7436 19.6216 34.0792 19.4596 34.4376 19.4392C34.796 19.4188 35.1479 19.5416 35.4158 19.7805C35.6836 20.0195 35.8456 20.3551 35.866 20.7135L38.0471 58.9473C38.0571 59.1245 38.0322 59.3019 37.9736 59.4695C37.9151 59.637 37.8241 59.7914 37.7059 59.9238C37.5877 60.0562 37.4446 60.164 37.2847 60.2411C37.1248 60.3181 36.9513 60.363 36.7741 60.373L36.6917 60.3757Z" fill="#1B93C7"/>
<path d="M82.6863 35.4055C79.7963 35.4058 76.9712 34.5491 74.5681 32.9438C72.165 31.3384 70.2919 29.0566 69.1857 26.3867C68.0794 23.7169 67.7897 20.779 68.3532 17.9445C68.9166 15.11 70.3079 12.5062 72.3511 10.4624C74.3944 8.41861 76.9977 7.02659 79.8321 6.46236C82.6664 5.89813 85.6044 6.18704 88.2746 7.29254C90.9447 8.39805 93.2271 10.2705 94.8331 12.6732C96.4391 15.0758 97.2966 17.9007 97.2971 20.7906C97.2932 24.6648 95.7527 28.3793 93.0136 31.1191C90.2745 33.859 86.5605 35.4005 82.6863 35.4055ZM82.6863 8.88522C80.3306 8.88495 78.0277 9.5833 76.0689 10.892C74.1102 12.2006 72.5835 14.0608 71.682 16.2371C70.7805 18.4135 70.5447 20.8084 71.0044 23.1188C71.4641 25.4292 72.5987 27.5514 74.2646 29.2169C75.9305 30.8825 78.053 32.0165 80.3635 32.4757C82.674 32.9349 85.0688 32.6986 87.245 31.7966C89.4212 30.8946 91.281 29.3675 92.5892 27.4084C93.8974 25.4494 94.5952 23.1463 94.5944 20.7906C94.5905 17.6336 93.3346 14.607 91.1022 12.3747C88.8699 10.1423 85.8433 8.88645 82.6863 8.88251V8.88522Z" fill="#1B93C7"/>
<path d="M80.8417 25.6013C80.4833 25.6013 80.1397 25.4588 79.8863 25.2054L76.6552 21.9743C76.5262 21.8497 76.4232 21.7005 76.3524 21.5357C76.2816 21.3708 76.2443 21.1935 76.2427 21.014C76.2412 20.8346 76.2754 20.6567 76.3433 20.4906C76.4113 20.3245 76.5116 20.1736 76.6385 20.0468C76.7654 19.9199 76.9162 19.8195 77.0823 19.7516C77.2484 19.6836 77.4263 19.6494 77.6058 19.651C77.7852 19.6526 77.9625 19.6898 78.1274 19.7607C78.2923 19.8315 78.4414 19.9344 78.566 20.0635L80.8417 22.3392L86.8052 16.3757C86.9299 16.2466 87.079 16.1437 87.2439 16.0728C87.4087 16.002 87.5861 15.9647 87.7655 15.9632C87.9449 15.9616 88.1229 15.9958 88.289 16.0637C88.455 16.1317 88.6059 16.232 88.7328 16.3589C88.8597 16.4858 88.96 16.6367 89.028 16.8028C89.0959 16.9688 89.1301 17.1468 89.1286 17.3262C89.127 17.5056 89.0897 17.683 89.0189 17.8478C88.9481 18.0127 88.8451 18.1618 88.716 18.2865L81.7971 25.2054C81.672 25.3313 81.5231 25.4311 81.3591 25.4991C81.1951 25.5671 81.0192 25.6018 80.8417 25.6013Z" fill="#1B93C7"/>
</svg>
