<svg width="610" height="610" viewBox="0 0 610 610" fill="none" xmlns="http://www.w3.org/2000/svg">
<path d="M305 610C223.5 610 146.9 578.3 89.3 520.7C31.7 463.1 0 386.5 0 305C0 223.5 31.7 146.9 89.3 89.3C146.9 31.7 223.5 0 305 0C386.5 0 463.1 31.7 520.7 89.3C578.3 146.9 610 223.5 610 305C610 386.5 578.3 463.1 520.7 520.7C463.1 578.3 386.5 610 305 610ZM305 48C163.3 48 48 163.3 48 305C48 446.7 163.3 562 305 562C446.7 562 562 446.7 562 305C562 163.3 446.7 48 305 48Z" fill="#1B93C7"/>
<path d="M254.2 417C248.1 417 241.9 414.7 237.2 410L162.8 335.6C153.4 326.2 153.4 311 162.8 301.7C172.2 292.3 187.4 292.3 196.7 301.7L254.1 359.1L413.3 200C422.7 190.6 437.9 190.6 447.2 200C456.6 209.4 456.6 224.6 447.2 233.9L271.1 410C266.4 414.7 260.3 417 254.2 417Z" fill="#1B93C7"/>
</svg>
