<svg width="298" height="298" viewBox="0 0 298 298" fill="none" xmlns="http://www.w3.org/2000/svg">
<path d="M264.092 220.721H208.68C207.612 220.721 206.588 220.297 205.833 219.542C205.078 218.787 204.653 217.762 204.653 216.694C204.653 215.626 205.078 214.602 205.833 213.847C206.588 213.092 207.612 212.667 208.68 212.667H264.092C265.16 212.667 266.185 213.092 266.94 213.847C267.695 214.602 268.119 215.626 268.119 216.694C268.119 217.762 267.695 218.787 266.94 219.542C266.185 220.297 265.16 220.721 264.092 220.721Z" fill="#1B93C7"/>
<path d="M140.623 220.721H97.1316C90.9358 220.741 84.9357 218.553 80.2079 214.548C75.4801 210.544 72.3341 204.985 71.3344 198.871L44.0271 35.0351H12.0807C11.0127 35.0351 9.98841 34.6109 9.2332 33.8556C8.47799 33.1004 8.05371 32.0761 8.05371 31.0081C8.05371 29.9401 8.47799 28.9158 9.2332 28.1606C9.98841 27.4054 11.0127 26.9811 12.0807 26.9811H47.438C48.3913 26.9815 49.3134 27.3201 50.0405 27.9365C50.7675 28.553 51.2524 29.4074 51.4087 30.3477L79.2797 197.554C79.9729 201.784 82.1506 205.629 85.4221 208.398C88.6937 211.168 92.845 212.682 97.1316 212.667H140.623C141.691 212.667 142.716 213.092 143.471 213.847C144.226 214.602 144.65 215.626 144.65 216.694C144.65 217.762 144.226 218.787 143.471 219.542C142.716 220.297 141.691 220.721 140.623 220.721Z" fill="#1B93C7"/>
<path d="M180.491 220.721H168.812C167.744 220.721 166.72 220.297 165.965 219.542C165.209 218.787 164.785 217.762 164.785 216.694C164.785 215.626 165.209 214.602 165.965 213.847C166.72 213.092 167.744 212.667 168.812 212.667H180.491C181.559 212.667 182.583 213.092 183.338 213.847C184.093 214.602 184.518 215.626 184.518 216.694C184.518 217.762 184.093 218.787 183.338 219.542C182.583 220.297 181.559 220.721 180.491 220.721Z" fill="#1B93C7"/>
<path d="M206.905 66.0029H52.6294C51.5472 66.0076 50.506 65.589 49.728 64.8367C48.9501 64.0843 48.497 63.0577 48.4655 61.9759C48.4505 61.4545 48.5398 60.9353 48.7282 60.4489C48.9167 59.9625 49.2005 59.5187 49.5629 59.1435C49.9253 58.7684 50.359 58.4694 50.8386 58.2642C51.3182 58.0591 51.834 57.9519 52.3556 57.9489H206.905C207.973 57.9489 208.997 58.3731 209.752 59.1283C210.508 59.8836 210.932 60.9078 210.932 61.9759C210.932 63.0439 210.508 64.0682 209.752 64.8234C208.997 65.5786 207.973 66.0029 206.905 66.0029V66.0029Z" fill="#1B93C7"/>
<path d="M72.9255 187.881C71.9323 187.881 70.9743 187.513 70.2354 186.85C69.4965 186.186 69.029 185.273 68.9226 184.285C68.8162 183.298 69.0785 182.306 69.659 181.5C70.2395 180.694 71.0974 180.131 72.0677 179.919L242.379 142.722V101.481C242.379 100.413 242.803 99.3887 243.558 98.6335C244.313 97.8783 245.338 97.454 246.406 97.454C247.474 97.454 248.498 97.8783 249.253 98.6335C250.009 99.3887 250.433 100.413 250.433 101.481V145.964C250.433 146.883 250.118 147.774 249.542 148.49C248.965 149.205 248.161 149.702 247.264 149.898L73.7913 187.788C73.5069 187.85 73.2166 187.881 72.9255 187.881V187.881Z" fill="#1B93C7"/>
<path d="M226.423 279.584C221.992 279.584 217.661 278.27 213.977 275.809C210.293 273.347 207.421 269.848 205.726 265.755C204.03 261.662 203.587 257.157 204.451 252.812C205.315 248.466 207.449 244.474 210.582 241.341C213.715 238.208 217.707 236.075 222.052 235.21C226.398 234.346 230.902 234.789 234.996 236.485C239.089 238.181 242.588 241.052 245.05 244.736C247.511 248.42 248.825 252.751 248.825 257.182C248.819 263.121 246.457 268.816 242.257 273.016C238.057 277.216 232.362 279.578 226.423 279.584ZM226.423 242.834C223.585 242.834 220.811 243.675 218.451 245.252C216.092 246.828 214.253 249.069 213.167 251.691C212.081 254.313 211.797 257.198 212.35 259.981C212.904 262.764 214.27 265.321 216.277 267.328C218.284 269.334 220.84 270.701 223.624 271.255C226.407 271.808 229.292 271.524 231.914 270.438C234.536 269.352 236.776 267.513 238.353 265.153C239.93 262.794 240.771 260.02 240.771 257.182C240.768 253.377 239.255 249.729 236.565 247.038C233.875 244.348 230.228 242.834 226.423 242.83V242.834Z" fill="#1B93C7"/>
<path d="M127.032 279.584C122.601 279.584 118.27 278.27 114.586 275.809C110.902 273.347 108.031 269.848 106.335 265.755C104.64 261.662 104.196 257.157 105.06 252.812C105.925 248.466 108.058 244.474 111.191 241.341C114.324 238.208 118.316 236.075 122.662 235.21C127.007 234.346 131.512 234.789 135.605 236.485C139.699 238.181 143.198 241.052 145.659 244.736C148.121 248.42 149.435 252.751 149.435 257.182C149.427 263.121 147.064 268.815 142.865 273.015C138.665 277.214 132.971 279.577 127.032 279.584ZM127.032 242.834C124.194 242.834 121.42 243.675 119.061 245.252C116.701 246.828 114.862 249.069 113.776 251.691C112.69 254.313 112.406 257.198 112.96 259.981C113.513 262.764 114.88 265.321 116.886 267.328C118.893 269.334 121.45 270.701 124.233 271.255C127.016 271.808 129.901 271.524 132.523 270.438C135.145 269.352 137.386 267.513 138.962 265.153C140.539 262.794 141.381 260.02 141.381 257.182C141.377 253.377 139.865 249.729 137.175 247.038C134.485 244.348 130.837 242.834 127.032 242.83V242.834Z" fill="#1B93C7"/>
<path d="M199.587 160.199H199.358C198.829 160.17 198.312 160.037 197.835 159.807C197.358 159.578 196.931 159.257 196.578 158.862C196.226 158.468 195.954 158.007 195.779 157.508C195.605 157.008 195.53 156.479 195.56 155.951L200.868 61.7182C200.928 60.6502 201.409 59.6497 202.207 58.9367C203.004 58.2238 204.052 57.8569 205.12 57.9167C206.188 57.9765 207.189 58.4582 207.902 59.2557C208.615 60.0532 208.982 61.1012 208.922 62.1693L203.618 156.402C203.56 157.43 203.109 158.397 202.359 159.103C201.609 159.81 200.617 160.202 199.587 160.199Z" fill="#1B93C7"/>
<path d="M154.311 170.106C153.243 170.106 152.219 169.681 151.464 168.926C150.708 168.171 150.284 167.147 150.284 166.079V61.9557C150.284 60.8877 150.708 59.8634 151.464 59.1082C152.219 58.353 153.243 57.9287 154.311 57.9287C155.379 57.9287 156.404 58.353 157.159 59.1082C157.914 59.8634 158.338 60.8877 158.338 61.9557V166.079C158.338 167.147 157.914 168.171 157.159 168.926C156.404 169.681 155.379 170.106 154.311 170.106Z" fill="#1B93C7"/>
<path d="M109.341 179.919C108.312 179.921 107.321 179.529 106.572 178.822C105.823 178.116 105.373 177.15 105.314 176.122L98.8269 62.1854C98.766 61.1173 99.1319 60.0688 99.844 59.2706C100.556 58.4723 101.556 57.9897 102.624 57.9288C103.692 57.8679 104.741 58.2338 105.539 58.946C106.337 59.6581 106.82 60.6582 106.881 61.7263L113.381 175.663C113.41 176.191 113.336 176.72 113.162 177.219C112.987 177.718 112.716 178.178 112.364 178.573C112.012 178.967 111.585 179.289 111.109 179.518C110.632 179.748 110.115 179.882 109.587 179.911L109.341 179.919Z" fill="#1B93C7"/>
<path d="M246.406 105.508C237.794 105.509 229.375 102.956 222.214 98.1721C215.052 93.3882 209.471 86.5883 206.174 78.6321C202.877 70.676 202.014 61.921 203.693 53.4742C205.372 45.0274 209.518 37.2682 215.607 31.1777C221.696 25.0872 229.454 20.9389 237.9 19.2575C246.347 17.5761 255.102 18.4371 263.059 21.7315C271.016 25.0259 277.817 30.6058 282.603 37.7657C287.389 44.9255 289.944 53.3437 289.946 61.9558C289.934 73.5009 285.344 84.5699 277.181 92.7347C269.019 100.899 257.951 105.493 246.406 105.508V105.508ZM246.406 26.4777C239.386 26.4769 232.523 28.558 226.686 32.4577C220.849 36.3575 216.299 41.9007 213.613 48.3863C210.927 54.872 210.224 62.0086 211.594 68.8936C212.964 75.7786 216.345 82.1027 221.309 87.0661C226.274 92.0294 232.598 95.4089 239.484 96.7773C246.369 98.1456 253.506 97.4413 259.991 94.7534C266.476 92.0655 272.018 87.5148 275.916 81.6768C279.815 75.8388 281.894 68.9758 281.892 61.9558C281.88 52.5479 278.138 43.5286 271.485 36.8762C264.833 30.2238 255.814 26.4813 246.406 26.4696V26.4777Z" fill="#1B93C7"/>
<line x1="247" y1="39" x2="247" y2="67" stroke="#1B93C7" stroke-width="6" stroke-linecap="round"/>
<circle cx="247" cy="81" r="5" fill="#1B93C7"/>
</svg>
