<svg width="392" height="438" viewBox="0 0 392 438" fill="none" xmlns="http://www.w3.org/2000/svg">
<g clip-path="url(#clip0_797_126)">
<path d="M231.691 419.874H18.1179V18.1264H373.882V279.038C373.882 281.52 374.88 283.789 376.514 285.423C378.147 287.088 380.415 288.116 382.956 288.116C387.947 288.116 392 284.062 392 279.068V9.04808C392 6.65744 391.032 4.32733 389.338 2.63271C387.644 0.938084 385.315 -0.0302734 382.926 -0.0302734H9.04383C6.68457 -1.22751e-05 4.32531 0.968345 2.66173 2.66297C0.967901 4.32733 0 6.6877 0 9.04808V428.922C0 431.312 0.967901 433.642 2.66173 435.337C4.35556 437.032 6.68457 438 9.07407 438H231.691C236.682 438 240.735 433.945 240.735 428.952C240.735 426.471 239.737 424.201 238.104 422.567C236.47 420.902 234.202 419.874 231.691 419.874Z" fill="#1B93C7"/>
<path d="M100.42 120.53C103.989 123.95 109.615 123.919 113.093 120.409L162.849 70.6295C166.388 67.0889 166.388 61.3696 162.849 57.829C159.311 54.2884 153.594 54.2884 150.055 57.829L106.59 101.314L92.1926 87.4244C88.5933 83.9444 82.8464 84.0654 79.3982 87.6665C75.9198 91.2676 76.0408 97.0172 79.6402 100.467L100.42 120.53Z" fill="#1B93C7"/>
<path d="M299.324 89.3611H161.67C156.679 89.3611 152.626 93.4161 152.626 98.4092C152.626 103.402 156.679 107.457 161.67 107.457H299.324C304.314 107.457 308.367 103.402 308.367 98.4092C308.398 93.4161 304.345 89.3611 299.324 89.3611Z" fill="#1B93C7"/>
<path d="M100.42 199.3C103.989 202.719 109.615 202.689 113.093 199.179L162.849 149.399C166.388 145.859 166.388 140.139 162.849 136.599C159.311 133.058 153.594 133.058 150.055 136.599L106.59 180.084L92.1926 166.194C88.5933 162.714 82.8464 162.835 79.3982 166.436C75.9198 170.037 76.0408 175.787 79.6402 179.237L100.42 199.3Z" fill="#1B93C7"/>
<path d="M299.324 168.131H161.67C156.679 168.131 152.626 172.186 152.626 177.179C152.626 182.172 156.679 186.227 161.67 186.227H299.324C304.314 186.227 308.367 182.172 308.367 177.179C308.398 172.186 304.345 168.131 299.324 168.131Z" fill="#1B93C7"/>
<path d="M162.88 215.369C159.341 211.828 153.624 211.828 150.085 215.369L106.59 258.884L92.1926 244.994C88.5933 241.514 82.8464 241.635 79.3982 245.236C75.9198 248.837 76.0408 254.557 79.6402 258.037L100.42 278.1C103.989 281.55 109.615 281.489 113.093 277.979L162.88 228.169C166.419 224.628 166.419 218.909 162.88 215.369Z" fill="#1B93C7"/>
<path d="M299.324 246.901H161.67C156.679 246.901 152.626 250.956 152.626 255.949C152.626 260.942 156.679 264.997 161.67 264.997H299.324C304.314 264.997 308.367 260.942 308.367 255.949C308.398 250.956 304.345 246.901 299.324 246.901Z" fill="#1B93C7"/>
<path d="M260.638 323.038V400.234V416.545C260.638 423.868 265.054 430.465 271.829 433.279C274.067 434.217 276.427 434.671 278.756 434.671C283.474 434.671 288.102 432.825 291.55 429.376L385.013 335.869C390.185 330.694 391.728 322.886 388.945 316.138C386.132 309.36 379.538 304.942 372.219 304.942H356.823H278.756C268.744 304.942 260.638 313.052 260.638 323.038ZM278.756 323.038H372.219L278.756 416.545V323.038V323.038Z" fill="#1B93C7"/>
</g>
<defs>
<clipPath id="clip0_797_126">
<rect width="392" height="438" fill="white"/>
</clipPath>
</defs>
</svg>
