<svg width="282" height="262" viewBox="0 0 282 262" fill="none" xmlns="http://www.w3.org/2000/svg">
<path d="M256.092 202.721H200.68C199.612 202.721 198.588 202.297 197.833 201.542C197.078 200.787 196.653 199.762 196.653 198.694C196.653 197.626 197.078 196.602 197.833 195.847C198.588 195.092 199.612 194.667 200.68 194.667H256.092C257.16 194.667 258.185 195.092 258.94 195.847C259.695 196.602 260.119 197.626 260.119 198.694C260.119 199.762 259.695 200.787 258.94 201.542C258.185 202.297 257.16 202.721 256.092 202.721Z" fill="#1B93C7"/>
<path d="M132.623 202.721H89.1316C82.9358 202.741 76.9357 200.553 72.2079 196.548C67.4801 192.544 64.3341 186.985 63.3344 180.871L36.0271 17.0351H4.08074C3.0127 17.0351 1.98841 16.6109 1.2332 15.8556C0.477986 15.1004 0.0537109 14.0761 0.0537109 13.0081C0.0537109 11.9401 0.477986 10.9158 1.2332 10.1606C1.98841 9.40535 3.0127 8.98108 4.08074 8.98108H39.438C40.3913 8.98152 41.3134 9.32008 42.0405 9.93653C42.7675 10.553 43.2524 11.4074 43.4087 12.3477L71.2797 179.554C71.9729 183.784 74.1506 187.629 77.4221 190.398C80.6937 193.168 84.845 194.682 89.1316 194.667H132.623C133.691 194.667 134.716 195.092 135.471 195.847C136.226 196.602 136.65 197.626 136.65 198.694C136.65 199.762 136.226 200.787 135.471 201.542C134.716 202.297 133.691 202.721 132.623 202.721Z" fill="#1B93C7"/>
<path d="M172.491 202.721H160.812C159.744 202.721 158.72 202.297 157.965 201.542C157.209 200.787 156.785 199.762 156.785 198.694C156.785 197.626 157.209 196.602 157.965 195.847C158.72 195.092 159.744 194.667 160.812 194.667H172.491C173.559 194.667 174.583 195.092 175.338 195.847C176.093 196.602 176.518 197.626 176.518 198.694C176.518 199.762 176.093 200.787 175.338 201.542C174.583 202.297 173.559 202.721 172.491 202.721Z" fill="#1B93C7"/>
<path d="M198.905 48.0029H44.6294C43.5472 48.0076 42.506 47.589 41.728 46.8367C40.9501 46.0843 40.497 45.0577 40.4655 43.9759C40.4505 43.4545 40.5398 42.9353 40.7282 42.4489C40.9167 41.9625 41.2005 41.5187 41.5629 41.1435C41.9253 40.7684 42.359 40.4694 42.8386 40.2642C43.3182 40.0591 43.834 39.9519 44.3556 39.9489H198.905C199.973 39.9489 200.997 40.3731 201.752 41.1283C202.508 41.8836 202.932 42.9078 202.932 43.9759C202.932 45.0439 202.508 46.0682 201.752 46.8234C200.997 47.5786 199.973 48.0029 198.905 48.0029Z" fill="#1B93C7"/>
<path d="M64.9255 169.881C63.9323 169.881 62.9743 169.513 62.2354 168.85C61.4965 168.186 61.029 167.273 60.9226 166.285C60.8162 165.298 61.0785 164.306 61.659 163.5C62.2395 162.694 63.0974 162.131 64.0677 161.919L234.379 124.722V83.481C234.379 82.413 234.803 81.3887 235.558 80.6335C236.313 79.8783 237.338 79.454 238.406 79.454C239.474 79.454 240.498 79.8783 241.253 80.6335C242.009 81.3887 242.433 82.413 242.433 83.481V127.964C242.433 128.883 242.118 129.774 241.542 130.49C240.965 131.205 240.161 131.702 239.264 131.898L65.7913 169.788C65.5069 169.85 65.2166 169.881 64.9255 169.881Z" fill="#1B93C7"/>
<path d="M218.423 261.584C213.992 261.584 209.661 260.27 205.977 257.809C202.293 255.347 199.421 251.848 197.726 247.755C196.03 243.662 195.587 239.157 196.451 234.812C197.315 230.466 199.449 226.474 202.582 223.341C205.715 220.208 209.707 218.075 214.052 217.21C218.398 216.346 222.902 216.789 226.996 218.485C231.089 220.181 234.588 223.052 237.05 226.736C239.511 230.42 240.825 234.751 240.825 239.182C240.819 245.121 238.457 250.816 234.257 255.016C230.057 259.216 224.362 261.578 218.423 261.584ZM218.423 224.834C215.585 224.834 212.811 225.675 210.451 227.252C208.092 228.828 206.253 231.069 205.167 233.691C204.081 236.313 203.797 239.198 204.35 241.981C204.904 244.764 206.27 247.321 208.277 249.328C210.284 251.334 212.84 252.701 215.624 253.255C218.407 253.808 221.292 253.524 223.914 252.438C226.536 251.352 228.776 249.513 230.353 247.153C231.93 244.794 232.771 242.02 232.771 239.182C232.768 235.377 231.255 231.729 228.565 229.038C225.875 226.348 222.228 224.834 218.423 224.83V224.834Z" fill="#1B93C7"/>
<path d="M119.032 261.584C114.601 261.584 110.27 260.27 106.586 257.809C102.902 255.347 100.031 251.848 98.3352 247.755C96.6396 243.662 96.1959 239.157 97.0603 234.812C97.9247 230.466 100.058 226.474 103.191 223.341C106.324 220.208 110.316 218.075 114.662 217.21C119.007 216.346 123.512 216.789 127.605 218.485C131.699 220.181 135.198 223.052 137.659 226.736C140.121 230.42 141.435 234.751 141.435 239.182C141.427 245.121 139.064 250.815 134.865 255.015C130.665 259.214 124.971 261.577 119.032 261.584ZM119.032 224.834C116.194 224.834 113.42 225.675 111.061 227.252C108.701 228.828 106.862 231.069 105.776 233.691C104.69 236.313 104.406 239.198 104.96 241.981C105.513 244.764 106.88 247.321 108.886 249.328C110.893 251.334 113.45 252.701 116.233 253.255C119.016 253.808 121.901 253.524 124.523 252.438C127.145 251.352 129.386 249.513 130.962 247.153C132.539 244.794 133.381 242.02 133.381 239.182C133.377 235.377 131.865 231.729 129.175 229.038C126.485 226.348 122.837 224.834 119.032 224.83V224.834Z" fill="#1B93C7"/>
<path d="M191.587 142.199H191.358C190.829 142.17 190.312 142.037 189.835 141.807C189.358 141.578 188.931 141.257 188.578 140.862C188.226 140.467 187.954 140.007 187.779 139.508C187.605 139.008 187.53 138.479 187.56 137.951L192.868 43.7182C192.928 42.6502 193.409 41.6497 194.207 40.9367C195.004 40.2238 196.052 39.8569 197.12 39.9167C198.188 39.9765 199.189 40.4582 199.902 41.2557C200.615 42.0532 200.982 43.1012 200.922 44.1693L195.618 138.402C195.56 139.43 195.109 140.397 194.359 141.103C193.609 141.81 192.617 142.202 191.587 142.199Z" fill="#1B93C7"/>
<path d="M146.311 152.106C145.243 152.106 144.219 151.681 143.464 150.926C142.708 150.171 142.284 149.147 142.284 148.079V43.9557C142.284 42.8877 142.708 41.8634 143.464 41.1082C144.219 40.353 145.243 39.9287 146.311 39.9287C147.379 39.9287 148.404 40.353 149.159 41.1082C149.914 41.8634 150.338 42.8877 150.338 43.9557V148.079C150.338 149.147 149.914 150.171 149.159 150.926C148.404 151.681 147.379 152.106 146.311 152.106Z" fill="#1B93C7"/>
<path d="M101.341 161.919C100.312 161.921 99.321 161.529 98.572 160.822C97.8231 160.116 97.3731 159.15 97.3144 158.122L90.8269 44.1854C90.766 43.1173 91.1319 42.0688 91.844 41.2706C92.5562 40.4723 93.5563 39.9897 94.6243 39.9288C95.6924 39.8679 96.7408 40.2338 97.5391 40.946C98.3374 41.6581 98.82 42.6582 98.8809 43.7263L105.381 157.663C105.41 158.191 105.336 158.72 105.162 159.219C104.987 159.718 104.716 160.178 104.364 160.573C104.012 160.967 103.585 161.289 103.109 161.518C102.632 161.748 102.115 161.882 101.587 161.911L101.341 161.919Z" fill="#1B93C7"/>
<path d="M238.406 87.5081C229.794 87.5089 221.375 84.9559 214.214 80.1721C207.052 75.3882 201.471 68.5883 198.174 60.6321C194.877 52.676 194.014 43.921 195.693 35.4742C197.372 27.0274 201.518 19.2682 207.607 13.1777C213.696 7.08717 221.454 2.93894 229.9 1.25754C238.347 -0.423857 247.102 0.43708 255.059 3.73149C263.016 7.0259 269.817 12.6058 274.603 19.7657C279.389 26.9255 281.944 35.3437 281.946 43.9558C281.934 55.5009 277.344 66.5699 269.181 74.7347C261.019 82.8994 249.951 87.4931 238.406 87.5081ZM238.406 8.47766C231.386 8.47686 224.523 10.558 218.686 14.4577C212.849 18.3575 208.299 23.9007 205.613 30.3863C202.927 36.872 202.224 44.0086 203.594 50.8936C204.964 57.7786 208.345 64.1027 213.309 69.0661C218.274 74.0294 224.598 77.4089 231.484 78.7773C238.369 80.1457 245.506 79.4413 251.991 76.7534C258.476 74.0655 264.018 69.5148 267.916 63.6768C271.815 57.8388 273.894 50.9758 273.892 43.9558C273.88 34.5479 270.138 25.5286 263.485 18.8762C256.833 12.2238 247.814 8.48133 238.406 8.4696V8.47766Z" fill="#1B93C7"/>
<line x1="220" y1="41" x2="256" y2="41" stroke="#1B93C7" stroke-width="6" stroke-linecap="round"/>
</svg>
