<svg width="60" height="60" viewBox="0 0 60 60" fill="none" xmlns="http://www.w3.org/2000/svg">
<g clip-path="url(#clip0_214_2420)">
<path d="M0.0591125 17.0542L5.87192 40.3153C6.33498 42.1577 7.9803 43.4483 9.88177 43.4483H45.7438C47.8424 43.4483 49.6158 41.8719 49.8522 39.7931L54.0394 6.2069H56.8966C58.6108 6.2069 60 4.81774 60 3.10345C60 1.38916 58.6108 0 56.8966 0H51.3399C49.7833 0 48.4729 1.14286 48.266 2.6798L46.6502 14.4828H2.06897C0.729065 14.4828 -0.26601 15.7537 0.0591125 17.0542Z" fill="#1B93C7"/>
<path d="M47.5862 53.7931C47.5862 57.2118 44.798 60 41.3793 60C37.9606 60 35.1724 57.2118 35.1724 53.7931C35.1724 50.3744 37.9606 47.5862 41.3793 47.5862C44.798 47.5862 47.5862 50.3744 47.5862 53.7931Z" fill="#1B93C7"/>
<path d="M10.3448 53.7931C10.3448 50.3744 13.133 47.5862 16.5517 47.5862C19.9704 47.5862 22.7585 50.3744 22.7585 53.7931C22.7585 57.2118 19.9704 60 16.5517 60C13.133 60 10.3448 57.2118 10.3448 53.7931Z" fill="#1B93C7"/>
</g>
<defs>
<clipPath id="clip0_214_2420">
<rect width="60" height="60" fill="white" transform="matrix(-1 0 0 1 60 0)"/>
</clipPath>
</defs>
</svg>
