<svg width="47" height="60" viewBox="0 0 47 60" fill="none" xmlns="http://www.w3.org/2000/svg">
<path d="M12.1876 18.3216C13.3869 20.758 15.3641 22.7396 17.7628 23.974C18.7028 24.4613 19.7076 24.8186 20.7448 25.046C21.62 25.2409 22.56 25.3384 23.5 25.3384C24.44 25.3384 25.38 25.2409 26.2552 25.046C27.2924 24.8186 28.2972 24.4613 29.2372 23.974C31.6359 22.7396 33.6131 20.758 34.8124 18.3216C35.2662 17.3795 35.6228 16.3725 35.8497 15.333C36.0441 14.4884 36.1414 13.5788 36.1414 12.6692C36.1414 5.68489 30.469 0 23.5 0C16.531 0 10.8586 5.68489 10.8586 12.6692C10.8586 13.5788 10.9559 14.4559 11.1503 15.333C11.3448 16.3725 11.7014 17.3795 12.1876 18.3216ZM30.3069 27.3525H16.6931C7.48759 27.3525 0 34.824 0 44.0823V55.6795C6.58 58.3757 14.7159 60 23.5 60C32.2841 60 40.42 58.4082 47 55.6795V44.0823C47 34.824 39.5124 27.3525 30.3069 27.3525Z" fill="#1B93C7"/>
</svg>
