<svg width="1400" height="730" viewBox="0 0 1400 730" fill="none" xmlns="http://www.w3.org/2000/svg">
<rect y="0.90686" width="1400" height="729.093" fill="#EBEBEB"/>
<path d="M1398.5 364.773C1398.5 582.248 1401.87 607.653 1398.5 729.093C1045.13 729.093 728.002 571.14 728.002 353.665C728.002 136.189 1178.8 761.739 1398.5 0C1398.5 199.832 1398.5 147.298 1398.5 364.773Z" fill="#C6D2FD"/>
<path d="M0 563.924C0 563.924 122.705 566.306 202.613 532.659C282.522 499.013 344.029 566.612 414.27 571.338C490.068 576.439 498.852 550.168 556.128 559.743C613.404 569.318 704 563.924 704 563.924V587.175H0V563.924Z" fill="#88C2C4"/>
<path d="M0 654.389H704V639.264C704 639.264 658.375 632.939 574.036 646.827C489.698 660.714 372.031 623.724 313.691 623.64C255.351 623.555 90.598 638.289 0 600.287V654.389Z" fill="#9FD0F8"/>
<path d="M530.218 625.87C530.248 629.634 529.531 633.367 528.11 636.853C526.688 640.339 524.589 643.51 521.935 646.182C519.28 648.855 516.122 650.975 512.642 652.423C509.163 653.87 505.431 654.615 501.662 654.615C497.893 654.615 494.161 653.87 490.681 652.423C487.202 650.975 484.044 648.855 481.389 646.182C478.734 643.51 476.636 640.339 475.214 636.853C473.792 633.367 473.076 629.634 473.106 625.87C473.106 625.716 473.106 625.562 473.106 625.404L473.681 618.901C474.786 611.317 477.391 601.538 481.042 592.663L494.442 602.309L483.329 587.514C488.288 577.22 494.687 569.213 501.656 569.213C507.643 569.213 513.194 575.105 517.785 583.277L510.82 602.309L521.984 591.958C525.474 600.272 528.049 609.468 529.322 616.938L530.198 624.86C530.214 625.202 530.218 625.543 530.218 625.87Z" fill="#36B2D4"/>
<path d="M511.359 693.12C494.811 672.837 500.81 573.4 501.082 569.177L502.252 569.249C502.189 570.279 496.016 672.452 512.276 692.38L511.359 693.12Z" fill="#3D2772"/>
<path d="M500.404 640.208C482.272 638.602 476.156 625.71 476.096 625.579L476.637 625.336C476.695 625.462 482.683 638.051 500.463 639.625L500.404 640.208Z" fill="black"/>
<path d="M500.438 625.75L500.422 625.165C500.543 625.165 512.612 624.723 524.461 615.768L524.821 616.234C512.81 625.31 500.561 625.748 500.438 625.75Z" fill="black"/>
<path d="M500.397 612.093C490.558 610.994 483.056 605.661 482.98 605.611L483.323 605.137C483.397 605.19 490.782 610.435 500.463 611.515L500.397 612.093Z" fill="black"/>
<path d="M511.627 581.812L500.239 591.601L500.622 592.045L512.01 582.256L511.627 581.812Z" fill="black"/>
<path d="M67.6963 662.515C67.4529 644.616 60.9262 638.95 53.3665 632.39L52.7102 631.821C44.8512 624.979 49.8129 612.037 49.8652 611.907L50.406 612.122C50.3574 612.248 45.5381 624.815 53.0924 631.387L53.7487 631.958C61.413 638.609 68.0316 644.355 68.2787 662.517L67.6963 662.515Z" fill="black"/>
<path d="M91.6018 667.612C91.3097 666.863 84.5054 649.155 90.145 639.799C91.5008 637.55 93.3578 635.572 95.1536 633.658C100.133 628.351 104.433 623.767 96.6753 615.472C93.1433 611.691 91.4828 606.697 92.121 601.747C92.606 597.987 94.3729 594.725 96.733 593.238C104.826 588.137 102.502 579.914 98.6116 569.678L99.1525 569.469C103.133 579.952 105.506 588.394 97.0376 593.735C94.82 595.132 93.1559 598.236 92.6944 601.823C92.0777 606.598 93.6824 611.427 97.0935 615.071C105.228 623.762 100.537 628.755 95.5719 634.05C93.7978 635.942 91.966 637.898 90.6372 640.094C85.1454 649.205 92.0687 667.212 92.139 667.392L91.6018 667.612Z" fill="black"/>
<path d="M81.5045 666.805C78.0789 647.961 79.7899 639.383 81.0447 633.119C81.3674 631.511 81.6451 630.123 81.8038 628.74C82.2022 625.226 79.734 622.271 77.1161 619.145C74.7597 616.326 72.3221 613.409 71.7199 609.803C71.0762 605.946 74.2098 601.974 77.5272 597.77C80.7869 593.639 84.1566 589.368 83.7852 585.166C83.4246 581.068 81.3602 576.975 79.3644 573.016C77.2171 568.754 74.9958 564.348 74.7344 559.752C74.2314 550.929 83.4336 535.545 83.8267 534.894L84.3297 535.196C84.2341 535.355 74.8264 551.077 75.315 559.719C75.571 564.194 77.7634 568.542 79.8854 572.753C81.9047 576.761 83.9943 580.904 84.3657 585.116C84.757 589.541 81.3152 593.906 77.9851 598.124C74.7506 602.226 71.6946 606.099 72.295 609.7C72.8702 613.148 75.2555 616.002 77.5632 618.762C80.2677 621.989 82.8062 625.035 82.3789 628.8C82.2184 630.208 81.939 631.607 81.6126 633.227C80.3686 639.445 78.663 647.959 82.0742 666.692L81.5045 666.805Z" fill="black"/>
<path d="M71.0359 669.076L70.4626 668.95C70.5077 668.746 74.9159 648.589 70.4824 638.749C69.0455 635.563 67.3919 632.478 65.5333 629.516C63.6871 626.493 62.3529 624.307 61.4118 620.114C60.4076 615.629 61.7562 610.847 62.9461 606.628C63.7124 603.911 64.4371 601.345 64.4371 599.21C64.4371 597.075 62.6342 594.3 60.5356 591.097C57.6725 586.714 54.1081 581.261 54.1099 575.355H54.6958C54.6958 581.086 58.0583 586.234 61.0278 590.776C63.1715 594.057 65.0231 596.898 65.0231 599.21C65.0231 601.426 64.2875 604.03 63.5104 606.788C62.3385 610.939 61.0115 615.645 61.9851 619.986C62.9046 624.086 64.2172 626.236 66.0345 629.212C67.9063 632.194 69.5713 635.301 71.0179 638.51C75.5433 648.528 71.227 668.242 71.0359 669.076Z" fill="black"/>
<path d="M99.9482 629.864C99.9482 629.864 104.948 617.705 121.432 627.37C121.432 627.37 112.798 640.392 99.9482 629.864Z" fill="#3E3087"/>
<path d="M109.886 634.266C106.548 634.266 103.152 632.867 99.7622 630.091L99.5945 629.952L99.6774 629.752C100.31 628.401 101.209 627.19 102.321 626.194C103.433 625.197 104.735 624.434 106.148 623.951C110.376 622.527 115.569 623.591 121.581 627.116L121.848 627.273L121.668 627.532C121.515 627.763 117.842 633.204 111.651 634.133C111.067 634.222 110.477 634.266 109.886 634.266ZM100.31 629.779C104.107 632.84 107.893 634.101 111.568 633.56C116.755 632.783 120.2 628.551 121.006 627.467C115.271 624.162 110.34 623.168 106.347 624.509C102.481 625.8 100.712 628.962 100.31 629.779Z" fill="#383A00"/>
<path d="M62.5259 641.949C62.5259 641.949 54.566 631.483 71.263 622.19C71.263 622.19 78.125 636.225 62.5259 641.949Z" fill="#3E3087"/>
<path d="M62.4233 642.298L62.2935 642.118C61.4471 640.888 60.8579 639.5 60.5612 638.038C60.2644 636.575 60.2661 635.068 60.5662 633.606C61.4803 629.245 65.0321 625.314 71.1207 621.926L71.3911 621.776L71.5264 622.053C71.649 622.302 74.4832 628.222 72.1484 634.023C70.6772 637.68 67.4733 640.437 62.627 642.216L62.4233 642.298ZM71.1261 622.604C65.3693 625.867 62.0104 629.607 61.1432 633.726C60.303 637.711 62.1348 640.835 62.6378 641.594C67.2011 639.875 70.2102 637.257 71.6039 633.813C73.5601 628.949 71.6544 623.847 71.1261 622.604Z" fill="#383A00"/>
<path d="M79.9085 573.459C79.9085 573.459 71.9485 562.993 88.6456 553.7C88.6456 553.7 95.5076 567.735 79.9085 573.459Z" fill="#3E3087"/>
<path d="M79.8053 573.808L79.6754 573.628C78.8296 572.398 78.2407 571.01 77.9439 569.547C77.6471 568.085 77.6486 566.577 77.9482 565.115C78.8641 560.755 82.4141 556.824 88.5027 553.435L88.7731 553.284L88.9101 553.563C89.0309 553.812 91.867 559.732 89.5304 565.533C88.0592 569.192 84.8553 571.947 80.009 573.726L79.8053 573.808ZM88.5081 554.114C82.7513 557.375 79.3924 561.116 78.5252 565.234C77.685 569.221 79.5186 572.344 80.0198 573.104C84.5831 571.385 87.5922 568.767 88.9859 565.324C90.9439 560.459 89.0382 555.357 88.5081 554.114Z" fill="#383A00"/>
<path d="M29.7363 619.63C29.7363 619.63 40.0834 611.506 49.6643 628.026C49.6643 628.026 35.7275 635.111 29.7363 619.63Z" fill="#3E3087"/>
<path d="M42.5296 629.943C40.9223 629.954 39.3266 629.671 37.8221 629.106C34.1368 627.696 31.3224 624.543 29.4618 619.734L29.3843 619.533L29.5646 619.399C30.7803 618.537 32.1573 617.928 33.6137 617.607C35.0701 617.287 36.576 617.263 38.042 617.536C42.4232 618.377 46.4167 621.857 49.9108 627.88L50.0659 628.148L49.79 628.288C47.5167 629.354 45.0405 629.918 42.5296 629.943ZM30.0892 619.734C31.8922 624.261 34.5551 627.228 38.0222 628.557C42.9208 630.431 48.0051 628.443 49.2437 627.896C45.8776 622.196 42.0734 618.904 37.932 618.108C33.9313 617.341 30.8429 619.219 30.0928 619.734H30.0892Z" fill="#383A00"/>
<path d="M65.6693 580.319C65.6693 580.319 78.7442 578.816 78.2376 597.899C78.2376 597.899 62.6493 596.65 65.6693 580.319Z" fill="#3E3087"/>
<path d="M78.5219 598.216L78.2136 598.191C77.9377 598.168 71.393 597.586 67.5852 592.622C65.1837 589.493 64.4427 585.335 65.3802 580.267L65.4199 580.054L65.6362 580.029C67.1269 579.93 68.6224 580.132 70.0333 580.623C71.4442 581.113 72.7418 581.883 73.8486 582.885C77.139 585.893 78.7166 590.947 78.5363 597.906L78.5219 598.216ZM65.9175 580.596C65.0719 585.395 65.7895 589.32 68.0504 592.265C71.2434 596.428 76.6107 597.392 77.9521 597.57C78.0765 590.96 76.5657 586.167 73.4592 583.322C70.4555 580.571 66.8316 580.548 65.9175 580.596Z" fill="#383A00"/>
<path d="M72.5811 640.239C72.5811 640.239 85.0827 636.133 88.447 654.925C88.4416 654.925 72.92 656.832 72.5811 640.239Z" fill="#3E3087"/>
<path d="M86.9613 655.289C84.6986 655.289 80.3535 654.855 76.9423 651.904C73.9584 649.322 72.3935 645.399 72.2871 640.244V640.028L72.4926 639.961C73.9327 639.563 75.4386 639.458 76.92 639.655C78.4014 639.851 79.828 640.343 81.1143 641.103C84.9456 643.388 87.5094 648.02 88.7336 654.873L88.7877 655.177L88.4812 655.215C87.9764 655.269 87.4689 655.294 86.9613 655.289ZM72.8803 640.46C73.0209 645.321 74.5155 649.027 77.3227 651.458C81.2892 654.889 86.7449 654.753 88.0953 654.661C86.882 648.161 84.4354 643.773 80.8187 641.612C77.3191 639.52 73.7619 640.233 72.8803 640.46Z" fill="#383A00"/>
<path d="M102.937 586.122C102.937 586.122 99.6704 575.319 116.515 572.312C116.515 572.312 117.269 588.884 102.937 586.122Z" fill="#3E3087"/>
<path d="M105.984 586.725C104.943 586.719 103.904 586.614 102.883 586.41L102.703 586.376L102.652 586.207C102.35 584.974 102.297 583.693 102.497 582.439C102.696 581.185 103.145 579.984 103.815 578.906C105.93 575.461 110.183 573.144 116.457 572.024L116.787 571.965L116.802 572.299C116.818 572.633 117.119 580.486 112.475 584.491C110.764 585.978 108.584 586.725 105.984 586.725ZM103.175 585.87C106.911 586.552 109.913 585.938 112.103 584.048C116.001 580.683 116.23 574.21 116.226 572.663C110.311 573.776 106.31 575.978 104.327 579.213C103.109 581.205 102.697 583.586 103.175 585.87Z" fill="#383A00"/>
<path d="M98.8879 571.338C84.8357 562.802 102.674 549.242 102.674 549.242C102.674 549.242 113.191 562.299 98.8879 571.338Z" fill="#3E3087"/>
<path d="M98.8898 571.684L98.7347 571.588C95.2298 569.458 93.371 566.824 93.2123 563.756C92.8319 556.446 102.11 549.309 102.505 549.01L102.732 548.83L102.912 549.051C103.105 549.291 107.623 554.993 106.527 561.574C105.876 565.486 103.358 568.852 99.0448 571.579L98.8898 571.684ZM102.629 549.656C101.187 550.821 93.4647 557.346 93.7947 563.724C93.9407 566.541 95.6517 568.987 98.8808 570.991C102.952 568.376 105.328 565.18 105.945 561.487C106.882 555.895 103.455 550.79 102.629 549.656Z" fill="#383A00"/>
<path d="M83.3268 532.42C83.3268 532.42 67.7385 528.151 68.9952 533.68C70.2518 539.21 77.2887 541.963 81.3147 536.944C81.3147 536.944 75.5327 547.748 86.3431 545.983C97.1536 544.219 91.624 535.689 88.3552 535.18C88.3552 535.18 97.1554 533.673 94.8927 528.158C92.63 522.643 85.3533 521.12 83.3268 532.42Z" fill="white"/>
<path d="M84.1831 546.464C82.2774 546.464 80.9378 545.924 80.1787 544.874C78.8626 543.036 79.6703 540.097 80.3716 538.316C79.5795 538.983 78.6415 539.455 77.6334 539.693C76.6252 539.931 75.5752 539.929 74.568 539.687C73.1329 539.342 71.8233 538.603 70.7876 537.552C69.752 536.502 69.0317 535.183 68.7084 533.745C68.5065 532.857 68.6886 532.137 69.2493 531.602C71.7175 529.245 81.219 531.572 83.0977 532.06C84.0659 527.018 86.2637 523.975 89.1538 523.669C91.5715 523.414 93.9893 525.173 95.1666 528.044C95.7183 529.395 95.6895 530.635 95.0801 531.736C93.9244 533.815 90.991 534.834 89.4242 535.247C91.1929 536.158 92.9923 538.578 93.0031 540.94C93.0031 542.528 92.1611 545.335 86.3935 546.273C85.6629 546.395 84.9238 546.459 84.1831 546.464ZM81.0856 536.755L81.5742 537.076C81.5472 537.126 78.9185 542.107 80.6565 544.534C81.5363 545.765 83.4349 546.154 86.2961 545.69C91.366 544.865 92.4261 542.649 92.4153 540.936C92.4027 538.313 89.8912 535.715 88.31 535.47L86.5305 535.198L88.3064 534.892C88.3533 534.892 93.1257 534.037 94.5644 531.446C95.0837 530.509 95.1053 529.438 94.6203 528.262C93.5385 525.632 91.375 524.022 89.2115 524.247C86.5395 524.53 84.4986 527.528 83.6115 532.47L83.5556 532.787L83.2455 532.702C83.1338 532.672 72.0961 529.685 69.6495 532.02C69.2439 532.407 69.1231 532.92 69.2781 533.61C69.5754 534.942 70.2407 536.164 71.1983 537.137C72.156 538.11 73.3678 538.796 74.696 539.116C77.1137 539.669 79.4413 538.81 81.0856 536.755Z" fill="#3E3087"/>
<path d="M52.1504 577.615C46.6189 582.889 43.0978 585.651 40.0814 579.374C37.0651 573.097 50.3889 572.845 50.3889 572.845C50.3889 572.845 40.8333 563.805 49.8877 560.29C58.9421 556.775 56.4324 571.338 56.4324 571.338C56.4324 571.338 65.5913 560.29 68.9322 566.567C72.273 572.843 58.1938 575.607 58.1938 575.607C58.1938 575.607 66.2386 578.022 58.695 585.206C51.1515 592.39 52.1504 577.615 52.1504 577.615Z" fill="white"/>
<path d="M55.17 587.467C54.8525 587.469 54.5385 587.401 54.2505 587.267C51.8165 586.127 51.7661 580.396 51.831 578.329C48.5712 581.408 45.8668 583.652 43.5374 583.225C42.1239 582.967 40.9105 581.749 39.8288 579.5C39.2031 578.198 39.1977 577.035 39.8107 576.041C41.5271 573.259 47.6608 572.692 49.7269 572.579C48.4504 571.243 45.133 567.379 45.7983 563.995C46.1409 562.253 47.4841 560.915 49.7954 560.018C51.9446 559.183 53.6574 559.271 54.8906 560.276C57.5102 562.416 57.1406 568.093 56.8738 570.403C58.5379 568.558 63.0038 564.013 66.4132 564.365C67.5995 564.485 68.5389 565.178 69.2041 566.43C69.8694 567.681 69.9253 568.886 69.3844 570.031C67.8123 573.329 61.5831 575.117 59.1906 575.693C60.193 576.172 61.7147 577.161 62.1294 578.855C62.5819 580.747 61.4984 582.957 58.9111 585.422C57.4562 586.781 56.2085 587.467 55.17 587.467ZM52.4999 576.882L52.4494 577.636C52.2997 579.829 52.3791 585.738 54.4993 586.736C55.4603 587.186 56.8053 586.599 58.4911 584.993C60.916 582.683 61.9437 580.672 61.5434 578.99C61.0188 576.79 58.1359 575.897 58.107 575.886L56.9784 575.546L58.1341 575.319C58.2242 575.301 67.0514 573.529 68.84 569.773C69.3051 568.797 69.2492 567.793 68.6705 566.712C68.0917 565.632 67.3327 565.054 66.3393 564.953C62.4756 564.584 56.7151 571.462 56.6575 571.532L55.9561 572.379L56.1364 571.298C56.1508 571.217 57.4958 563.18 54.5137 560.738C53.4572 559.876 51.9391 559.82 50.0064 560.573C47.8951 561.392 46.6727 562.584 46.3717 564.116C45.6306 567.885 50.5545 572.595 50.6032 572.642L51.1242 573.133L50.403 573.147C50.3219 573.147 42.169 573.338 40.3065 576.358C39.7981 577.181 39.8125 578.13 40.3534 579.255C41.3486 581.324 42.4232 582.436 43.6384 582.658C45.829 583.063 48.5821 580.629 51.9554 577.413L52.4999 576.882Z" fill="#3E3087"/>
<path d="M56.2826 574.578C56.5866 573.292 55.7889 572.003 54.501 571.699C53.213 571.396 51.9225 572.192 51.6185 573.479C51.3145 574.765 52.1122 576.054 53.4001 576.357C54.6881 576.661 55.9786 575.864 56.2826 574.578Z" fill="white"/>
<path d="M53.949 576.73C53.4169 576.73 52.8968 576.573 52.4544 576.278C52.012 575.982 51.6672 575.563 51.4636 575.072C51.2601 574.581 51.2069 574.04 51.3109 573.519C51.4148 572.998 51.6712 572.519 52.0476 572.144C52.4239 571.768 52.9034 571.513 53.4253 571.409C53.9473 571.306 54.4882 571.359 54.9797 571.563C55.4712 571.766 55.8912 572.111 56.1865 572.553C56.4819 572.995 56.6394 573.514 56.639 574.046C56.638 574.758 56.3543 575.44 55.85 575.944C55.3457 576.447 54.662 576.73 53.949 576.73ZM53.949 571.945C53.5328 571.944 53.1258 572.067 52.7796 572.298C52.4333 572.529 52.1634 572.857 52.0039 573.24C51.8443 573.624 51.8024 574.047 51.8834 574.455C51.9644 574.862 52.1646 575.237 52.4588 575.531C52.753 575.825 53.1279 576.025 53.5361 576.107C53.9443 576.188 54.3674 576.146 54.752 575.987C55.1365 575.828 55.4653 575.559 55.6965 575.213C55.9278 574.868 56.0512 574.461 56.0512 574.046C56.0508 573.489 55.8292 572.955 55.4351 572.561C55.041 572.167 54.5066 571.946 53.949 571.945Z" fill="black"/>
<path d="M84.0809 537.445C85.4043 537.445 86.4771 536.374 86.4771 535.052C86.4771 533.731 85.4043 532.659 84.0809 532.659C82.7576 532.659 81.6848 533.731 81.6848 535.052C81.6848 536.374 82.7576 537.445 84.0809 537.445Z" fill="white"/>
<path d="M84.0809 537.738C83.5488 537.738 83.0288 537.581 82.5864 537.286C82.144 536.991 81.7992 536.571 81.5956 536.08C81.392 535.589 81.3388 535.049 81.4426 534.528C81.5464 534.007 81.8025 533.528 82.1788 533.153C82.555 532.777 83.0343 532.521 83.5561 532.417C84.0779 532.314 84.6188 532.367 85.1103 532.57C85.6018 532.774 86.0219 533.118 86.3175 533.56C86.6131 534.001 86.7709 534.521 86.7709 535.052C86.7699 535.764 86.4862 536.447 85.9819 536.951C85.4777 537.454 84.794 537.738 84.0809 537.738ZM84.0809 532.953C83.665 532.952 83.2584 533.075 82.9124 533.306C82.5665 533.536 82.2968 533.864 82.1374 534.247C81.978 534.631 81.9361 535.053 82.017 535.461C82.0979 535.868 82.298 536.242 82.5919 536.536C82.8859 536.83 83.2604 537.03 83.6683 537.111C84.0761 537.192 84.4989 537.151 84.8831 536.992C85.2674 536.833 85.5958 536.564 85.8269 536.219C86.058 535.873 86.1813 535.467 86.1813 535.052C86.1808 534.496 85.9594 533.962 85.5657 533.569C85.1719 533.175 84.638 532.954 84.0809 532.953Z" fill="black"/>
<path d="M92.8695 600.099C92.8695 600.099 77.2813 595.83 78.5379 601.36C79.7946 606.889 86.8315 609.642 90.8574 604.624C90.8574 604.624 85.0754 615.427 95.8859 613.665C106.696 611.902 101.167 603.369 97.8979 602.862C97.8979 602.862 106.698 601.354 104.435 595.83C102.173 590.306 94.896 588.801 92.8695 600.099Z" fill="white"/>
<path d="M93.7263 614.144C91.8206 614.144 90.481 613.612 89.7201 612.554C88.4058 610.715 89.2135 607.777 89.9149 605.996C89.123 606.663 88.185 607.135 87.1768 607.373C86.1685 607.611 85.1184 607.609 84.1112 607.366C82.6761 607.022 81.3665 606.282 80.3308 605.232C79.2952 604.182 78.5749 602.863 78.2516 601.425C78.0497 600.539 78.2318 599.817 78.7925 599.282C81.2607 596.925 90.7623 599.251 92.6409 599.741C93.6091 594.709 95.8069 591.657 98.697 591.351C101.111 591.099 103.531 592.852 104.708 595.726C105.262 597.075 105.233 598.317 104.621 599.415C103.468 601.495 100.534 602.516 98.9674 602.926C100.736 603.837 102.535 606.257 102.546 608.62C102.546 610.209 101.703 613.015 95.9349 613.953C95.205 614.076 94.4664 614.139 93.7263 614.144ZM90.6288 604.435L91.1174 604.757C91.0904 604.808 88.4617 609.786 90.1979 612.213C91.0814 613.445 92.9781 613.834 95.8393 613.369C100.909 612.545 101.969 610.33 101.957 608.616C101.946 605.993 99.4326 603.394 97.8532 603.151L96.0737 602.878L97.8478 602.572C97.8965 602.572 102.669 601.716 104.108 599.125C104.627 598.189 104.649 597.118 104.164 595.942C103.082 593.311 100.918 591.702 98.7547 591.927C96.0827 592.209 94.0436 595.207 93.1656 600.152L93.1079 600.467L92.7996 600.382C92.6878 600.351 81.6484 597.364 79.2036 599.701C78.7979 600.089 78.6771 600.602 78.8322 601.29C79.1289 602.622 79.7939 603.844 80.7517 604.817C81.7095 605.791 82.9215 606.476 84.25 606.796C86.6569 607.35 88.9845 606.489 90.6288 604.435Z" fill="#3E3087"/>
<path d="M94.5408 604.942C95.7634 604.436 96.344 603.037 95.8376 601.816C95.3311 600.595 93.9295 600.015 92.7069 600.521C91.4843 601.026 90.9037 602.426 91.4101 603.647C91.9165 604.868 93.3182 605.448 94.5408 604.942Z" fill="white"/>
<path d="M93.6236 605.418C93.0916 605.418 92.5715 605.261 92.1291 604.966C91.6867 604.67 91.342 604.251 91.1384 603.76C90.9348 603.269 90.8815 602.729 90.9853 602.208C91.0891 601.687 91.3453 601.208 91.7215 600.832C92.0977 600.457 92.577 600.201 93.0988 600.097C93.6206 599.994 94.1615 600.047 94.653 600.25C95.1445 600.453 95.5647 600.798 95.8603 601.239C96.1558 601.681 96.3136 602.201 96.3136 602.732C96.3126 603.444 96.0289 604.127 95.5247 604.63C95.0204 605.134 94.3367 605.417 93.6236 605.418ZM93.6236 600.633C93.2078 600.634 92.8018 600.759 92.4569 600.991C92.1121 601.223 91.8438 601.552 91.686 601.936C91.5282 602.32 91.4879 602.743 91.5702 603.15C91.6526 603.557 91.8539 603.93 92.1487 604.223C92.4434 604.516 92.8185 604.715 93.2265 604.795C93.6346 604.876 94.0572 604.833 94.4411 604.674C94.825 604.514 95.153 604.244 95.3835 603.899C95.6141 603.553 95.737 603.147 95.7367 602.732C95.7364 602.455 95.6815 602.182 95.5751 601.926C95.4687 601.671 95.3129 601.439 95.1166 601.244C94.9203 601.049 94.6873 600.895 94.4311 600.79C94.1749 600.685 93.9005 600.631 93.6236 600.633Z" fill="#3E3087"/>
<path d="M49.4447 609.329C49.4447 609.329 38.0483 606.209 38.9678 610.246C39.8873 614.282 45.0329 616.304 47.9735 612.633C47.9735 612.633 43.7456 620.525 51.6497 619.241C59.5539 617.957 55.5099 611.715 53.121 611.347C53.121 611.347 59.5539 610.246 57.8988 606.209C56.2437 602.172 50.925 601.068 49.4447 609.329Z" fill="white"/>
<path d="M50.0696 619.673C48.6507 619.673 47.6465 619.273 47.0767 618.477C46.159 617.195 46.6224 615.204 47.1092 613.875C46.5325 614.308 45.8672 614.607 45.1609 614.753C44.4546 614.899 43.7248 614.887 43.0237 614.718C41.9595 614.462 40.9885 613.914 40.2207 613.134C39.453 612.355 38.9194 611.377 38.6804 610.31C38.5272 609.633 38.666 609.082 39.0969 608.67C40.8999 606.94 47.5365 608.526 49.2132 608.963C49.9344 605.298 51.5571 603.076 53.6936 602.851C55.4965 602.656 57.2995 603.963 58.1703 606.092C58.5832 607.102 58.5615 608.033 58.1018 608.857C57.2886 610.323 55.2964 611.079 54.1046 611.412C55.3667 612.154 56.5873 613.87 56.5945 615.553C56.5945 616.742 55.9707 618.836 51.6959 619.531C51.1584 619.621 50.6146 619.669 50.0696 619.673ZM47.7438 612.449L48.2324 612.77C48.2126 612.806 46.3141 616.405 47.5545 618.139C48.1802 619.012 49.5378 619.284 51.6021 618.951C54.4869 618.481 56.0158 617.307 56.0085 615.555C56.0085 613.674 54.2056 611.81 53.0752 611.637L51.2974 611.364L53.0697 611.059C53.104 611.059 56.5566 610.44 57.5897 608.578C57.9629 607.907 57.9738 607.166 57.6258 606.318C56.8649 604.458 55.282 603.274 53.7549 603.438C51.8401 603.641 50.3743 605.809 49.7325 609.379L49.6748 609.696L49.3665 609.612C47.1164 608.994 40.9575 607.701 39.5026 609.093C39.2285 609.356 39.142 609.712 39.252 610.173C39.467 611.132 39.9464 612.011 40.636 612.711C41.3255 613.411 42.1977 613.904 43.1535 614.135C44.8934 614.543 46.5611 613.935 47.7438 612.449Z" fill="#3E3087"/>
<path d="M49.9954 613.004C50.9632 613.004 51.7478 612.22 51.7478 611.254C51.7478 610.287 50.9632 609.504 49.9954 609.504C49.0275 609.504 48.2429 610.287 48.2429 611.254C48.2429 612.22 49.0275 613.004 49.9954 613.004Z" fill="white"/>
<path d="M49.9936 613.215C49.6045 613.215 49.2241 613.099 48.9006 612.883C48.5771 612.668 48.325 612.361 48.1762 612.002C48.0273 611.643 47.9885 611.247 48.0645 610.866C48.1406 610.485 48.3281 610.135 48.6034 609.861C48.8787 609.586 49.2293 609.399 49.611 609.323C49.9927 609.248 50.3882 609.287 50.7476 609.436C51.107 609.585 51.4141 609.837 51.63 610.16C51.846 610.483 51.961 610.863 51.9607 611.252C51.9602 611.773 51.7527 612.272 51.3839 612.64C51.0151 613.008 50.515 613.215 49.9936 613.215ZM49.9936 609.716C49.6895 609.716 49.3921 609.806 49.1392 609.975C48.8863 610.144 48.6892 610.384 48.5728 610.664C48.4564 610.945 48.4259 611.254 48.4853 611.552C48.5446 611.85 48.6911 612.123 48.9062 612.338C49.1212 612.553 49.3953 612.699 49.6936 612.758C49.9919 612.818 50.3012 612.787 50.5822 612.671C50.8632 612.555 51.1034 612.358 51.2724 612.105C51.4414 611.853 51.5316 611.556 51.5316 611.252C51.5306 610.845 51.3682 610.455 51.0799 610.168C50.7917 609.88 50.4011 609.719 49.9936 609.718V609.716Z" fill="black"/>
<path d="M78.466 706.426C91.7969 706.426 102.604 695.634 102.604 682.32C102.604 669.007 91.7969 658.215 78.466 658.215C65.135 658.215 54.3281 669.007 54.3281 682.32C54.3281 695.634 65.135 706.426 78.466 706.426Z" fill="#3E3087"/>
<path d="M78.466 706.717C64.9944 706.717 54.0361 695.772 54.0361 682.32C54.0361 668.869 64.9944 657.923 78.466 657.923C91.9377 657.923 102.896 668.867 102.896 682.32C102.896 695.774 91.9377 706.717 78.466 706.717ZM78.466 658.509C65.319 658.509 54.6221 669.191 54.6221 682.32C54.6221 695.45 65.319 706.132 78.466 706.132C91.6131 706.132 102.31 695.45 102.31 682.32C102.31 669.191 91.6131 658.509 78.466 658.509Z" fill="#383A00"/>
<path d="M94.5424 658.215H62.3887V664.798H94.5424V658.215Z" fill="#3E3087"/>
<path d="M94.8351 665.091H62.0955V657.923H94.8351V665.091ZM62.6796 664.504H94.2492V658.509H62.6814L62.6796 664.504Z" fill="#383A00"/>
<path d="M585.925 634.731C577.893 652.511 556.95 660.419 539.146 652.398C521.342 644.376 513.429 623.461 521.461 605.683C521.54 605.503 521.619 605.334 521.704 605.157L543.408 621.27L525.671 598.11C530.784 590.112 538.711 580.398 547.36 572.24L557.565 589.941L552.567 567.588C563.415 558.493 574.714 552.706 582.586 556.255C589.345 559.3 592.607 568.772 593.618 580.332L576.052 598.27L593.932 592.265C593.629 603.429 591.848 615.114 589.475 624.194L565.256 631.114L586.426 633.573C586.262 633.976 586.093 634.362 585.925 634.731Z" fill="#36B2D4"/>
<path d="M553.684 655.835C547.727 655.829 541.866 654.333 536.637 651.485C531.407 648.636 526.975 644.524 523.745 639.526C520.515 634.527 518.59 628.8 518.146 622.867C517.701 616.935 518.752 610.985 521.201 605.562C521.289 605.366 521.365 605.202 521.446 605.031L521.599 604.711L541.911 619.79L525.324 598.124L525.434 597.944C530.902 589.394 539.027 579.703 547.17 572.017L547.441 571.761L556.872 588.121L552.242 567.481L552.379 567.368C561.242 559.937 573.695 551.932 582.71 555.992C588.889 558.776 592.763 567.186 593.912 580.31L593.924 580.445L593.829 580.54L577.115 597.609L594.243 591.859L594.233 592.278C593.946 602.84 592.318 614.502 589.765 624.273L589.723 624.435L589.563 624.48L566.754 630.997L586.853 633.337L586.705 633.697C586.538 634.102 586.368 634.49 586.201 634.864C583.369 641.108 578.796 646.406 573.03 650.125C567.264 653.843 560.548 655.826 553.684 655.835ZM521.825 605.6L521.749 605.768C519.853 609.959 518.802 614.482 518.657 619.078C518.511 623.675 519.274 628.255 520.901 632.558C522.528 636.86 524.987 640.801 528.139 644.154C531.291 647.507 535.073 650.207 539.27 652.1C543.467 653.994 547.996 655.043 552.599 655.188C557.202 655.334 561.788 654.572 566.096 652.948C570.404 651.323 574.35 648.866 577.708 645.719C581.065 642.571 583.769 638.794 585.665 634.603C585.785 634.347 585.901 634.084 586.013 633.814L563.77 631.229L589.24 623.953C591.723 614.385 593.319 603.02 593.634 592.671L574.997 598.931L593.32 580.216C592.52 571.241 589.985 559.899 582.472 556.514C573.785 552.6 561.623 560.402 552.904 567.69L558.284 591.745L547.291 572.703C539.326 580.265 531.407 589.714 526.027 598.09L544.911 622.757L521.825 605.6Z" fill="#383A00"/>
<path d="M531.81 696.593C531.629 695.952 527.416 680.594 538.599 652.182C549.72 623.937 581.735 556.68 582.05 556.003L583.109 556.507C582.788 557.182 550.789 624.403 539.685 652.612C528.645 680.655 532.886 696.114 532.931 696.267L531.81 696.593Z" fill="#3D2772"/>
<path d="M554.782 615.847C544.606 600.591 540.12 585.081 540.077 584.926L540.537 584.795C540.58 584.95 545.044 600.391 555.18 615.584L554.782 615.847Z" fill="black"/>
<path d="M573.562 608.229C564.833 608.229 560.118 606.171 560.049 606.138L560.246 605.705C560.345 605.748 570.178 610.026 587.872 606.084L587.977 606.551C582.375 607.8 577.55 608.229 573.562 608.229Z" fill="black"/>
<path d="M570.433 581.115L563.852 564.008L564.299 563.837L570.878 580.942L570.433 581.115Z" fill="black"/>
<path d="M559.611 641.123C555.217 641.123 550.198 640.316 545.188 637.819L545.402 637.392C559.301 644.317 573.276 638.049 573.416 637.984L573.616 638.418C573.517 638.465 567.596 641.123 559.611 641.123Z" fill="black"/>
<path d="M88.1804 218.294H140.482C142.786 218.294 144.995 219.208 146.624 220.835C148.254 222.462 149.169 224.668 149.169 226.969V254.936L161.238 269.521L141.818 261.238C141.818 261.238 84.8865 258.085 83.8822 256.904C83.2115 256.116 80.9777 239.229 79.5552 228.051C79.4011 226.829 79.5092 225.589 79.8723 224.412C80.2354 223.236 80.8452 222.15 81.6612 221.227C82.4771 220.304 83.4805 219.565 84.6045 219.059C85.7286 218.554 86.9476 218.293 88.1804 218.294Z" fill="white"/>
<path d="M162.233 270.258L141.749 261.531C132.104 260.991 84.6916 258.31 83.6585 257.097C83.4512 256.853 82.8201 256.112 79.2719 228.09C79.112 226.828 79.223 225.546 79.5976 224.329C79.9721 223.113 80.6017 221.99 81.4444 221.036C82.2871 220.082 83.3236 219.317 84.485 218.794C85.6464 218.27 86.9061 218 88.1803 218H140.482C142.863 218.002 145.146 218.948 146.83 220.629C148.514 222.311 149.461 224.59 149.464 226.968V254.831L162.233 270.258ZM88.1803 218.585C86.9894 218.585 85.8121 218.838 84.7267 219.328C83.6413 219.817 82.6726 220.532 81.885 221.424C81.0973 222.316 80.5087 223.365 80.1583 224.502C79.8079 225.638 79.7036 226.836 79.8525 228.016C83.0058 252.918 83.8803 256.387 84.1092 256.722C85.456 257.545 119.373 259.705 141.834 260.948L141.932 260.971L160.242 268.775L148.884 255.044V226.968C148.881 224.745 147.995 222.613 146.42 221.041C144.844 219.469 142.709 218.586 140.482 218.585H88.1803Z" fill="#4186FF"/>
<path d="M88.4128 229.844C88.4128 232.062 90.6052 233.861 93.3078 233.861H126.267C128.972 233.861 131.162 232.06 131.162 229.844C131.162 227.624 128.97 225.825 126.267 225.825H93.3078C90.6052 225.825 88.4128 227.624 88.4128 229.844Z" fill="#A1E4F5"/>
<path d="M93.0771 244.657C93.0771 246.877 95.2677 248.675 97.9703 248.675H117.372C120.076 248.675 122.265 246.875 122.265 244.657C122.265 242.438 120.074 240.64 117.372 240.64H97.9703C95.2677 240.64 93.0771 242.438 93.0771 244.657Z" fill="#A1E4F5"/>
<path d="M302.442 502.544H563.06C563.06 502.544 530.567 479.443 480.617 490.993C480.62 490.993 402.282 423.454 302.442 502.544Z" fill="#E4F7FE"/>
<path d="M476.363 700.201H574.036C574.036 700.201 535.439 677.419 476.363 700.201Z" fill="#9FD0F8"/>
<path d="M62.9937 730H160.666C160.666 730 122.069 707.216 62.9937 730Z" fill="#9FD0F8"/>
<path d="M35.0088 714.867H235.59C235.59 714.867 196.176 695.781 156.545 707.836C156.545 707.836 82.8374 688.754 35.0088 714.867Z" fill="#9FD0F8"/>
<path d="M128.869 549.318C95.6499 549.393 120.267 504.209 120.267 504.209C120.267 504.209 114.456 487.644 122.157 479.101C122.157 479.101 113.566 456.04 126.949 454.101C137.302 452.599 132.993 480.606 132.993 480.606C132.993 480.606 141.764 492.923 137.302 505.716C137.302 505.723 167.607 549.229 128.869 549.318Z" fill="#36B2D4"/>
<path d="M127.227 462.527L126.641 462.551L130.918 567.094L131.504 567.07L127.227 462.527Z" fill="black"/>
<path d="M130.025 538.142C125.014 537.962 121.304 536.494 118.992 533.756C115.873 530.061 116.468 525.455 116.492 525.261L117.072 525.34C117.072 525.385 116.495 529.892 119.445 533.383C121.645 535.987 125.214 537.391 130.046 537.557L130.025 538.142Z" fill="black"/>
<path d="M130.1 528.099L129.97 527.526C136.434 526.086 138.289 518.734 138.307 518.66L138.877 518.799C138.859 518.876 136.915 526.57 130.1 528.099Z" fill="black"/>
<path d="M120.479 492.459L120.054 492.863L128.656 501.883L129.08 501.48L120.479 492.459Z" fill="black"/>
<path d="M130.983 464.385L127.047 470.914L127.549 471.216L131.485 464.687L130.983 464.385Z" fill="black"/>
<path d="M272.402 701.109C316.363 701.109 352.001 697.246 352.001 692.481C352.001 687.715 316.363 683.853 272.402 683.853C228.441 683.853 192.804 687.715 192.804 692.481C192.804 697.246 228.441 701.109 272.402 701.109Z" fill="#9FD0F8"/>
<path d="M189.51 325.297C180.766 337.434 172.05 398.67 167.694 400.694C163.338 402.717 131.167 403.868 131.167 403.868C131.167 403.868 162.33 428.175 173.058 422.804C183.785 417.433 208.594 359.53 208.594 359.53L189.51 325.297Z" fill="#36B2D4"/>
<path d="M297.353 647.23L303.122 683.269C303.122 683.269 341.344 696.734 346.367 694.724C351.39 692.715 325.206 673.224 325.206 673.224L320.219 637.068L297.353 647.23Z" fill="#3E3087"/>
<path d="M344.903 695.212C336.249 695.212 304.481 684.049 303.031 683.545L302.866 683.487L297.028 647.064L320.466 636.65L325.491 673.073C328.213 675.102 347.847 689.897 347.306 694.02C347.277 694.244 347.185 694.456 347.041 694.63C346.897 694.804 346.706 694.934 346.491 695.005C345.979 695.169 345.441 695.239 344.903 695.212ZM303.39 683.05C306.125 684.007 341.562 696.332 346.266 694.452C346.384 694.42 346.49 694.354 346.57 694.261C346.65 694.169 346.7 694.055 346.715 693.934C347.141 690.693 331.21 678.055 325.038 673.46L324.941 673.386L324.923 673.266L319.988 637.495L297.68 647.406L303.39 683.05Z" fill="#383A00"/>
<path d="M220.042 648.064L224.26 688.541C224.26 688.541 186.038 702.005 181.015 699.998C175.992 697.99 202.174 678.498 202.174 678.498L197.171 637.901L220.042 648.064Z" fill="#3E3087"/>
<path d="M182.487 700.486C181.952 700.509 181.416 700.436 180.906 700.27C180.691 700.199 180.501 700.068 180.357 699.894C180.213 699.719 180.122 699.507 180.093 699.283C179.552 695.18 199.004 680.5 201.864 678.365L196.815 637.423L220.315 647.866L220.333 648.033L224.575 688.741L224.357 688.818C222.908 689.328 191.14 700.486 182.487 700.486ZM197.526 638.379L202.487 678.631L202.352 678.734C196.179 683.327 180.25 695.961 180.675 699.208C180.691 699.329 180.741 699.442 180.821 699.535C180.901 699.627 181.007 699.694 181.124 699.726C185.799 701.593 220.832 689.431 223.946 688.341L219.769 648.262L197.526 638.379Z" fill="#383A00"/>
<path d="M345.624 669.052H290.306L254.871 545.04L232.091 465.32L233.786 537.341L236.966 672.718H190.27C190.27 672.718 177.217 577.971 175.913 501.08C175.116 453.928 178.735 413.492 192.5 405.728C192.5 405.728 224.685 377.94 255.861 405.728C272.288 420.37 296.317 492.661 315.378 557.798C332.499 616.311 345.624 669.052 345.624 669.052Z" fill="#3E3087"/>
<path d="M237.268 673.014H190.012L189.976 672.76C189.846 671.813 176.907 577.116 175.619 501.087C174.66 444.448 180.291 412.278 192.353 405.479C192.387 405.443 200.536 398.484 212.405 395.036C223.372 391.846 239.848 391.075 256.052 405.519C272.897 420.532 297.762 496.577 315.656 557.726C332.586 615.575 345.765 668.458 345.902 668.998L345.992 669.358H290.094L290.033 669.146L232.446 467.615L234.089 537.348L237.268 673.014ZM190.526 672.428H236.667L233.496 537.35L231.745 463.037L290.521 668.761H345.235C344.04 663.979 331.277 613.198 315.086 557.883C297.216 496.807 272.398 420.863 255.656 405.949C239.653 391.684 223.383 392.445 212.565 395.591C200.819 399.012 192.765 405.883 192.686 405.953C180.787 412.674 175.248 444.664 176.202 501.076C177.46 575.135 189.776 666.926 190.524 672.428H190.526Z" fill="#383A00"/>
<path d="M255.793 404.102C255.811 404.642 255.835 405.191 255.858 405.722H192.497C192.497 405.722 185.123 353.803 189.147 326.86C189.892 321.892 194.111 317.814 200.145 314.796C216.473 306.622 246.075 306.229 255.856 316.969C262.78 324.591 254.702 371.075 255.793 404.102Z" fill="#36B2D4"/>
<path d="M199.79 269.221C197.024 275.597 193.628 289.301 200.151 303.611C204.269 312.65 197.987 321.174 197.987 321.174C197.987 321.174 207.543 313.655 203.975 302.18C198.782 285.476 202.859 279.398 208.302 273.982C213.745 268.566 204.927 257.377 199.79 269.221Z" fill="#423877"/>
<path d="M196.464 322.751L197.746 321.008C197.807 320.925 203.876 312.515 199.882 303.741C192.569 287.687 197.757 273.172 199.522 269.104C201.579 264.362 204.029 263.703 205.332 263.692C207.164 263.712 208.908 265.102 209.777 267.232C210.574 269.189 210.657 272.048 208.497 274.198C203.299 279.378 199.06 285.408 204.249 302.106C207.835 313.629 198.26 321.339 198.164 321.417L196.464 322.751ZM205.298 264.277C203.34 264.277 201.485 266.078 200.07 269.336C198.33 273.348 193.219 287.664 200.43 303.498C203.411 310.041 200.996 316.37 199.385 319.438C201.889 316.712 206.259 310.496 203.712 302.275C198.425 285.269 202.772 279.093 208.104 273.784C210.06 271.836 209.98 269.236 209.254 267.451C208.477 265.541 206.943 264.295 205.347 264.279L205.298 264.277Z" fill="#383A00"/>
<path d="M207.375 266.254C196.889 270.543 200.344 301.993 214.407 301.407V316.055C214.407 316.055 217.926 323.077 228.486 316.055C228.486 316.055 224.393 300.725 229.072 294.376C239.136 280.732 237.571 253.897 207.375 266.254Z" fill="#FFABB8"/>
<path d="M220.165 319.47C219.493 319.473 218.823 319.388 218.173 319.218C217.333 319.006 216.544 318.628 215.854 318.106C215.163 317.584 214.584 316.928 214.152 316.179L214.121 316.118V301.703H214.024C207.258 301.703 203.259 294.501 201.764 287.659C199.844 278.89 201.378 268.379 207.265 265.971L207.377 266.241L207.265 265.971C221.932 259.97 228.747 263.492 231.88 267.504C237.399 274.569 234.848 287.037 229.32 294.538C224.777 300.702 228.74 315.813 228.779 315.965L228.833 316.166L228.653 316.283C225.482 318.406 222.637 319.47 220.165 319.47ZM214.707 315.974C215.526 317.3 216.826 318.259 218.337 318.649C221.014 319.353 224.319 318.433 228.157 315.914C227.667 313.991 224.371 300.25 228.844 294.193C234.253 286.865 236.766 274.715 231.417 267.865C228.408 264.014 221.815 260.654 207.487 266.515C201.883 268.807 200.468 279.002 202.336 287.534C203.778 294.148 207.607 301.11 214.028 301.112C214.152 301.112 214.277 301.112 214.403 301.103L214.707 301.09V315.974Z" fill="#383A00"/>
<path d="M199.79 269.221C199.79 269.221 210.269 244.614 232.979 264.45C232.979 264.45 240.732 249.907 250.076 258.173C258.876 265.957 245.801 279.265 239.013 274.175C239.013 274.175 241.779 287.801 228.636 295.561C228.636 295.561 229.836 276.047 222.67 280.52C216.635 284.286 224.179 273.991 213.869 271.983C208.962 271.024 199.79 269.221 199.79 269.221Z" fill="#423877"/>
<path d="M228.309 296.096L228.343 295.543C228.343 295.413 229.102 282.495 225.599 280.419C224.838 279.969 223.931 280.084 222.826 280.779C221.548 281.576 220.787 281.803 220.286 281.539C219.7 281.229 219.664 280.37 219.62 279.283C219.527 276.927 219.386 273.366 213.813 272.28C208.896 271.322 199.734 269.518 199.734 269.518L199.373 269.45L199.514 269.117C199.557 269.014 203.965 258.888 213.036 256.814C219.072 255.433 225.752 257.851 232.892 264.003C233.75 262.509 237.543 256.42 242.808 255.471C245.366 255.01 247.873 255.851 250.263 257.964C255.045 262.194 253.456 267.714 250.642 271.157C247.828 274.599 243.023 276.942 239.392 274.796C239.732 277.657 240.282 289.032 228.778 295.824L228.309 296.096ZM224.627 279.56C225.072 279.56 225.508 279.681 225.889 279.909C229.299 281.935 229.059 292.444 228.954 295.033C241.238 287.421 238.75 274.374 238.723 274.243L238.571 273.487L239.188 273.949C242.577 276.492 247.389 274.218 250.186 270.784C252.834 267.543 254.333 262.354 249.872 258.4C247.624 256.42 245.282 255.622 242.913 256.045C237.313 257.053 233.269 264.522 233.229 264.596L233.049 264.922L232.771 264.679C225.678 258.485 219.081 256.036 213.16 257.383C205.292 259.183 201.032 267.273 200.197 269.014C201.95 269.358 209.573 270.86 213.912 271.704C219.938 272.878 220.098 276.872 220.194 279.257C220.226 280.086 220.257 280.867 220.545 281.018C220.736 281.117 221.23 281.072 222.5 280.28C223.27 279.801 223.979 279.561 224.627 279.56Z" fill="#383A00"/>
<path d="M225.15 279.918C225.15 279.918 231.387 277.507 232.057 282.194C232.728 286.881 223.676 287.885 223.676 287.885" fill="#FFABB8"/>
<path d="M223.708 288.175L223.643 287.594C223.699 287.594 229.243 286.944 231.161 284.47C231.414 284.161 231.599 283.802 231.703 283.417C231.807 283.032 231.829 282.63 231.767 282.235C231.621 281.215 231.177 280.48 230.451 280.055C228.549 278.942 225.289 280.179 225.256 280.192L225.044 279.652C225.188 279.596 228.599 278.3 230.746 279.556C231.635 280.077 232.174 280.952 232.347 282.16C232.42 282.632 232.393 283.113 232.269 283.574C232.145 284.035 231.926 284.465 231.626 284.837C229.555 287.5 223.946 288.15 223.708 288.175Z" fill="#383A00"/>
<path d="M217.952 396.786H112.076V404.599H217.952V396.786Z" fill="#3E3087"/>
<path d="M218.247 404.894H111.783V396.493H218.247V404.894ZM112.371 404.309H217.663V397.08H112.371V404.309Z" fill="#383A00"/>
<g style="mix-blend-mode:multiply">
<g style="mix-blend-mode:multiply">
<g style="mix-blend-mode:multiply">
<path d="M255.857 334.654L214.755 314.809H255.857V334.654Z" fill="white"/>
</g>
<g style="mix-blend-mode:multiply">
<path d="M255.858 335.95L212.071 314.809H214.756L255.858 334.654V335.95Z" fill="white"/>
</g>
<g style="mix-blend-mode:multiply">
<path d="M255.858 337.247L209.387 314.809H212.071L255.858 335.95V337.247Z" fill="#FEFEFF"/>
</g>
<g style="mix-blend-mode:multiply">
<path d="M255.857 338.543L206.701 314.809H209.386L255.857 337.247V338.543Z" fill="#FDFEFF"/>
</g>
<g style="mix-blend-mode:multiply">
<path d="M255.858 339.84L204.018 314.809H206.702L255.858 338.543V339.84Z" fill="#FCFDFF"/>
</g>
<g style="mix-blend-mode:multiply">
<path d="M255.857 341.136L201.334 314.809H204.017L255.857 339.84V341.136Z" fill="#FBFDFF"/>
</g>
<g style="mix-blend-mode:multiply">
<path d="M255.858 342.432L198.65 314.809H201.335L255.858 341.136V342.432Z" fill="#FAFCFE"/>
</g>
<g style="mix-blend-mode:multiply">
<path d="M255.858 343.727L195.966 314.809H198.65L255.858 342.432V343.727Z" fill="#F9FBFE"/>
</g>
<g style="mix-blend-mode:multiply">
<path d="M255.857 345.023L193.281 314.809H195.965L255.857 343.727V345.023Z" fill="#F8FBFE"/>
</g>
<g style="mix-blend-mode:multiply">
<path d="M255.857 346.32L191.753 315.367L192.023 314.809H193.28L255.857 345.023V346.32Z" fill="#F7FAFE"/>
</g>
<g style="mix-blend-mode:multiply">
<path d="M255.857 347.617L191.245 316.417L191.753 315.368L255.857 346.32V347.617Z" fill="#F6FAFE"/>
</g>
<g style="mix-blend-mode:multiply">
<path d="M255.857 348.913L190.735 317.468L191.245 316.417L255.857 347.616V348.913Z" fill="#F5F9FE"/>
</g>
<g style="mix-blend-mode:multiply">
<path d="M255.858 350.209L190.227 318.518L190.735 317.468L255.858 348.912V350.209Z" fill="#F4F8FE"/>
</g>
<g style="mix-blend-mode:multiply">
<path d="M255.857 351.505L189.718 319.569L190.226 318.518L255.857 350.209V351.505Z" fill="#F3F8FE"/>
</g>
<g style="mix-blend-mode:multiply">
<path d="M255.857 352.8L189.209 320.619L189.717 319.569L255.857 351.505V352.8Z" fill="#F2F7FD"/>
</g>
<g style="mix-blend-mode:multiply">
<path d="M255.858 354.096L188.701 321.669L189.21 320.619L255.858 352.8V354.096Z" fill="#F1F7FD"/>
</g>
<g style="mix-blend-mode:multiply">
<path d="M255.858 355.393L188.193 322.72L188.702 321.669L255.858 354.096V355.393Z" fill="#F0F6FD"/>
</g>
<g style="mix-blend-mode:multiply">
<path d="M255.857 356.689L187.684 323.772L188.192 322.72L255.857 355.392V356.689Z" fill="#EFF5FD"/>
</g>
<g style="mix-blend-mode:multiply">
<path d="M255.857 357.985L187.176 324.821L187.684 323.772L255.857 356.689V357.985Z" fill="#EEF5FD"/>
</g>
<g style="mix-blend-mode:multiply">
<path d="M255.858 359.282L186.668 325.871L187.176 324.822L255.858 357.985V359.282Z" fill="#EDF4FD"/>
</g>
<g style="mix-blend-mode:multiply">
<path d="M255.858 360.578L186.16 326.923L186.668 325.871L255.858 359.282V360.578Z" fill="#ECF4FD"/>
</g>
<g style="mix-blend-mode:multiply">
<path d="M255.858 361.874L185.649 327.972L186.16 326.923L255.858 360.578V361.874Z" fill="#EBF3FD"/>
</g>
<g style="mix-blend-mode:multiply">
<path d="M255.857 363.169L185.14 329.024L185.649 327.972L255.857 361.874V363.169Z" fill="#EAF2FD"/>
</g>
<g style="mix-blend-mode:multiply">
<path d="M255.857 364.465L185.122 330.311V329.062L185.14 329.024L255.857 363.169V364.465Z" fill="#E9F2FC"/>
</g>
<g style="mix-blend-mode:multiply">
<path d="M255.857 365.762L185.122 331.608V330.311L255.857 364.465V365.762Z" fill="#E8F1FC"/>
</g>
<g style="mix-blend-mode:multiply">
<path d="M255.857 367.058L185.122 332.902V331.608L255.857 365.762V367.058Z" fill="#E7F0FC"/>
</g>
<g style="mix-blend-mode:multiply">
<path d="M255.857 368.354L185.122 334.199V332.902L255.857 367.058V368.354Z" fill="#E6F0FC"/>
</g>
<g style="mix-blend-mode:multiply">
<path d="M255.857 369.651L185.122 335.495V334.199L255.857 368.354V369.651Z" fill="#E5EFFC"/>
</g>
<g style="mix-blend-mode:multiply">
<path d="M255.857 370.947L185.122 336.791V335.495L255.857 369.651V370.947Z" fill="#E4EFFC"/>
</g>
<g style="mix-blend-mode:multiply">
<path d="M255.857 372.242L185.122 338.088V336.791L255.857 370.947V372.242Z" fill="#E3EEFC"/>
</g>
<g style="mix-blend-mode:multiply">
<path d="M255.857 373.538L185.122 339.384V338.088L255.857 372.242V373.538Z" fill="#E2EDFC"/>
</g>
<g style="mix-blend-mode:multiply">
<path d="M255.857 374.835L185.122 340.681V339.384L255.857 373.538V374.835Z" fill="#E1EDFC"/>
</g>
<g style="mix-blend-mode:multiply">
<path d="M255.857 376.131L185.122 341.975V340.68L255.857 374.835V376.131Z" fill="#E0ECFB"/>
</g>
<g style="mix-blend-mode:multiply">
<path d="M255.857 377.427L185.122 343.271V341.975L255.857 376.131V377.427Z" fill="#DFECFB"/>
</g>
<g style="mix-blend-mode:multiply">
<path d="M255.857 378.724L185.122 344.568V343.271L255.857 377.427V378.724Z" fill="#DEEBFB"/>
</g>
<g style="mix-blend-mode:multiply">
<path d="M255.857 380.02L185.122 345.864V344.568L255.857 378.724V380.02Z" fill="#DDEAFB"/>
</g>
<g style="mix-blend-mode:multiply">
<path d="M255.857 381.316L185.122 347.161V345.864L255.857 380.02V381.316Z" fill="#DCEAFB"/>
</g>
<g style="mix-blend-mode:multiply">
<path d="M255.857 382.613L185.122 348.457V347.161L255.857 381.316V382.613Z" fill="#DBE9FB"/>
</g>
<g style="mix-blend-mode:multiply">
<path d="M255.857 383.907L185.122 349.753V348.457L255.857 382.613V383.907Z" fill="#DAE9FB"/>
</g>
<g style="mix-blend-mode:multiply">
<path d="M255.857 385.204L185.122 351.05V349.753L255.857 383.907V385.204Z" fill="#D9E8FB"/>
</g>
<g style="mix-blend-mode:multiply">
<path d="M255.857 386.5L185.122 352.344V351.05L255.857 385.204V386.5Z" fill="#D8E7FA"/>
</g>
<g style="mix-blend-mode:multiply">
<path d="M255.857 387.797L185.122 353.641V352.344L255.857 386.5V387.797Z" fill="#D7E7FA"/>
</g>
<g style="mix-blend-mode:multiply">
<path d="M255.857 389.093L185.122 354.937V353.641L255.857 387.797V389.093Z" fill="#D6E6FA"/>
</g>
<g style="mix-blend-mode:multiply">
<path d="M255.857 390.389L185.122 356.233V354.937L255.857 389.093V390.389Z" fill="#D5E6FA"/>
</g>
<g style="mix-blend-mode:multiply">
<path d="M255.857 391.686L185.122 357.53V356.233L255.857 390.389V391.686Z" fill="#D4E5FA"/>
</g>
<g style="mix-blend-mode:multiply">
<path d="M255.857 392.98L185.122 358.826V357.53L255.857 391.686V392.98Z" fill="#D2E4FA"/>
</g>
<g style="mix-blend-mode:multiply">
<path d="M255.857 394.277L185.122 360.123V358.826L255.857 392.98V394.277Z" fill="#D1E4FA"/>
</g>
<g style="mix-blend-mode:multiply">
<path d="M255.857 395.573L185.122 361.417V360.123L255.857 394.277V395.573Z" fill="#D0E3FA"/>
</g>
<g style="mix-blend-mode:multiply">
<path d="M255.857 396.869L185.122 362.713V361.417L255.857 395.573V396.869Z" fill="#CFE3FA"/>
</g>
<g style="mix-blend-mode:multiply">
<path d="M255.857 398.166L185.122 364.01V362.713L255.857 396.869V398.166Z" fill="#CEE2F9"/>
</g>
<g style="mix-blend-mode:multiply">
<path d="M255.857 399.462L185.122 365.306V364.01L255.857 398.166V399.462Z" fill="#CDE1F9"/>
</g>
<g style="mix-blend-mode:multiply">
<path d="M255.857 400.759L185.122 366.603V365.306L255.857 399.462V400.759Z" fill="#CCE1F9"/>
</g>
<g style="mix-blend-mode:multiply">
<path d="M255.857 402.055L185.122 367.899V366.603L255.857 400.759V402.055Z" fill="#CBE0F9"/>
</g>
<g style="mix-blend-mode:multiply">
<path d="M255.857 403.35L185.122 369.195V367.899L255.857 402.055V403.35Z" fill="#CAE0F9"/>
</g>
<g style="mix-blend-mode:multiply">
<path d="M255.857 404.646L185.122 370.492V369.195L255.857 403.349V404.646Z" fill="#C9DFF9"/>
</g>
<g style="mix-blend-mode:multiply">
<path d="M255.417 405.73L185.122 371.788V370.492L255.857 404.646V405.73H255.417Z" fill="#C8DEF9"/>
</g>
<g style="mix-blend-mode:multiply">
<path d="M252.733 405.73L185.122 373.083V371.788L255.417 405.73H252.733Z" fill="#C7DEF9"/>
</g>
<g style="mix-blend-mode:multiply">
<path d="M250.048 405.73L185.122 374.379V373.083L252.733 405.73H250.048Z" fill="#C6DDF8"/>
</g>
<g style="mix-blend-mode:multiply">
<path d="M247.365 405.73L185.122 375.675V374.379L250.048 405.73H247.365Z" fill="#C5DDF8"/>
</g>
<g style="mix-blend-mode:multiply">
<path d="M244.681 405.73L185.122 376.972V375.675L247.365 405.73H244.681Z" fill="#C4DCF8"/>
</g>
<g style="mix-blend-mode:multiply">
<path d="M241.996 405.73L185.122 378.268V376.972L244.681 405.73H241.996Z" fill="#C3DBF8"/>
</g>
<g style="mix-blend-mode:multiply">
<path d="M239.311 405.73L185.122 379.565V378.268L241.996 405.73H239.311Z" fill="#C2DBF8"/>
</g>
<g style="mix-blend-mode:multiply">
<path d="M236.627 405.73L185.122 380.861V379.564L239.311 405.73H236.627Z" fill="#C1DAF8"/>
</g>
<g style="mix-blend-mode:multiply">
<path d="M233.942 405.73L185.122 382.157V380.861L236.627 405.73H233.942Z" fill="#C0DAF8"/>
</g>
<g style="mix-blend-mode:multiply">
<path d="M231.259 405.73L185.122 383.452V382.157L233.942 405.73H231.259Z" fill="#BFD9F8"/>
</g>
<g style="mix-blend-mode:multiply">
<path d="M228.575 405.73L185.122 384.748V383.452L231.259 405.73H228.575Z" fill="#BED8F8"/>
</g>
<g style="mix-blend-mode:multiply">
<path d="M225.89 405.73L185.122 386.045V384.748L228.575 405.73H225.89Z" fill="#BDD8F7"/>
</g>
<g style="mix-blend-mode:multiply">
<path d="M223.206 405.73L185.122 387.341V386.045L225.89 405.73H223.206Z" fill="#BCD7F7"/>
</g>
<g style="mix-blend-mode:multiply">
<path d="M220.521 405.73L185.122 388.637V387.341L223.206 405.73H220.521Z" fill="#BBD6F7"/>
</g>
<g style="mix-blend-mode:multiply">
<path d="M217.837 405.73L185.122 389.934V388.637L220.521 405.73H217.837Z" fill="#BAD6F7"/>
</g>
<g style="mix-blend-mode:multiply">
<path d="M215.154 405.73L185.122 391.23V389.934L217.837 405.73H215.154Z" fill="#B9D5F7"/>
</g>
<g style="mix-blend-mode:multiply">
<path d="M212.469 405.73L185.122 392.525V391.23L215.154 405.73H212.469Z" fill="#B8D5F7"/>
</g>
<g style="mix-blend-mode:multiply">
<path d="M209.785 405.73L185.122 393.821V392.525L212.469 405.73H209.785Z" fill="#B7D4F7"/>
</g>
<g style="mix-blend-mode:multiply">
<path d="M207.1 405.73L185.122 395.117V393.821L209.785 405.73H207.1Z" fill="#B6D3F7"/>
</g>
<g style="mix-blend-mode:multiply">
<path d="M204.415 405.73L185.122 396.414V395.118L207.1 405.73H204.415Z" fill="#B5D3F7"/>
</g>
<g style="mix-blend-mode:multiply">
<path d="M201.731 405.73L185.122 397.71V396.414L204.415 405.73H201.731Z" fill="#B4D2F6"/>
</g>
<g style="mix-blend-mode:multiply">
<path d="M199.048 405.73L185.122 399.006V397.71L201.731 405.73H199.048Z" fill="#B3D2F6"/>
</g>
<g style="mix-blend-mode:multiply">
<path d="M196.363 405.73L185.122 400.303V399.007L199.048 405.73H196.363Z" fill="#B2D1F6"/>
</g>
<g style="mix-blend-mode:multiply">
<path d="M193.679 405.73L185.122 401.599V400.303L196.363 405.73H193.679Z" fill="#B1D0F6"/>
</g>
<g style="mix-blend-mode:multiply">
<path d="M190.994 405.73L185.122 402.894V401.599L193.679 405.73H190.994Z" fill="#B0D0F6"/>
</g>
<g style="mix-blend-mode:multiply">
<path d="M188.31 405.73L185.122 404.19V402.894L190.994 405.73H188.31Z" fill="#AFCFF6"/>
</g>
<g style="mix-blend-mode:multiply">
<path d="M185.627 405.73L185.122 405.487V404.19L188.31 405.73H185.627Z" fill="#AECFF6"/>
</g>
<g style="mix-blend-mode:multiply">
<path d="M185.122 405.487L185.627 405.73H185.122V405.487Z" fill="#ADCEF6"/>
</g>
</g>
</g>
<path d="M190.781 404.601H117.238L97.626 338.271H171.168L190.781 404.601Z" fill="#3E3087"/>
<path d="M191.174 404.894H117.011L97.2329 337.978H171.388L191.174 404.894ZM117.457 404.309H190.391L170.95 338.563H98.019L117.457 404.309Z" fill="#383A00"/>
<path d="M185.835 404.601H112.293L92.6809 338.271H166.225L185.835 404.601Z" fill="#A8CBF5"/>
<path d="M186.228 404.894H112.073L92.2888 337.978H166.442L186.228 404.894ZM112.512 404.309H185.443L166.004 338.563H93.0731L112.512 404.309Z" fill="#383A00"/>
<path d="M255.858 316.984C270.388 329.787 307.653 385.53 305.39 400.693C303.128 415.857 232.092 396.792 232.092 396.792L234.641 381.966L272.202 383.468C272.202 383.468 249.591 353.909 246.557 342.792C242.029 326.211 251.477 313.123 255.858 316.984Z" fill="#36B2D4"/>
<path d="M234.405 383.331C234.405 383.331 217.138 376.437 207.837 384.471C198.535 392.505 216.888 384.471 216.888 384.471C216.888 384.471 206.328 389.492 207.584 392.004C208.841 394.516 213.238 388.238 217.953 388.238C217.953 388.238 206.636 395.416 210.002 396.1C213.368 396.785 214.912 391.21 232.874 392.236L234.405 383.331Z" fill="#FFABB8"/>
<path d="M210.571 396.452C210.36 396.451 210.149 396.43 209.942 396.388C209.327 396.262 209.142 395.938 209.097 395.69C208.805 394.111 214.195 390.35 216.752 388.668C214.929 389.066 213.169 390.263 211.704 391.261C210.207 392.278 209.023 393.081 208.136 392.85C207.955 392.798 207.788 392.707 207.647 392.582C207.507 392.458 207.396 392.303 207.323 392.13C207.24 391.958 207.193 391.77 207.187 391.579C207.18 391.388 207.213 391.197 207.283 391.019C207.748 389.669 209.987 388.029 212.169 386.698C209.017 387.863 205.592 388.859 205.013 387.94C204.726 387.487 204.815 386.693 207.643 384.249C216.974 376.19 234.34 382.989 234.507 383.059L234.729 383.147L233.106 392.544L232.845 392.53C220.848 391.849 216.238 394.118 213.483 395.474C212.376 396.027 211.511 396.452 210.571 396.452ZM217.953 387.944H218.962L218.111 388.484C214.487 390.783 209.473 394.505 209.674 395.584C209.697 395.713 209.897 395.782 210.059 395.814C211.064 396.019 211.929 395.593 213.236 394.948C216.024 393.576 220.673 391.286 232.629 391.93L234.071 383.518C232.039 382.762 216.534 377.346 208.027 384.692C205.229 387.109 205.503 387.609 205.503 387.629C205.947 388.331 211.686 386.426 216.765 384.208L217.008 384.748C216.925 384.788 208.693 388.727 207.833 391.23C207.787 391.334 207.763 391.446 207.763 391.559C207.763 391.673 207.787 391.785 207.833 391.889C207.869 391.986 207.927 392.074 208.003 392.145C208.078 392.216 208.17 392.268 208.269 392.298C208.9 392.462 210.095 391.651 211.359 390.791C213.227 389.514 215.533 387.944 217.953 387.944Z" fill="#383A00"/>
<path d="M231.811 465.404C224.388 440.242 205.268 430.526 205.075 430.433L205.334 429.907C205.529 430.002 224.875 439.821 232.379 465.239L231.811 465.404Z" fill="black"/>
<path d="M149.19 376.655L149.911 379.968C150.744 383.817 148.288 386.938 144.439 386.938C140.59 386.938 136.789 383.817 135.956 379.968L135.179 376.379C134.458 373.07 136.176 370.303 139.12 369.591L139.18 369.869C140.013 373.716 143.808 376.835 147.654 376.835C148.171 376.838 148.687 376.777 149.19 376.655Z" fill="white"/>
<path d="M144.436 387.231C140.459 387.231 136.525 384.001 135.667 380.029L134.89 376.446C134.169 373.072 135.908 370.07 139.047 369.312L139.339 369.242L139.464 369.811C140.266 373.525 143.944 376.547 147.66 376.547C148.152 376.549 148.642 376.491 149.12 376.376L149.414 376.304L150.195 379.905C150.624 381.885 150.238 383.742 149.113 385.126C148.022 386.487 146.36 387.231 144.436 387.231ZM138.896 369.964C136.22 370.76 134.816 373.333 135.47 376.325L136.247 379.915C137.052 383.63 140.728 386.653 144.444 386.653C146.187 386.653 147.689 385.987 148.664 384.777C149.676 383.517 150.018 381.842 149.629 380.038L148.974 377.013C148.544 377.095 148.106 377.136 147.667 377.135C143.695 377.126 139.765 373.913 138.896 369.964Z" fill="#4186FF"/>
<path d="M138.968 368.902L139.027 369.179C138.525 369.3 138.011 369.361 137.494 369.359C133.642 369.359 129.845 366.242 129.012 362.393L128.952 362.117C129.453 361.995 129.966 361.935 130.481 361.937C132.41 361.937 134.321 362.719 135.859 363.979C137.397 365.239 138.551 366.981 138.968 368.902Z" fill="white"/>
<path d="M137.494 369.651C133.517 369.651 129.585 366.422 128.725 362.449L128.606 361.894L128.882 361.826C129.405 361.701 129.942 361.641 130.481 361.646C132.41 361.646 134.386 362.393 136.045 363.752C137.655 365.042 138.786 366.834 139.254 368.842L139.373 369.397L139.097 369.465C138.572 369.591 138.034 369.653 137.494 369.651ZM129.302 362.339C130.108 366.048 133.778 369.064 137.494 369.064C137.892 369.065 138.288 369.029 138.679 368.956C138.236 367.08 137.177 365.407 135.671 364.202C134.119 362.929 132.275 362.222 130.481 362.222C130.085 362.222 129.69 362.262 129.302 362.339Z" fill="#4186FF"/>
<path d="M670.812 559.274C641.299 556.179 660.282 522.745 658.743 521.103C653.552 515.579 651.351 496.775 659.895 488.238C659.895 488.238 654.217 455.318 665.28 448.789C676.343 442.26 673.828 481.933 673.828 481.933C673.828 481.933 689.815 504.241 680.519 520.311C680.519 520.317 689.418 561.224 670.812 559.274Z" fill="#36B2D4"/>
<path d="M667.315 456.368L666.727 456.391L671.363 572.127L671.951 572.104L667.315 456.368Z" fill="black"/>
<path d="M668.277 509.82C658.18 507.265 657.459 498.618 657.445 498.53L658.031 498.489C658.031 498.572 658.752 506.804 668.421 509.252L668.277 509.82Z" fill="black"/>
<path d="M668.893 517.362L668.675 516.822C678.427 512.924 678.557 504.115 678.557 504.025H679.143C679.15 504.115 679.016 513.318 668.893 517.362Z" fill="black"/>
<path d="M670.846 540.983L670.777 540.403C678.945 539.444 678.584 531.505 678.564 531.168L679.15 531.134C679.156 531.223 679.569 539.96 670.846 540.983Z" fill="black"/>
<path d="M670.774 552.031C662.567 550.951 657.679 541.228 657.473 540.823L658 540.563C658.048 540.661 662.958 550.409 670.849 551.451L670.774 552.031Z" fill="black"/>
<path d="M425.921 483.444C402.288 486.591 416.868 546.217 416.868 546.217C416.868 546.217 405.311 546.655 405.302 556.255C405.286 574.842 449.051 576.484 454.582 559.341C460.114 542.198 446.537 540.693 446.537 540.693C446.537 540.693 448.548 480.431 425.921 483.444Z" fill="#36B2D4"/>
<path d="M430.891 584.921L430.318 584.8C436.43 555.538 427.433 496.548 427.334 495.956L427.913 495.865C428.005 496.46 437.034 555.555 430.891 584.921Z" fill="black"/>
<path d="M417.103 503.829L416.629 504.173L430.674 523.456L431.148 523.112L417.103 503.829Z" fill="black"/>
<path d="M442.772 520.414L431.688 535.728L432.162 536.071L443.247 520.756L442.772 520.414Z" fill="black"/>
<path d="M448.899 548.966L432.597 559.071L432.906 559.568L449.208 549.463L448.899 548.966Z" fill="black"/>
<path d="M413.975 554.977L413.73 555.509L432.631 564.191L432.876 563.659L413.975 554.977Z" fill="black"/>
<path d="M176 501.149H232.774L237.316 672.792H189.626L185.084 629.909L180.542 587.367L177.703 544.825L176.852 522.987L176 501.149Z" fill="url(#paint0_linear_0_1)"/>
<path d="M254.916 545.392H312.258L347.367 669.4H290.116L254.916 545.392Z" fill="url(#paint1_linear_0_1)"/>
<defs>
<linearGradient id="paint0_linear_0_1" x1="206.527" y1="501.149" x2="206.527" y2="672.792" gradientUnits="userSpaceOnUse">
<stop stop-color="#504392" stop-opacity="0"/>
<stop offset="1" stop-color="#504392"/>
</linearGradient>
<linearGradient id="paint1_linear_0_1" x1="301.993" y1="545.392" x2="301.993" y2="669.4" gradientUnits="userSpaceOnUse">
<stop stop-color="#504392" stop-opacity="0"/>
<stop offset="1" stop-color="#504392"/>
</linearGradient>
</defs>
</svg>
