<svg width="60" height="60" viewBox="0 0 60 60" fill="none" xmlns="http://www.w3.org/2000/svg">
<g clip-path="url(#clip0_743_5365)">
<path d="M0.0591125 17.0542L5.87192 40.3153C6.33498 42.1577 7.9803 43.4483 9.88177 43.4483H45.7438C47.8424 43.4483 49.6158 41.8719 49.8522 39.7931L54.0394 6.2069H56.8966C58.6108 6.2069 60 4.81774 60 3.10345C60 1.38916 58.6108 0 56.8966 0H51.3399C49.7833 0 48.4729 1.14286 48.266 2.6798L46.6502 14.4828H2.06897C0.729065 14.4828 -0.26601 15.7537 0.0591125 17.0542Z" fill="#1B93C7"/>
<path d="M47.5859 53.7933C47.5859 57.212 44.7978 60.0002 41.379 60.0002C37.9603 60.0002 35.1721 57.212 35.1721 53.7933C35.1721 50.3746 37.9603 47.5864 41.379 47.5864C44.7978 47.5864 47.5859 50.3746 47.5859 53.7933Z" fill="#1B93C7"/>
<path d="M10.3441 53.7933C10.3441 50.3746 13.1322 47.5864 16.5509 47.5864C19.9696 47.5864 22.7578 50.3746 22.7578 53.7933C22.7578 57.212 19.9696 60.0002 16.5509 60.0002C13.1322 60.0002 10.3441 57.212 10.3441 53.7933Z" fill="#1B93C7"/>
</g>
<defs>
<clipPath id="clip0_743_5365">
<rect width="60" height="60" fill="white" transform="matrix(-1 0 0 1 60 0)"/>
</clipPath>
</defs>
</svg>
