<svg width="46" height="61" viewBox="0 0 46 61" fill="none" xmlns="http://www.w3.org/2000/svg">
<g clip-path="url(#clip0_743_5371)">
<path d="M45.0282 43.5731C44.2883 42.589 40.4501 37.1424 40.0802 30.5629C40.0802 30.5629 39.6062 12.9186 26.0224 10.6186C27.6871 9.61171 28.8085 7.79235 28.8085 5.72125C28.8085 2.56312 26.2189 0 23.0282 0C19.8374 0 17.2478 2.56312 17.2478 5.72125C17.2478 7.78091 18.3576 9.60026 20.0224 10.6072C6.39232 12.8728 5.91833 30.5629 5.91833 30.5629C5.54839 37.1424 1.71024 42.5776 0.970356 43.5731C0.820067 43.779 0.681339 43.985 0.554171 44.2139C-1.28398 47.475 1.92989 49.054 3.44434 49.6033C3.91833 49.7749 4.38076 49.9465 4.84319 50.1525C10.2883 52.5211 21.3172 52.9559 21.3172 52.9559H23.005H24.6929C24.6929 52.9559 35.7218 52.5211 41.1669 50.1411C41.6293 49.9351 42.0917 49.7635 42.5657 49.5918C44.0802 49.054 47.2941 47.4635 45.4559 44.2024C45.3287 43.985 45.19 43.7676 45.0282 43.5731ZM23.0397 2.15119C25.0282 2.15119 26.6467 3.75314 26.6467 5.72125C26.6467 7.68937 25.0282 9.29132 23.0397 9.29132C21.0513 9.29132 19.4328 7.68937 19.4328 5.72125C19.4328 3.75314 21.0513 2.15119 23.0397 2.15119Z" fill="#1B93C7"/>
<path d="M26.416 57.2697C25.3293 58.3453 24.2079 58.8716 23.1096 58.8373C21.364 58.7801 20.0692 57.3612 20.046 57.3269C19.653 56.8806 18.9709 56.8234 18.5085 57.2125C18.0576 57.6015 17.9998 58.2766 18.3929 58.7343C18.4738 58.8259 20.2888 60.8855 23.0056 60.9885C23.0749 60.9885 23.1443 60.9885 23.2137 60.9885C24.8784 60.9885 26.4738 60.2447 27.9536 58.7915C28.3813 58.3682 28.3813 57.6931 27.9536 57.2697C27.5374 56.8463 26.8437 56.8463 26.416 57.2697Z" fill="#1B93C7"/>
</g>
<defs>
<clipPath id="clip0_743_5371">
<rect width="46" height="61" fill="white"/>
</clipPath>
</defs>
</svg>
