<svg width="46" height="61" viewBox="0 0 46 61" fill="none" xmlns="http://www.w3.org/2000/svg">
<g clip-path="url(#clip0_622_1124)">
<path d="M45.0291 43.5731C44.2892 42.589 40.4511 37.1424 40.0812 30.5629C40.0812 30.5629 39.6072 12.9186 26.0234 10.6186C27.6881 9.61171 28.8095 7.79235 28.8095 5.72125C28.8095 2.56312 26.2199 0 23.0291 0C19.8384 0 17.2488 2.56312 17.2488 5.72125C17.2488 7.78091 18.3586 9.60026 20.0234 10.6072C6.3933 12.8728 5.91931 30.5629 5.91931 30.5629C5.54937 37.1424 1.71122 42.5776 0.971332 43.5731C0.821043 43.779 0.682315 43.985 0.555148 44.2139C-1.283 47.475 1.93087 49.054 3.44532 49.6033C3.91931 49.7749 4.38174 49.9465 4.84416 50.1525C10.2893 52.5211 21.3182 52.9559 21.3182 52.9559H23.006H24.6939C24.6939 52.9559 35.7228 52.5211 41.1679 50.1411C41.6303 49.9351 42.0927 49.7635 42.5667 49.5918C44.0812 49.054 47.295 47.4635 45.4569 44.2024C45.3297 43.985 45.191 43.7676 45.0291 43.5731ZM23.0407 2.15119C25.0291 2.15119 26.6476 3.75314 26.6476 5.72125C26.6476 7.68937 25.0291 9.29132 23.0407 9.29132C21.0523 9.29132 19.4338 7.68937 19.4338 5.72125C19.4338 3.75314 21.0523 2.15119 23.0407 2.15119Z" fill="#1B93C7"/>
<path d="M26.416 57.2697C25.3293 58.3453 24.2079 58.8717 23.1096 58.8374C21.364 58.7802 20.0692 57.3613 20.046 57.327C19.653 56.8807 18.9709 56.8235 18.5085 57.2125C18.0576 57.6016 17.9998 58.2767 18.3929 58.7344C18.4738 58.8259 20.2888 60.8856 23.0056 60.9886C23.0749 60.9886 23.1443 60.9886 23.2137 60.9886C24.8784 60.9886 26.4738 60.2448 27.9536 58.7916C28.3813 58.3682 28.3813 57.6931 27.9536 57.2697C27.5374 56.8464 26.8437 56.8464 26.416 57.2697Z" fill="#1B93C7"/>
</g>
<defs>
<clipPath id="clip0_622_1124">
<rect width="46" height="61" fill="white"/>
</clipPath>
</defs>
</svg>
