<svg width="62" height="60" viewBox="0 0 62 60" fill="none" xmlns="http://www.w3.org/2000/svg">
<path d="M24.9932 0C18.3637 0.00640256 12.0055 2.62505 7.32091 7.27331C2.62984 11.928 0 18.2281 0 24.7971C0 31.3725 2.6363 37.6855 7.33384 42.3337C12.0249 46.982 18.396 49.5942 25.032 49.5942C29.7941 49.5942 34.4529 48.2497 38.472 45.7143L51.1753 58.3145C53.4433 60.5618 57.0876 60.5618 59.3556 58.3145L60.299 57.3798C62.567 55.1325 62.567 51.5214 60.299 49.2741L47.2015 36.3025C49.0753 32.7555 50.0575 28.8051 50.0575 24.8035C50.0575 18.2281 47.4212 11.9152 42.7236 7.26691C38.0326 2.61225 31.668 0 25.032 0C25.019 0 25.0061 0 24.9932 0ZM25.032 5.07083C25.0514 5.07083 25.0772 5.07083 25.0966 5.07083C25.116 5.07083 25.1418 5.07083 25.1612 5.07083C25.1806 5.07083 25.2064 5.07083 25.2258 5.07083C25.2452 5.07083 25.271 5.07083 25.2904 5.07083C25.3098 5.07083 25.3357 5.07083 25.355 5.07083C25.3744 5.07083 25.4003 5.07083 25.4197 5.07083C25.439 5.07083 25.4649 5.07083 25.4843 5.07083C25.5037 5.07083 25.5295 5.07083 25.5489 5.07083C25.5683 5.07083 25.5941 5.07083 25.6135 5.07083C25.6329 5.07083 25.6587 5.07083 25.6781 5.07083C25.6975 5.07083 25.7234 5.07083 25.7427 5.07083C25.7621 5.07083 25.788 5.07083 25.8074 5.07083C25.8267 5.07083 25.8526 5.07083 25.872 5.07083C25.8914 5.07083 25.9172 5.07083 25.9366 5.07723C25.956 5.07723 25.9818 5.07723 26.0012 5.08363C26.0206 5.08363 26.0464 5.08363 26.0658 5.09004C26.0852 5.09004 26.111 5.09004 26.1304 5.09644C26.1498 5.09644 26.1757 5.09644 26.195 5.10284C26.2144 5.10284 26.2403 5.10284 26.2597 5.10924C26.279 5.10924 26.3049 5.10924 26.3243 5.11565C26.3437 5.11565 26.3695 5.11565 26.3889 5.12205C26.4083 5.12205 26.4341 5.12205 26.4535 5.12845C26.4729 5.12845 26.4987 5.13485 26.5181 5.13485C26.5375 5.13485 26.5633 5.14126 26.5827 5.14126C26.6021 5.14126 26.628 5.14766 26.6473 5.14766C26.6667 5.14766 26.6926 5.15406 26.712 5.15406C26.7314 5.15406 26.7572 5.16046 26.7766 5.16046C26.796 5.16046 26.8218 5.16687 26.8412 5.16687C26.8606 5.16687 26.8864 5.17327 26.9058 5.17327C26.9252 5.17327 26.951 5.17967 26.9704 5.17967C26.9898 5.17967 27.0157 5.18607 27.035 5.18607C27.0544 5.18607 27.0803 5.19248 27.0997 5.19248C27.119 5.19248 27.1449 5.19888 27.1643 5.19888C27.1837 5.19888 27.2095 5.20528 27.2289 5.20528C27.2483 5.20528 27.2741 5.21168 27.2935 5.21168C27.3129 5.21168 27.3387 5.21809 27.3581 5.21809C27.3775 5.21809 27.4033 5.22449 27.4227 5.22449C27.4421 5.22449 27.468 5.23089 27.4873 5.23089C27.5067 5.23089 27.5326 5.2373 27.552 5.2373C27.5713 5.2373 27.5972 5.2437 27.6166 5.2437C27.636 5.2437 27.6618 5.2501 27.6812 5.2501C27.7006 5.2565 27.7264 5.2565 27.7458 5.2565C27.7652 5.2565 27.791 5.2629 27.8104 5.2629C27.8298 5.26931 27.8557 5.26931 27.875 5.27571C27.8944 5.28211 27.9203 5.28211 27.9397 5.28852C27.959 5.29492 27.9849 5.29492 28.0043 5.30132C28.0237 5.30772 28.0495 5.30772 28.0689 5.31413C28.0883 5.32053 28.1141 5.32053 28.1335 5.32693C28.1529 5.33333 28.1787 5.33333 28.1981 5.33974C28.2175 5.34614 28.2433 5.34614 28.2627 5.35254C28.2821 5.35894 28.308 5.35894 28.3273 5.36535C28.3467 5.37175 28.3726 5.37175 28.392 5.37815C28.4113 5.38455 28.4372 5.38455 28.4566 5.39096C28.476 5.39736 28.5018 5.39736 28.5212 5.40376C28.5406 5.41016 28.5664 5.41016 28.5858 5.41657C28.6052 5.42297 28.631 5.42297 28.6504 5.42937C28.6698 5.43577 28.6957 5.43577 28.715 5.44218C28.7344 5.44858 28.7603 5.44858 28.7797 5.45498C28.799 5.46138 28.8249 5.46138 28.8443 5.46779C28.8637 5.47419 28.8895 5.47419 28.9089 5.48059C28.9283 5.48699 28.9541 5.487 28.9735 5.4934C28.9929 5.4998 29.0187 5.4998 29.0381 5.5062C29.0575 5.5126 29.0833 5.5126 29.1027 5.51901C29.1221 5.52541 29.148 5.52541 29.1673 5.53181C29.1867 5.53822 29.2126 5.53822 29.232 5.54462C29.2513 5.55102 29.2772 5.55102 29.2966 5.55742C29.316 5.56383 29.3418 5.57023 29.3612 5.57023C29.3806 5.57663 29.4064 5.58303 29.4258 5.58303C29.4452 5.58944 29.471 5.59584 29.4904 5.59584C29.5098 5.60224 29.5357 5.60864 29.555 5.60864C29.5744 5.61505 29.6003 5.62145 29.6197 5.62145C29.639 5.62785 29.6649 5.63425 29.6843 5.64066C29.7037 5.64706 29.7295 5.65346 29.7489 5.65986C29.7683 5.66627 29.7941 5.67267 29.8135 5.67907C29.8329 5.68547 29.8587 5.69188 29.8781 5.69828C29.8975 5.70468 29.9233 5.71108 29.9427 5.71749C29.9621 5.72389 29.988 5.73029 30.0073 5.73669C30.0267 5.7431 30.0526 5.7495 30.072 5.7559C30.0913 5.7623 30.1172 5.76871 30.1366 5.77511C30.156 5.78151 30.1818 5.78792 30.2012 5.79432C30.2206 5.80072 30.2464 5.80712 30.2658 5.81353C30.2852 5.81993 30.311 5.82633 30.3304 5.83273C30.3498 5.83914 30.3757 5.84554 30.395 5.85194C30.4144 5.85834 30.4403 5.86475 30.4597 5.87115C30.479 5.87755 30.5049 5.88395 30.5243 5.89036C30.5437 5.89676 30.5695 5.90316 30.5889 5.90956C30.6083 5.91597 30.6341 5.92237 30.6535 5.92877C30.6729 5.93517 30.6987 5.94158 30.7181 5.94798C30.7375 5.95438 30.7633 5.96078 30.7827 5.96719C30.8021 5.97359 30.828 5.97999 30.8473 5.98639C30.8667 5.9928 30.8926 5.9992 30.912 6.0056C30.9313 6.012 30.9572 6.01841 30.9766 6.02481C30.996 6.03121 31.0218 6.03762 31.0412 6.04402C31.0606 6.05042 31.0864 6.05682 31.1058 6.06323C31.1252 6.06963 31.151 6.07603 31.1704 6.08243C31.1898 6.08884 31.2157 6.09524 31.235 6.10164C31.2544 6.10804 31.2803 6.11445 31.2997 6.12085C31.319 6.12725 31.3449 6.13365 31.3643 6.14006C31.3837 6.14646 31.4095 6.15286 31.4289 6.15926C31.4483 6.16567 31.4677 6.17207 31.4935 6.17847C31.5129 6.18487 31.5323 6.19128 31.5581 6.19768C31.5775 6.20408 31.5969 6.21048 31.6227 6.21689C31.6421 6.22329 31.6615 6.22969 31.6873 6.2425C31.7067 6.2489 31.7261 6.2553 31.752 6.26811C31.7713 6.27451 31.7907 6.28091 31.8166 6.29372C31.836 6.30012 31.8553 6.30652 31.8812 6.31933C31.9006 6.32573 31.92 6.33213 31.9458 6.34494C31.9652 6.35134 31.9846 6.35774 32.0104 6.37055C32.0363 6.38335 32.0492 6.38976 32.075 6.39616C32.0944 6.40256 32.1138 6.41537 32.1396 6.42177C32.159 6.42817 32.1784 6.44098 32.2043 6.44738C32.2236 6.45378 32.243 6.46659 32.2689 6.47299C32.2883 6.47939 32.3077 6.4922 32.3335 6.4986C32.3529 6.505 32.3723 6.51781 32.3981 6.52421C32.4175 6.53061 32.4369 6.54342 32.4627 6.54982C32.4821 6.55622 32.5015 6.56903 32.5273 6.57543C32.5467 6.58183 32.5661 6.59464 32.592 6.60104C32.6113 6.60744 32.6307 6.62025 32.6566 6.62665C32.676 6.63305 32.6953 6.64586 32.7212 6.65226C32.7406 6.65866 32.76 6.67147 32.7858 6.67787C32.8052 6.68427 32.8246 6.69708 32.844 6.70348C32.8633 6.70988 32.8827 6.72269 32.9021 6.72909C32.9215 6.73549 32.9409 6.7483 32.9603 6.7547C32.9797 6.7611 32.999 6.77391 33.0184 6.78031C33.0378 6.78671 33.0572 6.79952 33.0766 6.80592C33.096 6.81233 33.1153 6.82513 33.1347 6.83153C33.1541 6.83794 33.1735 6.85074 33.1929 6.85714C33.2123 6.86355 33.2316 6.87635 33.251 6.88275C33.2704 6.88916 33.2898 6.90196 33.3092 6.90836C33.3286 6.91477 33.348 6.92757 33.3673 6.93397C33.3867 6.94038 33.4061 6.95318 33.4255 6.95958C33.4449 6.96599 33.4643 6.97879 33.4837 6.98519C33.503 6.9916 33.5224 7.0044 33.5418 7.0108C33.5612 7.01721 33.5806 7.03001 33.6 7.04282C33.6193 7.04922 33.6387 7.06202 33.6581 7.07483C33.6775 7.08763 33.6969 7.09404 33.7163 7.10684C33.7356 7.11965 33.755 7.12605 33.7744 7.13886C33.7938 7.15166 33.8132 7.15806 33.8326 7.17087C33.852 7.18367 33.8713 7.19008 33.8907 7.20288C33.9101 7.21569 33.9295 7.22209 33.9489 7.23489C33.9683 7.2477 33.9876 7.2541 34.007 7.26691C34.0264 7.27971 34.0458 7.28611 34.0652 7.29892C34.0846 7.31172 34.104 7.31813 34.1233 7.33093C34.1427 7.34374 34.1621 7.35014 34.1815 7.36295C34.2009 7.37575 34.2203 7.38215 34.2397 7.39496C34.259 7.40776 34.2784 7.41417 34.2978 7.42697C34.3172 7.43978 34.3366 7.44618 34.356 7.45898C34.3753 7.47179 34.3947 7.47819 34.4141 7.491C34.4335 7.5038 34.4529 7.5102 34.4723 7.52301C34.4916 7.53581 34.511 7.54222 34.5304 7.55502C34.5498 7.56783 34.5692 7.57423 34.5886 7.58703C34.608 7.59984 34.6273 7.60624 34.6467 7.61905C34.6661 7.63185 34.6855 7.63826 34.7049 7.65106C34.7243 7.66387 34.7436 7.67027 34.763 7.68307C34.7824 7.69588 34.8018 7.70228 34.8212 7.71509C34.8406 7.72789 34.86 7.73429 34.8793 7.7471C34.8987 7.7599 34.9181 7.76631 34.9375 7.77911C34.9569 7.79192 34.9763 7.80472 34.9956 7.81112C35.015 7.82393 35.0344 7.83673 35.0538 7.84314C35.0732 7.85594 35.0926 7.86875 35.112 7.87515C35.1313 7.88795 35.1507 7.90076 35.1701 7.90716C35.1895 7.91997 35.2089 7.93277 35.2283 7.93918C35.2476 7.95198 35.267 7.96479 35.2864 7.97119C35.3058 7.98399 35.3252 7.9968 35.3446 8.0032C35.364 8.01601 35.3833 8.02881 35.4027 8.04162C35.4221 8.05442 35.4415 8.06723 35.4609 8.08003C35.4803 8.09284 35.4996 8.10564 35.519 8.11845C35.5384 8.13125 35.5578 8.14406 35.5772 8.15686C35.5966 8.16967 35.616 8.18247 35.6353 8.19528C35.6547 8.20808 35.6741 8.22089 35.6935 8.23369C35.7129 8.2465 35.7323 8.2593 35.7516 8.27211C35.771 8.28491 35.7904 8.29772 35.8098 8.31052C35.8292 8.32333 35.8486 8.33613 35.868 8.34894C35.8873 8.36174 35.9067 8.37455 35.9261 8.38736C35.9455 8.40016 35.9649 8.41297 35.9843 8.42577C36.0036 8.43858 36.023 8.45138 36.0424 8.46419C36.0618 8.47699 36.0812 8.4898 36.1006 8.5026C36.12 8.51541 36.1393 8.52821 36.1587 8.54102C36.1781 8.55382 36.1975 8.56663 36.2104 8.57943C36.2298 8.59224 36.2492 8.60504 36.2686 8.61785C36.288 8.63065 36.3073 8.64346 36.3203 8.65626C36.3396 8.66907 36.359 8.68187 36.372 8.69468C36.3913 8.70748 36.4107 8.72029 36.4236 8.73309C36.443 8.7459 36.4624 8.7587 36.4753 8.77151C36.4947 8.78431 36.5141 8.79712 36.527 8.80992C36.5464 8.82273 36.5658 8.83553 36.5787 8.84834C36.5981 8.86114 36.6175 8.87395 36.6304 8.88675C36.6498 8.89956 36.6692 8.91236 36.6821 8.92517C36.7015 8.93797 36.7209 8.95078 36.7338 8.96359C36.7532 8.97639 36.7726 8.9892 36.7855 9.002C36.8049 9.01481 36.8243 9.02761 36.8372 9.04042C36.8566 9.05322 36.876 9.06603 36.8889 9.07883C36.9083 9.09164 36.9212 9.10444 36.9406 9.11725C36.96 9.13005 36.9729 9.14286 36.9923 9.15566C37.0116 9.16847 37.0246 9.18127 37.0439 9.19408C37.0633 9.20688 37.0763 9.21969 37.0956 9.23249C37.115 9.2453 37.128 9.2581 37.1473 9.27091C37.1667 9.28371 37.1796 9.29652 37.199 9.30932C37.2184 9.32213 37.2313 9.33493 37.2507 9.34774C37.2701 9.36054 37.283 9.37335 37.3024 9.38615C37.3218 9.39896 37.3347 9.41176 37.3541 9.42457C37.3735 9.43737 37.3864 9.45018 37.4058 9.46939C37.4252 9.48219 37.4381 9.495 37.4575 9.51421C37.4769 9.52701 37.4898 9.53982 37.5092 9.55902C37.5286 9.57183 37.5415 9.58463 37.5609 9.60384C37.5803 9.61665 37.5932 9.62945 37.6126 9.64866C37.632 9.66146 37.6449 9.67427 37.6643 9.69348C37.6836 9.70628 37.6966 9.71909 37.716 9.7383C37.7353 9.7511 37.7483 9.76391 37.7676 9.78311C37.787 9.79592 37.8 9.81513 37.8193 9.82793C37.8387 9.84074 37.8516 9.85994 37.871 9.87275C37.8904 9.88555 37.9033 9.90476 37.9227 9.91757C37.9421 9.93037 37.955 9.94958 37.9744 9.96239C37.9938 9.97519 38.0067 9.9944 38.0261 10.0072C38.0455 10.02 38.0584 10.0392 38.0778 10.052C38.0972 10.0648 38.1101 10.084 38.1295 10.0968C38.1489 10.1096 38.1618 10.1289 38.1812 10.1417C38.2006 10.1545 38.2135 10.1737 38.2329 10.1865C38.2523 10.1993 38.2652 10.2185 38.2846 10.2313C38.304 10.2441 38.3169 10.2633 38.3363 10.2761C38.3556 10.2889 38.3686 10.3081 38.3879 10.3209C38.4073 10.3337 38.4203 10.3529 38.4396 10.3657C38.459 10.3786 38.472 10.3978 38.4913 10.4106C38.5107 10.4234 38.5236 10.4426 38.543 10.4554C38.5624 10.4682 38.5753 10.4874 38.5883 10.5002C38.6076 10.513 38.6206 10.5322 38.6335 10.545C38.6529 10.5578 38.6658 10.577 38.6787 10.5898C38.6916 10.6026 38.711 10.6218 38.724 10.6347C38.7369 10.6475 38.7563 10.6667 38.7692 10.6795C38.7821 10.6923 38.8015 10.7115 38.8144 10.7243C38.8273 10.7371 38.8467 10.7563 38.8596 10.7691C38.8726 10.7819 38.8919 10.8011 38.9049 10.8139C38.9178 10.8267 38.9372 10.8459 38.9501 10.8587C38.963 10.8715 38.9824 10.8908 38.9953 10.9036C39.0083 10.9164 39.0276 10.9356 39.0406 10.9484C39.0535 10.9612 39.0729 10.9804 39.0858 10.9932C39.0987 11.006 39.1181 11.0252 39.131 11.038C39.144 11.0572 39.1633 11.07 39.1763 11.0892C39.1892 11.1084 39.2086 11.1212 39.2215 11.1405C39.2344 11.1597 39.2538 11.1725 39.2667 11.1917C39.2796 11.2109 39.299 11.2237 39.312 11.2429C39.3249 11.2621 39.3443 11.2749 39.3572 11.2941C39.3701 11.3133 39.3895 11.3261 39.4024 11.3453C39.4153 11.3645 39.4347 11.3774 39.4476 11.3966C39.4606 11.4158 39.48 11.4286 39.4929 11.4478C39.5058 11.467 39.5252 11.4798 39.5381 11.499C39.551 11.5182 39.5704 11.531 39.5833 11.5502C39.5963 11.5694 39.6156 11.5822 39.6286 11.6014C39.6415 11.6206 39.6609 11.6335 39.6738 11.6527C39.6867 11.6719 39.7061 11.6847 39.719 11.7039C39.7319 11.7231 39.7513 11.7359 39.7643 11.7551C39.7772 11.7743 39.7966 11.7871 39.8095 11.8063C39.8224 11.8255 39.8418 11.8383 39.8547 11.8575C39.8676 11.8768 39.8806 11.8896 39.9 11.9088C39.9129 11.928 39.9258 11.9408 39.9452 11.96C39.9581 11.9792 39.971 11.992 39.9904 12.0112C40.0033 12.0304 40.0163 12.0432 40.0356 12.0624C40.0486 12.0816 40.0615 12.0944 40.0809 12.1136C40.0938 12.1329 40.1067 12.1457 40.1261 12.1649C40.139 12.1841 40.1519 12.1969 40.1713 12.2161C40.1843 12.2353 40.1972 12.2481 40.2166 12.2673C40.2295 12.2865 40.2424 12.2993 40.2618 12.3185C40.2747 12.3377 40.2876 12.3505 40.307 12.3697C40.3199 12.389 40.3329 12.4018 40.3458 12.421C40.3587 12.4402 40.3716 12.453 40.3846 12.4722C40.3975 12.4914 40.4104 12.5042 40.4233 12.5234C40.4363 12.5426 40.4492 12.5554 40.4621 12.5746C40.475 12.5938 40.4879 12.6066 40.5009 12.6258C40.5138 12.6451 40.5267 12.6579 40.5396 12.6771C40.5526 12.6963 40.5655 12.7091 40.5784 12.7283C40.5913 12.7475 40.6043 12.7603 40.6172 12.7795C40.6301 12.7987 40.643 12.8179 40.6559 12.8307C40.6689 12.8499 40.6818 12.8691 40.6947 12.882C40.7076 12.9012 40.7206 12.9204 40.7335 12.9332C40.7464 12.9524 40.7593 12.9716 40.7723 12.9844C40.7852 13.0036 40.7981 13.0228 40.811 13.0356C40.8239 13.0548 40.8369 13.074 40.8498 13.0868C40.8627 13.106 40.8756 13.1252 40.8886 13.1381C40.9015 13.1573 40.9144 13.1765 40.9273 13.1893C40.9403 13.2085 40.9532 13.2277 40.9661 13.2405C40.979 13.2597 40.9919 13.2789 41.0049 13.2917C41.0178 13.3109 41.0307 13.3301 41.0436 13.3429C41.0566 13.3621 41.0695 13.3814 41.0824 13.3942C41.0953 13.4134 41.1083 13.4326 41.1212 13.4454C41.1341 13.4646 41.147 13.4838 41.1599 13.503C41.1729 13.5222 41.1858 13.5414 41.1987 13.5606C41.2116 13.5798 41.2246 13.599 41.2375 13.6182C41.2504 13.6375 41.2633 13.6567 41.2763 13.6759C41.2892 13.6951 41.3021 13.7143 41.315 13.7335C41.3279 13.7527 41.3409 13.7719 41.3538 13.7911C41.3667 13.8103 41.3796 13.8295 41.3926 13.8487C41.4055 13.8679 41.4184 13.8872 41.4313 13.9064C41.4443 13.9256 41.4572 13.9448 41.4701 13.964C41.483 13.9832 41.4959 14.0024 41.5089 14.0216C41.5218 14.0408 41.5347 14.06 41.5476 14.0792C41.5606 14.0984 41.5735 14.1176 41.5864 14.1369C41.5993 14.1561 41.6123 14.1753 41.6252 14.1945C41.6381 14.2137 41.651 14.2329 41.6639 14.2521C41.6769 14.2713 41.6898 14.2905 41.6963 14.3097C41.7092 14.3289 41.7221 14.3481 41.7286 14.3673C41.7415 14.3866 41.7544 14.4058 41.7609 14.425C41.7738 14.4442 41.7867 14.4634 41.7932 14.4826C41.8061 14.5018 41.819 14.521 41.8255 14.5402C41.8384 14.5594 41.8513 14.5786 41.8578 14.5978C41.8707 14.617 41.8836 14.6363 41.8901 14.6555C41.903 14.6747 41.9095 14.6939 41.9224 14.7131C41.9353 14.7323 41.9483 14.7515 41.9547 14.7707C41.9676 14.7899 41.9741 14.8091 41.987 14.8283C41.9999 14.8475 42.0064 14.8667 42.0193 14.886C42.0323 14.9052 42.0387 14.9244 42.0516 14.9436C42.0646 14.9628 42.071 14.982 42.0839 15.0012C42.0969 15.0204 42.1033 15.0396 42.1163 15.0588C42.1292 15.078 42.1356 15.0972 42.1486 15.1164C42.1615 15.1357 42.1679 15.1549 42.1809 15.1741C42.1938 15.1933 42.2003 15.2125 42.2132 15.2317C42.2261 15.2509 42.2326 15.2701 42.2455 15.2893C42.2584 15.3085 42.2649 15.3277 42.2778 15.3469C42.2907 15.3661 42.2972 15.3854 42.3101 15.4046C42.323 15.4238 42.3295 15.443 42.3424 15.4622C42.3553 15.4814 42.3618 15.5006 42.3747 15.5198C42.3876 15.539 42.3941 15.5582 42.407 15.5774C42.4199 15.5966 42.4264 15.6158 42.4393 15.6351C42.4523 15.6543 42.4587 15.6735 42.4716 15.6927C42.4846 15.7119 42.491 15.7311 42.5039 15.7503C42.5169 15.7695 42.5233 15.7887 42.5363 15.8079C42.5492 15.8271 42.5556 15.8463 42.5686 15.8655C42.5815 15.8848 42.5879 15.904 42.6009 15.9232C42.6138 15.9424 42.6203 15.9616 42.6332 15.9808C42.6461 16 42.6526 16.0192 42.6655 16.0384C42.6719 16.0576 42.6849 16.0768 42.6913 16.096C42.7043 16.1152 42.7107 16.1345 42.7172 16.1537C42.7236 16.1729 42.7366 16.1921 42.743 16.2113C42.7495 16.2305 42.7624 16.2497 42.7689 16.2689C42.7753 16.2881 42.7883 16.3073 42.7947 16.3265C42.8012 16.3457 42.8141 16.3649 42.8206 16.3842C42.827 16.4034 42.8399 16.4226 42.8464 16.4418C42.8529 16.461 42.8658 16.4802 42.8723 16.4994C42.8787 16.5186 42.8916 16.5378 42.8981 16.557C42.9046 16.5762 42.9175 16.5954 42.9239 16.6146C42.9304 16.6339 42.9433 16.6531 42.9498 16.6787C42.9563 16.6979 42.9692 16.7171 42.9756 16.7363C42.9821 16.7555 42.995 16.7747 43.0015 16.7939C43.0079 16.8131 43.0209 16.8323 43.0273 16.8515C43.0338 16.8707 43.0467 16.89 43.0532 16.9156C43.0596 16.9348 43.0726 16.954 43.079 16.9796C43.0855 16.9988 43.0984 17.018 43.1049 17.0436C43.1113 17.0628 43.1243 17.082 43.1307 17.1076C43.1372 17.1269 43.1501 17.1461 43.1566 17.1717C43.163 17.1909 43.1759 17.2101 43.1824 17.2357C43.1889 17.2549 43.2018 17.2741 43.2083 17.2997C43.2147 17.3189 43.2276 17.3381 43.2341 17.3637C43.2406 17.383 43.2535 17.4022 43.2599 17.4278C43.2664 17.447 43.2793 17.4662 43.2858 17.4918C43.2923 17.511 43.3052 17.5302 43.3116 17.5558C43.3181 17.575 43.331 17.5942 43.3375 17.6198C43.3439 17.6391 43.3504 17.6583 43.3633 17.6839C43.3698 17.7031 43.3763 17.7223 43.3892 17.7479C43.3956 17.7671 43.4021 17.7863 43.415 17.8119C43.4215 17.8311 43.4279 17.8503 43.4409 17.876C43.4473 17.8952 43.4538 17.9144 43.4667 17.94C43.4732 17.9592 43.4796 17.9784 43.4926 18.004C43.499 18.0232 43.5055 18.0424 43.5119 18.068C43.5184 18.0872 43.5249 18.1128 43.5313 18.1321C43.5378 18.1513 43.5443 18.1769 43.5507 18.1961C43.5572 18.2153 43.5636 18.2409 43.5701 18.2601C43.5766 18.2793 43.583 18.3049 43.5895 18.3241C43.5959 18.3433 43.6024 18.3689 43.6089 18.3882C43.6153 18.4074 43.6218 18.433 43.6283 18.4522C43.6347 18.4714 43.6412 18.497 43.6476 18.5162C43.6541 18.5354 43.6606 18.561 43.667 18.5802C43.6735 18.5994 43.6799 18.6251 43.6864 18.6443C43.6929 18.6635 43.6993 18.6891 43.7058 18.7083C43.7123 18.7275 43.7187 18.7531 43.7252 18.7723C43.7316 18.7915 43.7381 18.8171 43.7446 18.8363C43.751 18.8555 43.7575 18.8812 43.7639 18.9004C43.7704 18.9196 43.7769 18.9452 43.7833 18.9644C43.7898 18.9836 43.7963 19.0092 43.8027 19.0284C43.8092 19.0476 43.8156 19.0732 43.8221 19.0924C43.8286 19.1116 43.835 19.1373 43.8415 19.1565C43.8479 19.1757 43.8544 19.2013 43.8609 19.2205C43.8673 19.2397 43.8738 19.2653 43.8802 19.2845C43.8867 19.3037 43.8932 19.3293 43.8996 19.3485C43.9061 19.3677 43.9126 19.3934 43.919 19.4126C43.9255 19.4318 43.9319 19.4574 43.9384 19.4766C43.9449 19.4958 43.9513 19.5214 43.9578 19.5406C43.9642 19.5598 43.9707 19.5854 43.9772 19.6046C43.9836 19.6238 43.9901 19.6495 43.9966 19.6687C44.003 19.6879 44.0095 19.7135 44.0159 19.7327C44.0224 19.7519 44.0289 19.7775 44.0353 19.7967C44.0418 19.8159 44.0482 19.8415 44.0547 19.8607C44.0612 19.88 44.0676 19.9056 44.0741 19.9248C44.0806 19.944 44.087 19.9696 44.087 19.9888C44.0935 20.008 44.0999 20.0336 44.0999 20.0528C44.1064 20.072 44.1129 20.0976 44.1129 20.1168C44.1193 20.1361 44.1258 20.1617 44.1258 20.1809C44.1323 20.2001 44.1387 20.2257 44.1387 20.2449C44.1452 20.2641 44.1516 20.2897 44.1516 20.3089C44.1581 20.3281 44.1646 20.3537 44.1646 20.3729C44.171 20.3922 44.1775 20.4178 44.1775 20.437C44.1839 20.4562 44.1839 20.4818 44.1904 20.501C44.1969 20.5202 44.1969 20.5458 44.2033 20.565C44.2098 20.5842 44.2098 20.6098 44.2163 20.6291C44.2227 20.6483 44.2227 20.6739 44.2292 20.6931C44.2356 20.7123 44.2356 20.7379 44.2421 20.7571C44.2486 20.7763 44.2486 20.8019 44.255 20.8211C44.2615 20.8403 44.2615 20.8659 44.2679 20.8852C44.2744 20.9044 44.2744 20.93 44.2809 20.9492C44.2873 20.9684 44.2873 20.994 44.2938 21.0132C44.3003 21.0324 44.3003 21.058 44.3067 21.0772C44.3132 21.0964 44.3132 21.122 44.3196 21.1413C44.3261 21.1605 44.3261 21.1861 44.3326 21.2053C44.339 21.2245 44.339 21.2501 44.3455 21.2693C44.3519 21.2885 44.3519 21.3141 44.3584 21.3333C44.3649 21.3525 44.3649 21.3782 44.3713 21.3974C44.3778 21.4166 44.3778 21.4422 44.3843 21.4614C44.3907 21.4806 44.3907 21.5062 44.3972 21.5254C44.4036 21.5446 44.4036 21.5702 44.4101 21.5894C44.4166 21.6086 44.4166 21.6343 44.423 21.6535C44.4295 21.6727 44.4295 21.6983 44.4359 21.7175C44.4424 21.7367 44.4424 21.7623 44.4489 21.7815C44.4489 21.8007 44.4553 21.8263 44.4553 21.8455C44.4618 21.8647 44.4618 21.8904 44.4618 21.9096C44.4618 21.9288 44.4683 21.9544 44.4683 21.9736C44.4683 21.9928 44.4747 22.0184 44.4747 22.0376C44.4747 22.0568 44.4812 22.0824 44.4812 22.1016C44.4812 22.1208 44.4876 22.1465 44.4876 22.1657C44.4876 22.1849 44.4941 22.2105 44.4941 22.2297C44.4941 22.2489 44.5006 22.2745 44.5006 22.2937C44.5006 22.3129 44.507 22.3385 44.507 22.3577C44.507 22.377 44.5135 22.4026 44.5135 22.4218C44.5135 22.441 44.5199 22.4666 44.5199 22.4858C44.5199 22.505 44.5264 22.5306 44.5264 22.5498C44.5264 22.569 44.5329 22.5946 44.5329 22.6138C44.5329 22.6331 44.5393 22.6587 44.5393 22.6779C44.5393 22.6971 44.5458 22.7227 44.5458 22.7419C44.5458 22.7611 44.5523 22.7867 44.5523 22.8059C44.5523 22.8251 44.5587 22.8507 44.5587 22.8699C44.5587 22.8892 44.5652 22.9148 44.5652 22.934C44.5652 22.9532 44.5716 22.9788 44.5716 22.998C44.5716 23.0172 44.5781 23.0428 44.5781 23.062C44.5781 23.0812 44.5846 23.1068 44.5846 23.1261C44.5846 23.1453 44.591 23.1709 44.591 23.1901C44.591 23.2093 44.591 23.2349 44.5975 23.2541C44.5975 23.2733 44.5975 23.2989 44.6039 23.3181C44.6039 23.3373 44.6039 23.3629 44.6104 23.3822C44.6104 23.4014 44.6104 23.427 44.6169 23.4462C44.6169 23.4654 44.6169 23.491 44.6233 23.5102C44.6233 23.5294 44.6233 23.555 44.6298 23.5742C44.6298 23.5934 44.6298 23.619 44.6298 23.6383C44.6298 23.6575 44.6298 23.6831 44.6298 23.7023C44.6298 23.7215 44.6298 23.7471 44.6298 23.7663C44.6298 23.7855 44.6298 23.8111 44.6298 23.8303C44.6298 23.8495 44.6298 23.8751 44.6298 23.8944C44.6298 23.9136 44.6298 23.9392 44.6298 23.9584C44.6298 23.9776 44.6298 24.0032 44.6298 24.0224C44.6298 24.0416 44.6298 24.0672 44.6298 24.0864C44.6298 24.1056 44.6298 24.1313 44.6298 24.1505C44.6298 24.1697 44.6298 24.1953 44.6298 24.2145C44.6298 24.2337 44.6298 24.2593 44.6298 24.2785C44.6298 24.2977 44.6298 24.3233 44.6298 24.3425C44.6298 24.3617 44.6298 24.3874 44.6298 24.4066C44.6298 24.4258 44.6298 24.4514 44.6298 24.4706C44.6298 24.4834 44.6298 24.4962 44.6298 24.5026C44.6298 24.5218 44.6298 24.5474 44.6298 24.5666C44.6298 24.5858 44.6298 24.6114 44.6298 24.6307C44.6298 24.6499 44.6298 24.6755 44.6298 24.6947C44.6298 24.7139 44.6298 24.7395 44.6298 24.7587C44.6298 24.7779 44.6298 24.8035 44.6298 24.8227C44.6298 24.8419 44.6298 24.8675 44.6298 24.8868C44.6298 24.906 44.6298 24.9316 44.6298 24.9508C44.6298 24.97 44.6298 24.9956 44.6298 25.0148C44.6298 25.034 44.6298 25.0596 44.6298 25.0788C44.6298 25.098 44.6298 25.1236 44.6298 25.1429C44.6298 25.1621 44.6298 25.1877 44.6298 25.2069C44.6298 25.2261 44.6298 25.2517 44.6298 25.2709C44.6298 25.2901 44.6298 25.3157 44.6298 25.3349C44.6298 25.3541 44.6298 25.3798 44.6233 25.399C44.6233 25.4182 44.6233 25.4438 44.6169 25.463C44.6169 25.4822 44.6169 25.5078 44.6104 25.527C44.6104 25.5462 44.6104 25.5718 44.6039 25.591C44.6039 25.6102 44.6039 25.6359 44.5975 25.6551C44.5975 25.6743 44.5975 25.6999 44.591 25.7191C44.591 25.7383 44.591 25.7639 44.5846 25.7831C44.5846 25.8023 44.5781 25.8279 44.5781 25.8471C44.5781 25.8663 44.5716 25.892 44.5716 25.9112C44.5716 25.9304 44.5652 25.956 44.5652 25.9752C44.5652 25.9944 44.5587 26.02 44.5587 26.0392C44.5587 26.0584 44.5523 26.084 44.5523 26.1032C44.5523 26.1224 44.5458 26.1481 44.5458 26.1673C44.5458 26.1865 44.5393 26.2121 44.5393 26.2313C44.5393 26.2505 44.5329 26.2761 44.5329 26.2953C44.5329 26.3145 44.5264 26.3401 44.5264 26.3593C44.5264 26.3786 44.5199 26.4042 44.5199 26.4234C44.5199 26.4426 44.5135 26.4682 44.5135 26.4874C44.5135 26.5066 44.507 26.5322 44.507 26.5514C44.507 26.5706 44.5006 26.5962 44.5006 26.6154C44.5006 26.6347 44.4941 26.6603 44.4941 26.6795C44.4941 26.6987 44.4876 26.7243 44.4876 26.7435C44.4876 26.7627 44.4812 26.7883 44.4812 26.8075C44.4812 26.8267 44.4747 26.8523 44.4747 26.8715C44.4747 26.8908 44.4683 26.9164 44.4683 26.9356C44.4683 26.9548 44.4618 26.9804 44.4618 26.9996C44.4618 27.0188 44.4553 27.0444 44.4553 27.0636C44.4553 27.0828 44.4489 27.1084 44.4489 27.1277C44.4489 27.1469 44.4424 27.1725 44.4424 27.1917C44.4424 27.2109 44.4359 27.2365 44.4359 27.2557C44.4295 27.2749 44.4295 27.3005 44.423 27.3197C44.4166 27.3389 44.4166 27.3645 44.4101 27.3838C44.4036 27.403 44.4036 27.4286 44.3972 27.4478C44.3907 27.467 44.3907 27.4926 44.3843 27.5118C44.3778 27.531 44.3778 27.5566 44.3713 27.5758C44.3649 27.595 44.3649 27.6206 44.3584 27.6399C44.3519 27.6591 44.3519 27.6847 44.3455 27.7039C44.339 27.7231 44.339 27.7487 44.3326 27.7679C44.3261 27.7871 44.3261 27.8127 44.3196 27.8319C44.3132 27.8511 44.3132 27.8768 44.3067 27.896C44.3003 27.9152 44.3003 27.9408 44.2938 27.96C44.2873 27.9792 44.2873 28.0048 44.2809 28.024C44.2744 28.0432 44.2744 28.0688 44.2679 28.088C44.2615 28.1072 44.2615 28.1329 44.255 28.1521C44.2486 28.1713 44.2486 28.1969 44.2421 28.2161C44.2356 28.2353 44.2356 28.2609 44.2292 28.2801C44.2227 28.2993 44.2227 28.3249 44.2163 28.3441C44.2098 28.3633 44.2098 28.389 44.2033 28.4082C44.1969 28.4274 44.1969 28.453 44.1904 28.4722C44.1839 28.4914 44.1839 28.517 44.1775 28.5362C44.171 28.5554 44.171 28.581 44.1646 28.6002C44.1581 28.6194 44.1581 28.6451 44.1516 28.6643C44.1452 28.6835 44.1452 28.7091 44.1387 28.7283C44.1323 28.7475 44.1258 28.7731 44.1258 28.7923C44.1193 28.8115 44.1129 28.8371 44.1129 28.8563C44.1064 28.8756 44.0999 28.9012 44.0999 28.9204C44.0935 28.9396 44.087 28.9652 44.087 28.9844C44.0806 29.0036 44.0741 29.0292 44.0741 29.0484C44.0676 29.0676 44.0612 29.0932 44.0547 29.1124C44.0482 29.1317 44.0418 29.1573 44.0353 29.1765C44.0289 29.1957 44.0224 29.2213 44.0159 29.2405C44.0095 29.2597 44.003 29.2853 43.9966 29.3045C43.9901 29.3237 43.9836 29.3493 43.9772 29.3685C43.9707 29.3878 43.9642 29.4134 43.9578 29.4326C43.9513 29.4518 43.9449 29.4774 43.9384 29.4966C43.9319 29.5158 43.9255 29.5414 43.919 29.5606C43.9126 29.5798 43.9061 29.6054 43.8996 29.6247C43.8932 29.6439 43.8867 29.6695 43.8802 29.6887C43.8738 29.7079 43.8673 29.7335 43.8609 29.7527C43.8544 29.7719 43.8479 29.7975 43.8415 29.8167C43.835 29.8359 43.8286 29.8615 43.8221 29.8808C43.8156 29.9 43.8092 29.9256 43.8027 29.9448C43.7963 29.964 43.7898 29.9896 43.7833 30.0088C43.7769 30.028 43.7704 30.0536 43.7639 30.0728C43.7575 30.092 43.751 30.1176 43.7446 30.1369C43.7381 30.1561 43.7316 30.1817 43.7252 30.2009C43.7187 30.2201 43.7123 30.2457 43.7058 30.2649C43.6993 30.2841 43.6929 30.3097 43.6864 30.3289C43.6799 30.3481 43.6735 30.3737 43.667 30.393C43.6606 30.4122 43.6541 30.4378 43.6476 30.457C43.6412 30.4762 43.6347 30.5018 43.6283 30.521C43.6218 30.5402 43.6153 30.5658 43.6089 30.585C43.6024 30.6042 43.5959 30.6299 43.5895 30.6491C43.583 30.6683 43.5766 30.6939 43.5701 30.7131C43.5636 30.7323 43.5572 30.7579 43.5507 30.7771C43.5443 30.7963 43.5378 30.8219 43.5313 30.8411C43.5249 30.8603 43.5184 30.886 43.5119 30.9052C43.5055 30.9244 43.499 30.95 43.4926 30.9692C43.4861 30.9884 43.4796 31.0076 43.4732 31.0332C43.4667 31.0524 43.4603 31.078 43.4473 31.0972C43.4409 31.1164 43.4344 31.1357 43.4215 31.1613C43.415 31.1805 43.4086 31.1997 43.3956 31.2253C43.3892 31.2445 43.3827 31.2637 43.3698 31.2893C43.3633 31.3085 43.3569 31.3277 43.3439 31.3533C43.3375 31.3725 43.331 31.3918 43.3181 31.4174C43.3052 31.443 43.2987 31.4558 43.2923 31.4814C43.2858 31.5006 43.2793 31.5198 43.2664 31.5454C43.2599 31.5646 43.247 31.5838 43.2406 31.6094C43.2341 31.6287 43.2212 31.6479 43.2147 31.6735C43.2083 31.6927 43.1953 31.7119 43.1889 31.7375C43.1824 31.7567 43.1695 31.7759 43.163 31.8015C43.1566 31.8207 43.1436 31.8399 43.1372 31.8655C43.1307 31.8848 43.1178 31.904 43.1113 31.9296C43.1049 31.9488 43.0919 31.968 43.0855 31.9936C43.079 32.0128 43.0661 32.032 43.0596 32.0576C43.0532 32.0768 43.0403 32.096 43.0338 32.1216C43.0273 32.1409 43.0144 32.1601 43.0079 32.1793C43.0015 32.1985 42.9886 32.2177 42.9821 32.2369C42.9756 32.2561 42.9627 32.2753 42.9563 32.3009C42.9498 32.3201 42.9369 32.3393 42.9304 32.3585C42.9239 32.3777 42.911 32.397 42.9046 32.4162C42.8981 32.4354 42.8852 32.4546 42.8787 32.4738C42.8722 32.493 42.8593 32.5122 42.8529 32.5314C42.8464 32.5506 42.8335 32.5698 42.827 32.589C42.8206 32.6082 42.8076 32.6274 42.8012 32.6467C42.7947 32.6659 42.7818 32.6851 42.7753 32.7043C42.7689 32.7235 42.7559 32.7427 42.7495 32.7619C42.743 32.7811 42.7301 32.8003 42.7236 32.8195C42.7172 32.8387 42.7043 32.8579 42.6978 32.8772C42.6849 32.8964 42.6784 32.9156 42.6655 32.9348C42.659 32.954 42.6461 32.9732 42.6332 32.9924C42.6267 33.0116 42.6138 33.0308 42.6009 33.05C42.5879 33.0692 42.5815 33.0884 42.5686 33.1076C42.5556 33.1269 42.5492 33.1461 42.5363 33.1653C42.5233 33.1845 42.5169 33.2037 42.5039 33.2229C42.491 33.2421 42.4846 33.2613 42.4716 33.2805C42.4587 33.2997 42.4523 33.3189 42.4393 33.3381C42.4264 33.3573 42.4199 33.3766 42.407 33.3958C42.3941 33.415 42.3876 33.4342 42.3747 33.4534C42.3618 33.4726 42.3553 33.4918 42.3424 33.511C42.3295 33.5302 42.323 33.5494 42.3101 33.5686C42.2972 33.5878 42.2907 33.607 42.2778 33.6262C42.2649 33.6455 42.2584 33.6647 42.2455 33.6839C42.2326 33.7031 42.2261 33.7223 42.2132 33.7415C42.2003 33.7607 42.1938 33.7799 42.1809 33.7991C42.1679 33.8183 42.1615 33.8375 42.1486 33.8567C42.1356 33.8759 42.1292 33.8952 42.1163 33.9144C42.1033 33.9336 42.0969 33.9528 42.0839 33.972C42.071 33.9912 42.0646 34.0104 42.0516 34.0296C42.0387 34.0488 42.0323 34.068 42.0193 34.0872C42.0064 34.1064 41.9999 34.1256 41.987 34.1449C41.9741 34.1641 41.9676 34.1833 41.9547 34.2025C41.9418 34.2217 41.9353 34.2409 41.9224 34.2601C41.9095 34.2793 41.903 34.2985 41.8901 34.3177C41.8772 34.3369 41.8643 34.3561 41.8578 34.3754C41.8449 34.3946 41.8319 34.4138 41.8255 34.433C41.8126 34.4522 41.7996 34.4714 41.7932 34.4906C41.7803 34.5098 41.7673 34.529 41.7609 34.5482C41.7479 34.5674 41.735 34.5866 41.7286 34.6058C41.7156 34.625 41.7027 34.6443 41.6963 34.6635C41.6833 34.6827 41.6704 34.7019 41.6639 34.7211C41.651 34.7403 41.6381 34.7595 41.6252 34.7787C41.6123 34.7979 41.5993 34.8171 41.5864 34.8363C41.5735 34.8555 41.5606 34.8747 41.5476 34.894C41.5347 34.9132 41.5218 34.9324 41.5089 34.9516C41.4959 34.9708 41.483 34.99 41.4701 35.0092C41.4572 35.0284 41.4443 35.0476 41.4313 35.0668C41.4184 35.086 41.4055 35.1052 41.3926 35.1244C41.3796 35.1437 41.3667 35.1629 41.3538 35.1821C41.3409 35.2013 41.3279 35.2205 41.315 35.2397C41.3021 35.2589 41.2892 35.2781 41.2763 35.2973C41.2633 35.3165 41.2504 35.3357 41.2375 35.3549C41.2246 35.3742 41.2116 35.3934 41.1987 35.4126C41.1858 35.4318 41.1729 35.451 41.1599 35.4702C41.147 35.4894 41.1341 35.5086 41.1212 35.5278C41.1083 35.547 41.0953 35.5662 41.0824 35.579C41.0695 35.5982 41.0566 35.6174 41.0436 35.6303C41.0307 35.6495 41.0178 35.6687 41.0049 35.6815C40.9919 35.7007 40.979 35.7199 40.9661 35.7327C40.9532 35.7519 40.9403 35.7711 40.9273 35.7839C40.9144 35.8031 40.9015 35.8223 40.8886 35.8351C40.8756 35.8543 40.8627 35.8736 40.8498 35.8864C40.8369 35.9056 40.8239 35.9248 40.811 35.9376C40.7981 35.9568 40.7852 35.976 40.7723 35.9888C40.7593 36.008 40.7464 36.0272 40.7335 36.04C40.7206 36.0592 40.7076 36.0784 40.6947 36.0912C40.6818 36.1104 40.6689 36.1297 40.6559 36.1425C40.643 36.1617 40.6301 36.1809 40.6172 36.1937C40.6043 36.2129 40.5913 36.2321 40.5784 36.2449C40.5655 36.2641 40.5526 36.2769 40.5396 36.2961C40.5267 36.3153 40.5138 36.3281 40.5009 36.3473C40.4879 36.3665 40.475 36.3794 40.4621 36.3986C40.4492 36.4178 40.4363 36.4306 40.4233 36.4498C40.4104 36.469 40.3975 36.4818 40.3846 36.501C40.3716 36.5202 40.3587 36.533 40.3458 36.5522C40.3329 36.5714 40.3199 36.5842 40.307 36.6034C40.2941 36.6226 40.2812 36.6355 40.2683 36.6547C40.2553 36.6739 40.2424 36.6867 40.223 36.7059C40.2101 36.7251 40.1972 36.7379 40.1778 36.7571C40.1649 36.7763 40.1519 36.7891 40.1326 36.8083C40.1196 36.8275 40.1067 36.8403 40.0873 36.8595C40.0744 36.8788 40.0615 36.8916 40.0421 36.9108C40.0292 36.93 40.0163 36.9428 39.9969 36.962C39.9839 36.9812 39.971 36.994 39.9516 37.0132C39.9387 37.0324 39.9258 37.0452 39.9064 37.0644C39.8935 37.0836 39.8806 37.0964 39.8612 37.1156C39.8483 37.1349 39.8289 37.1477 39.8159 37.1669C39.803 37.1861 39.7836 37.1989 39.7707 37.2181C39.7578 37.2373 39.7384 37.2501 39.7255 37.2693C39.7126 37.2885 39.6932 37.3013 39.6803 37.3205C39.6673 37.3397 39.648 37.3525 39.635 37.3717C39.6221 37.391 39.6027 37.4038 39.5898 37.423C39.5769 37.4422 39.5575 37.455 39.5446 37.4742C39.5316 37.4934 39.5123 37.5062 39.4993 37.5254C39.4864 37.5446 39.467 37.5574 39.4541 37.5766C39.4412 37.5958 39.4218 37.6086 39.4089 37.6279C39.396 37.6471 39.3766 37.6599 39.3636 37.6791C39.3507 37.6983 39.3313 37.7111 39.3184 37.7303C39.3055 37.7495 39.2861 37.7623 39.2732 37.7815C39.2603 37.8007 39.2409 37.8135 39.2279 37.8327C39.215 37.8519 39.1956 37.8647 39.1827 37.884C39.1698 37.9032 39.1504 37.916 39.1375 37.9288C39.1246 37.948 39.1052 37.9608 39.0923 37.9736C39.0793 37.9928 39.0599 38.0056 39.047 38.0184C39.0341 38.0312 39.0147 38.0504 39.0018 38.0632C38.9889 38.076 38.9695 38.0952 38.9566 38.108C38.9436 38.1208 38.9243 38.1401 38.9113 38.1529C38.8984 38.1657 38.879 38.1849 38.8661 38.1977C38.8532 38.2105 38.8338 38.2297 38.8209 38.2425C38.808 38.2553 38.7886 38.2745 38.7756 38.2873C38.7627 38.3001 38.7433 38.3193 38.7304 38.3321C38.7175 38.3449 38.6981 38.3641 38.6852 38.377C38.6723 38.3898 38.6529 38.409 38.6399 38.4218C38.627 38.4346 38.6076 38.4538 38.5947 38.4666C38.5753 38.4794 38.5624 38.4986 38.543 38.5114C38.5236 38.5242 38.5107 38.5434 38.4913 38.5562C38.472 38.569 38.459 38.5882 38.4396 38.601C38.4203 38.6138 38.4073 38.6331 38.3879 38.6459C38.3686 38.6587 38.3556 38.6779 38.3363 38.6907C38.3169 38.7035 38.304 38.7227 38.2846 38.7355C38.2652 38.7483 38.2523 38.7675 38.2329 38.7803C38.2135 38.7931 38.2006 38.8123 38.1812 38.8251C38.1618 38.8379 38.1489 38.8571 38.1295 38.8699C38.1101 38.8828 38.0972 38.902 38.0778 38.9148C38.0584 38.9276 38.0455 38.9468 38.0261 38.9596C38.0067 38.9724 37.9938 38.9916 37.9744 39.0044C37.955 39.0172 37.9421 39.0364 37.9227 39.0492C37.9033 39.062 37.8904 39.0812 37.871 39.094C37.8516 39.1068 37.8387 39.126 37.8193 39.1389C37.8 39.1517 37.787 39.1645 37.7676 39.1837C37.7483 39.1965 37.7353 39.2093 37.716 39.2285C37.6966 39.2413 37.6836 39.2541 37.6643 39.2733C37.6449 39.2861 37.632 39.2989 37.6126 39.3181C37.5932 39.3309 37.5803 39.3437 37.5609 39.3629C37.5415 39.3757 37.5286 39.3886 37.5092 39.4078C37.4898 39.4206 37.4769 39.4334 37.4575 39.4526C37.4381 39.4654 37.4252 39.4782 37.4058 39.4974C37.3864 39.5102 37.3735 39.523 37.3541 39.5422C37.3347 39.555 37.3218 39.5678 37.3024 39.587C37.283 39.5998 37.2701 39.6126 37.2507 39.6319C37.2313 39.6447 37.2184 39.6575 37.199 39.6703C37.1796 39.6831 37.1667 39.6959 37.1473 39.7087C37.128 39.7215 37.115 39.7343 37.0956 39.7471C37.0763 39.7599 37.0633 39.7727 37.0439 39.7855C37.0246 39.7983 37.0116 39.8111 36.9923 39.8239C36.9729 39.8367 36.96 39.8495 36.9406 39.8623C36.9212 39.8751 36.9083 39.888 36.8889 39.9008C36.8695 39.9136 36.8566 39.9264 36.8372 39.9392C36.8178 39.952 36.7984 39.9648 36.7855 39.9776C36.7661 39.9904 36.7467 40.0032 36.7338 40.016C36.7144 40.0288 36.695 40.0416 36.6821 40.0544C36.6627 40.0672 36.6433 40.08 36.6304 40.0928C36.611 40.1056 36.5916 40.1184 36.5787 40.1313C36.5593 40.1441 36.54 40.1569 36.527 40.1697C36.5076 40.1825 36.4883 40.1953 36.4753 40.2081C36.456 40.2209 36.4366 40.2337 36.4236 40.2465C36.4043 40.2593 36.3849 40.2721 36.372 40.2849C36.3526 40.2977 36.3332 40.3105 36.3203 40.3233C36.3009 40.3361 36.2815 40.3489 36.2686 40.3617C36.2492 40.3746 36.2298 40.3874 36.2169 40.4002C36.1975 40.413 36.1781 40.4258 36.1652 40.4386C36.1458 40.4514 36.1264 40.4642 36.107 40.477C36.0876 40.4898 36.0683 40.5026 36.0489 40.5154C36.0295 40.5282 36.0101 40.541 35.9907 40.5538C35.9713 40.5666 35.952 40.5794 35.9326 40.5922C35.9132 40.605 35.8938 40.6178 35.8744 40.6307C35.855 40.6435 35.8356 40.6563 35.8163 40.6691C35.7969 40.6819 35.7775 40.6947 35.7581 40.7075C35.7387 40.7203 35.7193 40.7331 35.7 40.7459C35.6806 40.7587 35.6612 40.7715 35.6418 40.7843C35.6224 40.7971 35.603 40.8099 35.5836 40.8227C35.5643 40.8355 35.5449 40.8483 35.5255 40.8611C35.5061 40.874 35.4867 40.8868 35.4673 40.8996C35.448 40.9124 35.4286 40.9252 35.4092 40.938C35.3898 40.9508 35.3704 40.9636 35.351 40.9764C35.3316 40.9892 35.3123 41.002 35.2929 41.0084C35.2735 41.0212 35.2541 41.034 35.2347 41.0404C35.2153 41.0532 35.196 41.066 35.1766 41.0724C35.1572 41.0852 35.1378 41.098 35.1184 41.1044C35.099 41.1172 35.0796 41.1301 35.0603 41.1365C35.0409 41.1493 35.0215 41.1621 35.0021 41.1685C34.9827 41.1749 34.9633 41.1941 34.944 41.2005C34.9246 41.2133 34.9052 41.2261 34.8858 41.2325C34.8664 41.2453 34.847 41.2581 34.8276 41.2645C34.8083 41.2773 34.7889 41.2837 34.7695 41.2965C34.7501 41.3093 34.7307 41.3157 34.7113 41.3285C34.692 41.3413 34.6726 41.3477 34.6532 41.3605C34.6338 41.3733 34.6144 41.3798 34.595 41.3926C34.5756 41.4054 34.5563 41.4118 34.5369 41.4246C34.5175 41.4374 34.4981 41.4438 34.4787 41.4566C34.4593 41.4694 34.44 41.4758 34.4206 41.4886C34.4012 41.5014 34.3818 41.5078 34.3624 41.5206C34.343 41.5334 34.3237 41.5398 34.3043 41.5526C34.2849 41.5654 34.2655 41.5718 34.2461 41.5846C34.2267 41.5974 34.2073 41.6038 34.188 41.6166C34.1686 41.6295 34.1492 41.6359 34.1298 41.6487C34.1104 41.6615 34.091 41.6679 34.0716 41.6807C34.0523 41.6935 34.0329 41.6999 34.0135 41.7127C33.9941 41.7255 33.9747 41.7319 33.9553 41.7447C33.936 41.7575 33.9166 41.7639 33.8972 41.7767C33.8778 41.7895 33.8584 41.7959 33.839 41.8087C33.8196 41.8215 33.8003 41.8279 33.7809 41.8407C33.7615 41.8535 33.7421 41.8599 33.7227 41.8727C33.7033 41.8856 33.684 41.892 33.6646 41.9048C33.6452 41.9176 33.6258 41.924 33.6064 41.9368C33.587 41.9496 33.5677 41.956 33.5483 41.9688C33.5289 41.9752 33.5095 41.988 33.4901 41.9944C33.4707 42.0072 33.4513 42.0136 33.432 42.02C33.4126 42.0264 33.3932 42.0392 33.3738 42.0456C33.3544 42.052 33.335 42.0648 33.3156 42.0712C33.2963 42.0776 33.2769 42.0904 33.2575 42.0968C33.2381 42.1032 33.2187 42.116 33.1993 42.1225C33.18 42.1289 33.1606 42.1417 33.1412 42.1481C33.1218 42.1545 33.1024 42.1673 33.083 42.1737C33.0636 42.1801 33.0443 42.1929 33.0249 42.1993C33.0055 42.2057 32.9861 42.2185 32.9667 42.2249C32.9473 42.2313 32.928 42.2441 32.9021 42.2505C32.8827 42.2569 32.8633 42.2697 32.844 42.2761C32.8246 42.2825 32.8052 42.2953 32.7858 42.3017C32.7664 42.3081 32.747 42.3209 32.7276 42.3273C32.7083 42.3337 32.6889 42.3465 32.663 42.3529C32.6436 42.3593 32.6243 42.3721 32.5984 42.3786C32.579 42.385 32.5597 42.3978 32.5338 42.4042C32.5144 42.4106 32.495 42.4234 32.4692 42.4298C32.4498 42.4362 32.4304 42.449 32.4046 42.4554C32.3852 42.4618 32.3658 42.4746 32.34 42.481C32.3206 42.4874 32.3012 42.5002 32.2753 42.5066C32.256 42.513 32.2366 42.5258 32.2107 42.5322C32.1913 42.5386 32.172 42.5514 32.1461 42.5578C32.1267 42.5642 32.1073 42.577 32.0815 42.5834C32.0621 42.5898 32.0427 42.6026 32.0169 42.609C31.9975 42.6154 31.9781 42.6219 31.9523 42.6347C31.9329 42.6411 31.9135 42.6475 31.8877 42.6603C31.8683 42.6667 31.8489 42.6731 31.823 42.6859C31.8037 42.6923 31.7843 42.6987 31.7584 42.7115C31.739 42.7179 31.7197 42.7243 31.6938 42.7371C31.6744 42.7435 31.655 42.7499 31.6292 42.7627C31.6098 42.7691 31.5904 42.7755 31.5646 42.7883C31.5452 42.7947 31.5258 42.8011 31.5 42.8139C31.4806 42.8203 31.4547 42.8267 31.4353 42.8331C31.416 42.8395 31.3901 42.8459 31.3707 42.8523C31.3513 42.8587 31.3255 42.8651 31.3061 42.8715C31.2867 42.8779 31.2609 42.8844 31.2415 42.8908C31.2221 42.8972 31.1963 42.9036 31.1769 42.91C31.1575 42.9164 31.1317 42.9228 31.1123 42.9292C31.0929 42.9356 31.067 42.942 31.0477 42.9484C31.0283 42.9548 31.0024 42.9612 30.983 42.9676C30.9637 42.974 30.9378 42.9804 30.9184 42.9868C30.899 42.9932 30.8732 42.9996 30.8538 43.006C30.8344 43.0124 30.8086 43.0188 30.7892 43.0252C30.7698 43.0316 30.744 43.038 30.7246 43.0444C30.7052 43.0508 30.6793 43.0572 30.66 43.0636C30.6406 43.07 30.6147 43.0764 30.5953 43.0828C30.576 43.0892 30.5501 43.0956 30.5307 43.102C30.5113 43.1084 30.4855 43.1148 30.4661 43.1212C30.4467 43.1277 30.4209 43.1341 30.4015 43.1405C30.3821 43.1469 30.3563 43.1533 30.3369 43.1597C30.3175 43.1661 30.2917 43.1725 30.2723 43.1789C30.2529 43.1853 30.227 43.1917 30.2077 43.1981C30.1883 43.2045 30.1624 43.2109 30.143 43.2173C30.1237 43.2237 30.0978 43.2301 30.0784 43.2365C30.059 43.2429 30.0332 43.2493 30.0138 43.2557C29.9944 43.2621 29.9686 43.2685 29.9492 43.2749C29.9298 43.2813 29.904 43.2877 29.8846 43.2941C29.8652 43.3005 29.8393 43.3069 29.82 43.3133C29.8006 43.3197 29.7747 43.3261 29.7553 43.3325C29.736 43.3389 29.7101 43.3453 29.6907 43.3517C29.6713 43.3581 29.6455 43.3645 29.6261 43.3645C29.6067 43.3709 29.5809 43.3773 29.5615 43.3838C29.5421 43.3902 29.5163 43.3966 29.4969 43.3966C29.4775 43.3966 29.4517 43.4094 29.4323 43.4094C29.4129 43.4158 29.387 43.4222 29.3677 43.4222C29.3483 43.4286 29.3224 43.435 29.303 43.435C29.2837 43.4414 29.2578 43.4478 29.2384 43.4478C29.219 43.4542 29.1932 43.4606 29.1738 43.4606C29.1544 43.467 29.1286 43.467 29.1092 43.4734C29.0898 43.4798 29.064 43.4798 29.0446 43.4862C29.0252 43.4926 28.9993 43.4926 28.98 43.499C28.9606 43.5054 28.9347 43.5054 28.9153 43.5118C28.896 43.5182 28.8701 43.5182 28.8507 43.5246C28.8313 43.531 28.8055 43.531 28.7861 43.5374C28.7667 43.5438 28.7409 43.5438 28.7215 43.5502C28.7021 43.5566 28.6763 43.5566 28.6569 43.563C28.6375 43.5694 28.6117 43.5694 28.5923 43.5758C28.5729 43.5822 28.547 43.5822 28.5277 43.5886C28.5083 43.595 28.4824 43.595 28.463 43.6014C28.4437 43.6078 28.4178 43.6078 28.3984 43.6142C28.379 43.6206 28.3532 43.6206 28.3338 43.6271C28.3144 43.6335 28.2886 43.6335 28.2692 43.6399C28.2498 43.6463 28.224 43.6463 28.2046 43.6527C28.1852 43.6591 28.1593 43.6591 28.14 43.6655C28.1206 43.6719 28.0947 43.6719 28.0753 43.6783C28.056 43.6847 28.0301 43.6847 28.0107 43.6911C27.9913 43.6975 27.9655 43.6975 27.9461 43.7039C27.9267 43.7039 27.9009 43.7103 27.8815 43.7167C27.8621 43.7231 27.8363 43.7231 27.8169 43.7295C27.7975 43.7359 27.7717 43.7359 27.7523 43.7359C27.7329 43.7423 27.707 43.7423 27.6877 43.7423C27.6683 43.7423 27.6424 43.7487 27.623 43.7487C27.6037 43.7487 27.5778 43.7551 27.5584 43.7551C27.539 43.7551 27.5132 43.7615 27.4938 43.7615C27.4744 43.7615 27.4486 43.7679 27.4292 43.7679C27.4098 43.7679 27.384 43.7743 27.3646 43.7743C27.3452 43.7743 27.3194 43.7807 27.3 43.7807C27.2806 43.7807 27.2547 43.7871 27.2353 43.7871C27.216 43.7871 27.1901 43.7935 27.1707 43.7935C27.1513 43.7935 27.1255 43.7999 27.1061 43.7999C27.0867 43.7999 27.0609 43.8063 27.0415 43.8063C27.0221 43.8063 26.9963 43.8127 26.9769 43.8127C26.9575 43.8127 26.9317 43.8191 26.9123 43.8191C26.8929 43.8191 26.867 43.8255 26.8477 43.8255C26.8283 43.8255 26.8024 43.8319 26.783 43.8319C26.7637 43.8319 26.7378 43.8383 26.7184 43.8383C26.699 43.8383 26.6732 43.8447 26.6538 43.8447C26.6344 43.8447 26.6086 43.8511 26.5892 43.8511C26.5698 43.8511 26.544 43.8575 26.5246 43.8575C26.5052 43.8575 26.4794 43.8639 26.46 43.8639C26.4406 43.8639 26.4147 43.8703 26.3954 43.8703C26.376 43.8703 26.3501 43.8768 26.3307 43.8768C26.3114 43.8768 26.2855 43.8768 26.2661 43.8832C26.2467 43.8832 26.2209 43.8832 26.2015 43.8896C26.1821 43.8896 26.1563 43.8896 26.1369 43.896C26.1175 43.896 26.0917 43.896 26.0723 43.9024C26.0529 43.9024 26.027 43.9024 26.0077 43.9088C25.9883 43.9088 25.9624 43.9088 25.943 43.9152C25.9237 43.9152 25.8978 43.9152 25.8784 43.9152C25.859 43.9152 25.8332 43.9152 25.8138 43.9152C25.7944 43.9152 25.7686 43.9152 25.7492 43.9152C25.7298 43.9152 25.704 43.9152 25.6846 43.9152C25.6652 43.9152 25.6394 43.9152 25.62 43.9152C25.6006 43.9152 25.5747 43.9152 25.5554 43.9152C25.536 43.9152 25.5101 43.9152 25.4907 43.9152C25.4714 43.9152 25.4455 43.9152 25.4261 43.9152C25.4067 43.9152 25.3809 43.9152 25.3615 43.9152C25.3421 43.9152 25.3163 43.9152 25.2969 43.9152C25.2775 43.9152 25.2517 43.9152 25.2323 43.9152C25.2129 43.9152 25.187 43.9152 25.1677 43.9152C25.1483 43.9152 25.1224 43.9152 25.103 43.9152C25.0837 43.9152 25.0578 43.9152 25.0384 43.9152C25.0255 43.9152 25.0126 43.9152 25.0061 43.9152C24.9867 43.9152 24.9609 43.9152 24.9415 43.9152C24.9221 43.9152 24.8963 43.9152 24.8769 43.9152C24.8575 43.9152 24.8317 43.9152 24.8123 43.9152C24.7929 43.9152 24.767 43.9152 24.7477 43.9152C24.7283 43.9152 24.7024 43.9152 24.683 43.9152C24.6637 43.9152 24.6378 43.9152 24.6184 43.9152C24.599 43.9152 24.5732 43.9152 24.5538 43.9152C24.5344 43.9152 24.5086 43.9152 24.4892 43.9152C24.4698 43.9152 24.444 43.9152 24.4246 43.9152C24.4052 43.9152 24.3794 43.9152 24.36 43.9152C24.3406 43.9152 24.3147 43.9152 24.2954 43.9152C24.276 43.9152 24.2501 43.9152 24.2307 43.9152C24.2114 43.9152 24.1855 43.9152 24.1661 43.9152C24.1467 43.9152 24.1209 43.9152 24.1015 43.9152C24.0821 43.9152 24.0563 43.9152 24.0369 43.9088C24.0175 43.9088 23.9917 43.9088 23.9723 43.9024C23.9529 43.9024 23.927 43.9024 23.9077 43.896C23.8883 43.896 23.8624 43.896 23.843 43.8896C23.8237 43.8896 23.7978 43.8896 23.7784 43.8832C23.759 43.8832 23.7332 43.8832 23.7138 43.8768C23.6944 43.8768 23.6686 43.8768 23.6492 43.8703C23.6298 43.8703 23.604 43.8639 23.5846 43.8639C23.5652 43.8639 23.5394 43.8575 23.52 43.8575C23.5006 43.8575 23.4747 43.8511 23.4554 43.8511C23.436 43.8511 23.4101 43.8447 23.3907 43.8447C23.3714 43.8447 23.3455 43.8383 23.3261 43.8383C23.3067 43.8383 23.2809 43.8319 23.2615 43.8319C23.2421 43.8319 23.2163 43.8255 23.1969 43.8255C23.1775 43.8255 23.1517 43.8191 23.1323 43.8191C23.1129 43.8191 23.087 43.8127 23.0677 43.8127C23.0483 43.8127 23.0224 43.8063 23.003 43.8063C22.9837 43.8063 22.9578 43.7999 22.9384 43.7999C22.919 43.7999 22.8932 43.7935 22.8738 43.7935C22.8544 43.7935 22.8286 43.7871 22.8092 43.7871C22.7898 43.7871 22.764 43.7807 22.7446 43.7807C22.7252 43.7807 22.6994 43.7743 22.68 43.7743C22.6606 43.7743 22.6347 43.7679 22.6154 43.7679C22.596 43.7679 22.5701 43.7615 22.5507 43.7615C22.5314 43.7615 22.5055 43.7551 22.4861 43.7551C22.4667 43.7551 22.4409 43.7487 22.4215 43.7487C22.4021 43.7487 22.3763 43.7423 22.3569 43.7423C22.3375 43.7423 22.3117 43.7359 22.2923 43.7359C22.2729 43.7295 22.247 43.7295 22.2277 43.7295C22.2083 43.7231 22.1824 43.7231 22.163 43.7167C22.1437 43.7103 22.1178 43.7103 22.0984 43.7039C22.079 43.6975 22.0532 43.6975 22.0338 43.6911C22.0144 43.6847 21.9886 43.6847 21.9692 43.6783C21.9498 43.6719 21.924 43.6719 21.9046 43.6655C21.8852 43.6591 21.8594 43.6591 21.84 43.6527C21.8206 43.6463 21.7947 43.6463 21.7754 43.6399C21.756 43.6335 21.7301 43.6335 21.7107 43.6271C21.6914 43.6206 21.6655 43.6206 21.6461 43.6142C21.6267 43.6078 21.6009 43.6078 21.5815 43.6014C21.5621 43.595 21.5363 43.595 21.5169 43.5886C21.4975 43.5822 21.4717 43.5822 21.4523 43.5758C21.4329 43.5694 21.407 43.5694 21.3877 43.563C21.3683 43.5566 21.3424 43.5566 21.3231 43.5502C21.3037 43.5438 21.2778 43.5438 21.2584 43.5374C21.239 43.531 21.2132 43.531 21.1938 43.5246C21.1744 43.5182 21.1486 43.5182 21.1292 43.5118C21.1098 43.5054 21.084 43.5054 21.0646 43.499C21.0452 43.4926 21.0194 43.4926 21 43.4862C20.9806 43.4798 20.9547 43.4798 20.9354 43.4734C20.916 43.467 20.8901 43.467 20.8707 43.4606C20.8514 43.4542 20.8255 43.4478 20.8061 43.4478C20.7867 43.4414 20.7609 43.435 20.7415 43.435C20.7221 43.4286 20.6963 43.4222 20.6769 43.4222C20.6575 43.4158 20.6317 43.4094 20.6123 43.4094C20.5929 43.403 20.5671 43.3966 20.5477 43.3966C20.5283 43.3902 20.5024 43.3838 20.4831 43.3838C20.4637 43.3773 20.4378 43.371 20.4184 43.371C20.3991 43.3645 20.3732 43.3581 20.3538 43.3581C20.3344 43.3517 20.3086 43.3453 20.2892 43.3389C20.2698 43.3325 20.244 43.3261 20.2246 43.3197C20.2052 43.3133 20.1794 43.3069 20.16 43.3005C20.1406 43.2941 20.1147 43.2877 20.0954 43.2813C20.076 43.2749 20.0501 43.2685 20.0307 43.2621C20.0114 43.2557 19.9855 43.2493 19.9661 43.2429C19.9467 43.2365 19.9209 43.2301 19.9015 43.2237C19.8821 43.2173 19.8563 43.2109 19.8369 43.2045C19.8175 43.1981 19.7917 43.1917 19.7723 43.1853C19.7529 43.1789 19.7271 43.1725 19.7077 43.1661C19.6883 43.1597 19.6624 43.1533 19.6431 43.1469C19.6237 43.1405 19.5978 43.1341 19.5784 43.1276C19.5591 43.1212 19.5332 43.1148 19.5138 43.1084C19.4944 43.102 19.4686 43.0956 19.4492 43.0892C19.4298 43.0828 19.404 43.0764 19.3846 43.07C19.3652 43.0636 19.3394 43.0572 19.32 43.0508C19.3006 43.0444 19.2747 43.038 19.2554 43.0316C19.236 43.0252 19.2101 43.0188 19.1907 43.0124C19.1714 43.006 19.1455 42.9996 19.1261 42.9932C19.1067 42.9868 19.0809 42.9804 19.0615 42.974C19.0421 42.9676 19.0163 42.9612 18.9969 42.9548C18.9775 42.9484 18.9517 42.942 18.9323 42.9356C18.9129 42.9292 18.8871 42.9228 18.8677 42.9164C18.8483 42.91 18.8224 42.9036 18.8031 42.8972C18.7837 42.8908 18.7578 42.8844 18.7384 42.878C18.7191 42.8715 18.6932 42.8651 18.6738 42.8587C18.6544 42.8523 18.6286 42.8459 18.6092 42.8395C18.5898 42.8331 18.564 42.8267 18.5446 42.8203C18.5252 42.8139 18.4994 42.8075 18.48 42.8011C18.4606 42.7947 18.4412 42.7883 18.4154 42.7755C18.396 42.7691 18.3766 42.7627 18.3507 42.7499C18.3314 42.7435 18.312 42.7371 18.2861 42.7243C18.2667 42.7179 18.2474 42.7115 18.2215 42.6987C18.2021 42.6923 18.1827 42.6859 18.1569 42.6731C18.1375 42.6667 18.1181 42.6603 18.0923 42.6475C18.0729 42.6411 18.0535 42.6347 18.0277 42.6218C18.0083 42.6154 17.9889 42.609 17.9631 42.5962C17.9437 42.5898 17.9243 42.577 17.8984 42.5706C17.8791 42.5642 17.8597 42.5514 17.8338 42.545C17.8144 42.5386 17.7951 42.5258 17.7692 42.5194C17.7498 42.513 17.7304 42.5002 17.7046 42.4938C17.6852 42.4874 17.6658 42.4746 17.64 42.4682C17.6206 42.4618 17.6012 42.449 17.5754 42.4426C17.556 42.4362 17.5366 42.4234 17.5107 42.417C17.4914 42.4106 17.472 42.3978 17.4461 42.3914C17.4267 42.385 17.4074 42.3721 17.3815 42.3657C17.3621 42.3593 17.3427 42.3465 17.3169 42.3401C17.2975 42.3337 17.2781 42.3209 17.2587 42.3145C17.2394 42.3081 17.22 42.2953 17.2006 42.2889C17.1812 42.2825 17.1618 42.2697 17.1424 42.2633C17.1231 42.2569 17.1037 42.2441 17.0778 42.2377C17.0584 42.2313 17.0391 42.2185 17.0197 42.2121C17.0003 42.2057 16.9809 42.1929 16.9615 42.1865C16.9421 42.1801 16.9227 42.1673 16.9034 42.1609C16.884 42.1545 16.8646 42.1417 16.8452 42.1353C16.8258 42.1288 16.8064 42.116 16.7871 42.1096C16.7677 42.1032 16.7483 42.0904 16.7289 42.084C16.7095 42.0776 16.6901 42.0648 16.6707 42.0584C16.6514 42.052 16.632 42.0392 16.6126 42.0328C16.5932 42.0264 16.5738 42.0136 16.5544 42.0072C16.5351 42.0008 16.5157 41.988 16.4963 41.9816C16.4769 41.9688 16.4575 41.9624 16.4381 41.9496C16.4187 41.9368 16.3994 41.9304 16.38 41.9176C16.3606 41.9048 16.3412 41.8984 16.3218 41.8856C16.3024 41.8728 16.2831 41.8663 16.2637 41.8535C16.2443 41.8407 16.2249 41.8343 16.2055 41.8215C16.1861 41.8087 16.1667 41.8023 16.1474 41.7895C16.128 41.7767 16.1086 41.7703 16.0892 41.7575C16.0698 41.7447 16.0504 41.7383 16.0311 41.7255C16.0117 41.7127 15.9923 41.7063 15.9729 41.6935C15.9535 41.6807 15.9341 41.6743 15.9147 41.6615C15.8954 41.6487 15.876 41.6423 15.8566 41.6295C15.8372 41.6166 15.8178 41.6102 15.7984 41.5974C15.7791 41.5846 15.7597 41.5782 15.7403 41.5654C15.7209 41.5526 15.7015 41.5462 15.6821 41.5334C15.6627 41.5206 15.6434 41.5142 15.624 41.5014C15.6046 41.4886 15.5852 41.4822 15.5658 41.4694C15.5464 41.4566 15.5271 41.4502 15.5077 41.4374C15.4883 41.4246 15.4689 41.4182 15.4495 41.4054C15.4301 41.3926 15.4107 41.3862 15.3914 41.3734C15.372 41.3605 15.3526 41.3541 15.3332 41.3413C15.3138 41.3285 15.2944 41.3221 15.2751 41.3093C15.2557 41.2965 15.2363 41.2901 15.2169 41.2773C15.1975 41.2645 15.1781 41.2581 15.1587 41.2453C15.1394 41.2325 15.12 41.2261 15.1006 41.2133C15.0812 41.2005 15.0618 41.1877 15.0424 41.1813C15.0231 41.1685 15.0037 41.1557 14.9843 41.1493C14.9649 41.1365 14.9455 41.1236 14.9261 41.1172C14.9068 41.1044 14.8874 41.0916 14.868 41.0852C14.8486 41.0724 14.8292 41.0596 14.8098 41.0532C14.7904 41.0404 14.7711 41.0276 14.7517 41.0212C14.7323 41.0084 14.7129 40.9956 14.6935 40.9892C14.6741 40.9764 14.6548 40.9636 14.6354 40.9572C14.616 40.9444 14.5966 40.9316 14.5772 40.9188C14.5578 40.906 14.5384 40.8932 14.5191 40.8804C14.4997 40.8675 14.4803 40.8547 14.4609 40.8419C14.4415 40.8291 14.4221 40.8163 14.4028 40.8035C14.3834 40.7907 14.364 40.7779 14.3446 40.7651C14.3252 40.7523 14.3058 40.7395 14.2864 40.7267C14.2671 40.7139 14.2477 40.7011 14.2283 40.6883C14.2089 40.6755 14.1895 40.6627 14.1701 40.6499C14.1508 40.6371 14.1314 40.6242 14.112 40.6114C14.0926 40.5986 14.0732 40.5858 14.0538 40.573C14.0344 40.5602 14.0151 40.5474 13.9957 40.5346C13.9763 40.5218 13.9569 40.509 13.9375 40.4962C13.9181 40.4834 13.8988 40.4706 13.8794 40.4578C13.86 40.445 13.8406 40.4322 13.8277 40.4194C13.8083 40.4066 13.7889 40.3938 13.776 40.381C13.7566 40.3681 13.7372 40.3553 13.7243 40.3425C13.7049 40.3297 13.6855 40.3169 13.6726 40.3041C13.6532 40.2913 13.6338 40.2785 13.6209 40.2657C13.6015 40.2529 13.5821 40.2401 13.5692 40.2273C13.5498 40.2145 13.5304 40.2017 13.5175 40.1889C13.4981 40.1761 13.4788 40.1633 13.4658 40.1505C13.4464 40.1377 13.4271 40.1248 13.4141 40.112C13.3948 40.0992 13.3754 40.0864 13.3624 40.0736C13.3431 40.0608 13.3237 40.048 13.3108 40.0352C13.2914 40.0224 13.272 40.0096 13.2591 39.9968C13.2397 39.984 13.2203 39.9712 13.2074 39.9584C13.188 39.9456 13.1686 39.9328 13.1557 39.92C13.1363 39.9072 13.1234 39.8944 13.104 39.8816C13.0846 39.8687 13.0717 39.8559 13.0523 39.8431C13.0329 39.8303 13.02 39.8175 13.0006 39.8047C12.9812 39.7919 12.9683 39.7791 12.9489 39.7663C12.9295 39.7535 12.9166 39.7407 12.8972 39.7279C12.8778 39.7151 12.8649 39.7023 12.8455 39.6895C12.8261 39.6767 12.8132 39.6639 12.7938 39.6511C12.7744 39.6383 12.7615 39.6255 12.7421 39.6126C12.7228 39.5998 12.7098 39.587 12.6904 39.5678C12.6711 39.555 12.6581 39.5422 12.6388 39.523C12.6194 39.5102 12.6064 39.4974 12.5871 39.4782C12.5677 39.4654 12.5548 39.4526 12.5354 39.4334C12.516 39.4206 12.5031 39.4078 12.4837 39.3886C12.4643 39.3758 12.4514 39.3629 12.432 39.3437C12.4126 39.3309 12.3997 39.3181 12.3803 39.2989C12.3609 39.2861 12.348 39.2733 12.3286 39.2541C12.3092 39.2413 12.2963 39.2285 12.2769 39.2093C12.2575 39.1965 12.2446 39.1837 12.2252 39.1645C12.2058 39.1517 12.1929 39.1325 12.1735 39.1196C12.1541 39.1068 12.1412 39.0876 12.1218 39.0748C12.1024 39.062 12.0895 39.0428 12.0701 39.03C12.0508 39.0172 12.0378 38.998 12.0184 38.9852C11.9991 38.9724 11.9861 38.9532 11.9668 38.9404C11.9474 38.9276 11.9344 38.9084 11.9151 38.8956C11.8957 38.8828 11.8828 38.8635 11.8634 38.8507C11.844 38.8379 11.8311 38.8187 11.8117 38.8059C11.7923 38.7931 11.7794 38.7739 11.76 38.7611C11.7406 38.7483 11.7277 38.7291 11.7083 38.7163C11.6889 38.7035 11.676 38.6843 11.6566 38.6715C11.6372 38.6587 11.6243 38.6395 11.6049 38.6266C11.592 38.6138 11.5726 38.5946 11.5532 38.5818C11.5338 38.569 11.5209 38.5498 11.5015 38.537C11.4886 38.5242 11.4692 38.505 11.4563 38.4922C11.4434 38.4794 11.424 38.4602 11.4111 38.4474C11.3917 38.4346 11.3788 38.4154 11.3658 38.4026C11.3529 38.3898 11.3335 38.3705 11.3206 38.3577C11.3077 38.3449 11.2883 38.3257 11.2754 38.3129C11.2624 38.3001 11.2431 38.2809 11.2301 38.2681C11.2172 38.2553 11.1978 38.2361 11.1849 38.2233C11.172 38.2105 11.1526 38.1913 11.1397 38.1785C11.1268 38.1657 11.1074 38.1465 11.0944 38.1337C11.0815 38.1208 11.0621 38.1016 11.0492 38.0888C11.0363 38.076 11.0169 38.0568 11.004 38.044C10.9911 38.0312 10.9717 38.012 10.9588 37.9992C10.9458 37.9864 10.9264 37.9672 10.9135 37.9544C10.9006 37.9416 10.8812 37.9224 10.8683 37.9096C10.8554 37.8904 10.836 37.8776 10.8231 37.8583C10.8101 37.8391 10.7908 37.8263 10.7778 37.8071C10.7649 37.7879 10.7455 37.7751 10.7326 37.7559C10.7197 37.7367 10.7003 37.7239 10.6874 37.7047C10.6744 37.6855 10.6551 37.6727 10.6421 37.6535C10.6292 37.6343 10.6098 37.6214 10.5969 37.6022C10.584 37.583 10.5646 37.5702 10.5517 37.551C10.5388 37.5318 10.5194 37.519 10.5064 37.4998C10.4935 37.4806 10.4741 37.4678 10.4612 37.4486C10.4483 37.4294 10.4289 37.4166 10.416 37.3974C10.4031 37.3781 10.3837 37.3653 10.3708 37.3461C10.3578 37.3269 10.3384 37.3141 10.3255 37.2949C10.3126 37.2757 10.2932 37.2629 10.2803 37.2437C10.2674 37.2245 10.248 37.2117 10.2351 37.1925C10.2221 37.1733 10.2092 37.1605 10.1898 37.1413C10.1769 37.122 10.164 37.1092 10.1446 37.09C10.1317 37.0708 10.1188 37.058 10.0994 37.0388C10.0864 37.0196 10.0735 37.0068 10.0541 36.9876C10.0412 36.9684 10.0283 36.9556 10.0089 36.9364C9.99599 36.9172 9.98306 36.9044 9.96368 36.8852C9.95076 36.8659 9.93783 36.8531 9.91845 36.8339C9.90553 36.8147 9.8926 36.8019 9.87322 36.7827C9.8603 36.7635 9.84737 36.7507 9.82799 36.7315C9.81506 36.7123 9.80214 36.6995 9.78276 36.6803C9.76983 36.6611 9.75691 36.6483 9.73753 36.629C9.7246 36.6098 9.71168 36.597 9.69876 36.5778C9.68583 36.5586 9.67291 36.5458 9.65999 36.5266C9.64706 36.5074 9.63414 36.4946 9.62122 36.4754C9.60829 36.4562 9.59537 36.4434 9.58245 36.4242C9.56953 36.405 9.5566 36.3922 9.54368 36.3729C9.53076 36.3537 9.51783 36.3409 9.50491 36.3217C9.49199 36.3025 9.47906 36.2897 9.46614 36.2705C9.45322 36.2513 9.4403 36.2385 9.42737 36.2193C9.41445 36.2001 9.40153 36.1873 9.3886 36.1681C9.37568 36.1489 9.36276 36.1296 9.34983 36.1168C9.33691 36.0976 9.32399 36.0784 9.31107 36.0656C9.29814 36.0464 9.28522 36.0272 9.2723 36.0144C9.25937 35.9952 9.24645 35.976 9.23353 35.9632C9.2206 35.944 9.20768 35.9248 9.19476 35.912C9.18183 35.8928 9.16891 35.8735 9.15599 35.8607C9.14307 35.8415 9.13014 35.8223 9.11722 35.8095C9.1043 35.7903 9.09137 35.7711 9.07845 35.7583C9.06553 35.7391 9.0526 35.7199 9.03968 35.7071C9.02676 35.6879 9.01383 35.6687 9.00091 35.6559C8.98799 35.6367 8.97506 35.6174 8.96214 35.6046C8.94922 35.5854 8.9363 35.5662 8.92337 35.5534C8.91045 35.5342 8.89753 35.515 8.8846 35.4958C8.87168 35.4766 8.85876 35.4574 8.84583 35.4382C8.83291 35.419 8.81999 35.3998 8.80707 35.3806C8.79414 35.3613 8.78122 35.3421 8.7683 35.3229C8.75537 35.3037 8.74245 35.2845 8.72953 35.2653C8.7166 35.2461 8.70368 35.2269 8.69076 35.2077C8.67783 35.1885 8.66491 35.1693 8.65199 35.1501C8.63907 35.1309 8.62614 35.1116 8.61322 35.0924C8.6003 35.0732 8.58737 35.054 8.57445 35.0348C8.56153 35.0156 8.54861 34.9964 8.53568 34.9772C8.52276 34.958 8.50984 34.9388 8.49691 34.9196C8.48399 34.9004 8.47107 34.8812 8.45814 34.8619C8.44522 34.8427 8.4323 34.8235 8.41937 34.8043C8.40645 34.7851 8.39353 34.7659 8.3806 34.7467C8.36768 34.7275 8.35476 34.7083 8.3483 34.6891C8.33537 34.6699 8.32245 34.6507 8.31599 34.6315C8.30307 34.6122 8.29014 34.593 8.28368 34.5738C8.27076 34.5546 8.25784 34.5354 8.25137 34.5162C8.23845 34.497 8.22553 34.4778 8.21907 34.4586C8.20614 34.4394 8.19322 34.4202 8.18676 34.401C8.1803 34.3818 8.16091 34.3625 8.15445 34.3433C8.14153 34.3241 8.1286 34.3049 8.12214 34.2857C8.10922 34.2665 8.0963 34.2473 8.08984 34.2281C8.07691 34.2089 8.07045 34.1897 8.05753 34.1705C8.04461 34.1513 8.03814 34.1321 8.02522 34.1128C8.0123 34.0936 8.00584 34.0744 7.99291 34.0552C7.97999 34.036 7.97353 34.0168 7.96061 33.9976C7.94768 33.9784 7.94122 33.9592 7.9283 33.94C7.91537 33.9208 7.90891 33.9016 7.89599 33.8824C7.88307 33.8631 7.8766 33.8439 7.86368 33.8247C7.85076 33.8055 7.8443 33.7863 7.83137 33.7671C7.81845 33.7479 7.81199 33.7287 7.79907 33.7095C7.78614 33.6903 7.77968 33.6711 7.76676 33.6519C7.75384 33.6327 7.74737 33.6134 7.73445 33.5942C7.72153 33.575 7.71507 33.5558 7.70214 33.5366C7.68922 33.5174 7.68276 33.4982 7.66984 33.479C7.65691 33.4598 7.65045 33.4406 7.63753 33.4214C7.62461 33.4022 7.61814 33.383 7.60522 33.3637C7.5923 33.3445 7.58584 33.3253 7.57291 33.3061C7.55999 33.2869 7.55353 33.2677 7.54061 33.2485C7.52768 33.2293 7.52122 33.2101 7.5083 33.1909C7.49537 33.1717 7.48891 33.1525 7.47599 33.1333C7.46307 33.114 7.45661 33.0948 7.44368 33.0756C7.43076 33.0564 7.4243 33.0372 7.41138 33.018C7.39845 32.9988 7.39199 32.9796 7.37907 32.9604C7.37261 32.9412 7.35968 32.922 7.35322 32.9028C7.3403 32.8836 7.33384 32.8643 7.32738 32.8451C7.32091 32.8259 7.30799 32.8067 7.30153 32.7875C7.29507 32.7683 7.28214 32.7491 7.27568 32.7299C7.26922 32.7107 7.2563 32.6915 7.24984 32.6723C7.24338 32.6531 7.23045 32.6339 7.22399 32.6146C7.21753 32.5954 7.20461 32.5762 7.19814 32.557C7.19168 32.5378 7.17876 32.5186 7.1723 32.4994C7.16584 32.4802 7.15291 32.461 7.14645 32.4418C7.13999 32.4226 7.12707 32.4034 7.12061 32.3842C7.11414 32.3649 7.10122 32.3457 7.09476 32.3265C7.0883 32.3073 7.07538 32.2881 7.06891 32.2689C7.06245 32.2497 7.04953 32.2305 7.04307 32.2113C7.03661 32.1921 7.02368 32.1729 7.01722 32.1537C7.01076 32.1345 6.99784 32.1152 6.99138 32.0896C6.98491 32.0704 6.97199 32.0512 6.96553 32.0256C6.95907 32.0064 6.94614 31.9872 6.93968 31.9616C6.93322 31.9424 6.9203 31.9232 6.91384 31.8976C6.90738 31.8784 6.89445 31.8591 6.88799 31.8335C6.88153 31.8143 6.86861 31.7951 6.86215 31.7695C6.85568 31.7503 6.84276 31.7311 6.8363 31.7055C6.82984 31.6863 6.81691 31.6671 6.81045 31.6415C6.80399 31.6223 6.79107 31.603 6.78461 31.5774C6.77815 31.5582 6.76522 31.539 6.75876 31.5134C6.7523 31.4942 6.73938 31.475 6.73291 31.4494C6.72645 31.4302 6.71999 31.411 6.70707 31.3854C6.70061 31.3661 6.69415 31.3469 6.68122 31.3213C6.67476 31.3021 6.6683 31.2829 6.65538 31.2573C6.64891 31.2381 6.64245 31.2189 6.62953 31.1933C6.62307 31.1741 6.61661 31.1549 6.60368 31.1293C6.59722 31.11 6.59076 31.0908 6.57784 31.0652C6.57138 31.046 6.56491 31.0268 6.55199 31.0012C6.54553 30.982 6.53907 30.9564 6.52615 30.9372C6.51968 30.918 6.51322 30.8988 6.50676 30.8731C6.5003 30.8539 6.49384 30.8347 6.48738 30.8091C6.48092 30.7899 6.47445 30.7643 6.46799 30.7451C6.46153 30.7259 6.45507 30.7003 6.44861 30.6811C6.44215 30.6619 6.43568 30.6363 6.42922 30.617C6.42276 30.5978 6.4163 30.5722 6.40984 30.553C6.40338 30.5338 6.39691 30.5082 6.39045 30.489C6.38399 30.4698 6.37753 30.4442 6.37107 30.425C6.36461 30.4058 6.35815 30.3802 6.35168 30.3609C6.34522 30.3417 6.33876 30.3161 6.3323 30.2969C6.32584 30.2777 6.31938 30.2521 6.31291 30.2329C6.30645 30.2137 6.29999 30.1881 6.29353 30.1689C6.28707 30.1497 6.28061 30.1241 6.27415 30.1048C6.26768 30.0856 6.26122 30.06 6.25476 30.0408C6.2483 30.0216 6.24184 29.996 6.23538 29.9768C6.22892 29.9576 6.22245 29.932 6.21599 29.9128C6.20953 29.8936 6.20307 29.8679 6.19661 29.8487C6.19015 29.8295 6.18368 29.8039 6.17722 29.7847C6.17076 29.7655 6.1643 29.7399 6.15784 29.7207C6.15138 29.7015 6.14492 29.6759 6.13845 29.6567C6.13199 29.6375 6.12553 29.6118 6.11907 29.5926C6.11261 29.5734 6.10615 29.5478 6.09968 29.5286C6.09322 29.5094 6.08676 29.4838 6.0803 29.4646C6.07384 29.4454 6.06738 29.4198 6.06092 29.4006C6.05445 29.3814 6.04799 29.3557 6.04153 29.3365C6.03507 29.3173 6.02861 29.2917 6.02215 29.2725C6.01568 29.2533 6.00922 29.2277 6.00276 29.2085C5.9963 29.1893 5.98984 29.1637 5.98338 29.1445C5.97692 29.1253 5.97045 29.0996 5.97045 29.0804C5.96399 29.0612 5.95753 29.0356 5.95107 29.0164C5.94461 28.9972 5.93815 28.9716 5.93815 28.9524C5.93168 28.9332 5.92522 28.9076 5.92522 28.8884C5.91876 28.8691 5.9123 28.8435 5.9123 28.8243C5.90584 28.8051 5.89938 28.7795 5.89938 28.7603C5.89938 28.7411 5.88645 28.7155 5.88645 28.6963C5.87999 28.6771 5.87353 28.6515 5.87353 28.6323C5.86707 28.613 5.86707 28.5874 5.86061 28.5682C5.85415 28.549 5.85415 28.5234 5.84768 28.5042C5.84122 28.485 5.84122 28.4594 5.83476 28.4402C5.8283 28.421 5.8283 28.3954 5.82184 28.3762C5.81538 28.3569 5.81538 28.3313 5.80892 28.3121C5.80245 28.2929 5.80245 28.2673 5.79599 28.2481C5.78953 28.2289 5.78953 28.2033 5.78307 28.1841C5.77661 28.1649 5.77661 28.1393 5.77015 28.12C5.76369 28.1008 5.76368 28.0752 5.75722 28.056C5.75076 28.0368 5.75076 28.0112 5.7443 27.992C5.73784 27.9728 5.73784 27.9472 5.73138 27.928C5.72492 27.9088 5.72492 27.8832 5.71845 27.8639C5.71199 27.8447 5.71199 27.8191 5.70553 27.7999C5.69907 27.7807 5.69907 27.7551 5.69261 27.7359C5.68615 27.7167 5.68615 27.6911 5.67969 27.6719C5.67322 27.6527 5.67322 27.6271 5.66676 27.6078C5.6603 27.5886 5.6603 27.563 5.65384 27.5438C5.64738 27.5246 5.64738 27.499 5.64092 27.4798C5.63445 27.4606 5.63445 27.435 5.62799 27.4158C5.62153 27.3966 5.62153 27.3709 5.61507 27.3517C5.60861 27.3325 5.60861 27.3069 5.60215 27.2877C5.59568 27.2685 5.59569 27.2429 5.59569 27.2237C5.59569 27.2045 5.58922 27.1789 5.58922 27.1597C5.58922 27.1405 5.58276 27.1148 5.58276 27.0956C5.58276 27.0764 5.5763 27.0508 5.5763 27.0316C5.5763 27.0124 5.56984 26.9868 5.56984 26.9676C5.56984 26.9484 5.56338 26.9228 5.56338 26.9036C5.56338 26.8844 5.55692 26.8587 5.55692 26.8395C5.55692 26.8203 5.55045 26.7947 5.55045 26.7755C5.55045 26.7563 5.54399 26.7307 5.54399 26.7115C5.54399 26.6923 5.53753 26.6667 5.53753 26.6475C5.53753 26.6283 5.53107 26.6026 5.53107 26.5834C5.53107 26.5642 5.52461 26.5386 5.52461 26.5194C5.52461 26.5002 5.51815 26.4746 5.51815 26.4554C5.51815 26.4362 5.51169 26.4106 5.51169 26.3914C5.51169 26.3721 5.50522 26.3465 5.50522 26.3273C5.50522 26.3081 5.49876 26.2825 5.49876 26.2633C5.49876 26.2441 5.4923 26.2185 5.4923 26.1993C5.4923 26.1801 5.48584 26.1545 5.48584 26.1353C5.48584 26.116 5.47938 26.0904 5.47938 26.0712C5.47938 26.052 5.47292 26.0264 5.47292 26.0072C5.47292 25.988 5.46645 25.9624 5.46645 25.9432C5.46645 25.924 5.45999 25.8984 5.45999 25.8792C5.45999 25.8599 5.45353 25.8343 5.45353 25.8151C5.45353 25.7959 5.45353 25.7703 5.44707 25.7511C5.44707 25.7319 5.44707 25.7063 5.44061 25.6871C5.44061 25.6679 5.44061 25.6423 5.43415 25.623C5.43415 25.6038 5.43415 25.5782 5.42769 25.559C5.42769 25.5398 5.42769 25.5142 5.42122 25.495C5.42122 25.4758 5.42122 25.4502 5.41476 25.431C5.41476 25.4118 5.41476 25.3862 5.41476 25.3669C5.41476 25.3477 5.41476 25.3221 5.41476 25.3029C5.41476 25.2837 5.41476 25.2581 5.41476 25.2389C5.41476 25.2197 5.41476 25.1941 5.41476 25.1749C5.41476 25.1557 5.41476 25.1301 5.41476 25.1108C5.41476 25.0916 5.41476 25.066 5.41476 25.0468C5.41476 25.0276 5.41476 25.002 5.41476 24.9828C5.41476 24.9636 5.41476 24.938 5.41476 24.9188C5.41476 24.8996 5.41476 24.8739 5.41476 24.8547C5.41476 24.8355 5.41476 24.8099 5.41476 24.7907C5.41476 24.7715 5.41476 24.7459 5.41476 24.7267C5.41476 24.7075 5.41476 24.6819 5.41476 24.6627C5.41476 24.6435 5.41476 24.6178 5.41476 24.5986C5.41476 24.5794 5.41476 24.5538 5.41476 24.5346C5.41476 24.5218 5.41476 24.509 5.41476 24.5026C5.41476 24.4834 5.41476 24.4578 5.41476 24.4386C5.41476 24.4194 5.41476 24.3938 5.41476 24.3745C5.41476 24.3553 5.41476 24.3297 5.41476 24.3105C5.41476 24.2913 5.41476 24.2657 5.41476 24.2465C5.41476 24.2273 5.41476 24.2017 5.41476 24.1825C5.41476 24.1633 5.41476 24.1377 5.41476 24.1184C5.41476 24.0992 5.41476 24.0736 5.41476 24.0544C5.41476 24.0352 5.41476 24.0096 5.41476 23.9904C5.41476 23.9712 5.41476 23.9456 5.41476 23.9264C5.41476 23.9072 5.41476 23.8816 5.41476 23.8623C5.41476 23.8431 5.41476 23.8175 5.41476 23.7983C5.41476 23.7791 5.41476 23.7535 5.41476 23.7343C5.41476 23.7151 5.41476 23.6895 5.41476 23.6703C5.41476 23.6511 5.41476 23.6255 5.41476 23.6062C5.41476 23.587 5.41476 23.5614 5.42122 23.5422C5.42122 23.523 5.42122 23.4974 5.42769 23.4782C5.42769 23.459 5.42769 23.4334 5.43415 23.4142C5.43415 23.395 5.43415 23.3693 5.44061 23.3501C5.44061 23.3309 5.44061 23.3053 5.44707 23.2861C5.44707 23.2669 5.44707 23.2413 5.45353 23.2221C5.45353 23.2029 5.45999 23.1773 5.45999 23.1581C5.45999 23.1389 5.46645 23.1132 5.46645 23.094C5.46645 23.0748 5.47292 23.0492 5.47292 23.03C5.47292 23.0108 5.47938 22.9852 5.47938 22.966C5.47938 22.9468 5.48584 22.9212 5.48584 22.902C5.48584 22.8828 5.4923 22.8571 5.4923 22.8379C5.4923 22.8187 5.49876 22.7931 5.49876 22.7739C5.49876 22.7547 5.50522 22.7291 5.50522 22.7099C5.50522 22.6907 5.51169 22.6651 5.51169 22.6459C5.51169 22.6267 5.51815 22.601 5.51815 22.5818C5.51815 22.5626 5.52461 22.537 5.52461 22.5178C5.52461 22.4986 5.53107 22.473 5.53107 22.4538C5.53107 22.4346 5.53753 22.409 5.53753 22.3898C5.53753 22.3705 5.54399 22.3449 5.54399 22.3257C5.54399 22.3065 5.55045 22.2809 5.55045 22.2617C5.55045 22.2425 5.55692 22.2169 5.55692 22.1977C5.55692 22.1785 5.56338 22.1529 5.56338 22.1337C5.56338 22.1144 5.56984 22.0888 5.56984 22.0696C5.56984 22.0504 5.5763 22.0248 5.5763 22.0056C5.5763 21.9864 5.58276 21.9608 5.58276 21.9416C5.58276 21.9224 5.58922 21.8968 5.58922 21.8776C5.59568 21.8583 5.59569 21.8327 5.59569 21.8135C5.59569 21.7943 5.60215 21.7687 5.60215 21.7495C5.60861 21.7303 5.60861 21.7047 5.61507 21.6855C5.62153 21.6663 5.62153 21.6407 5.62799 21.6214C5.63445 21.6022 5.63445 21.5766 5.64092 21.5574C5.64092 21.5382 5.64738 21.5126 5.65384 21.4934C5.6603 21.4742 5.6603 21.4486 5.66676 21.4294C5.67322 21.4102 5.67322 21.3846 5.67969 21.3653C5.68615 21.3461 5.68615 21.3205 5.69261 21.3013C5.69907 21.2821 5.69907 21.2565 5.70553 21.2373C5.71199 21.2181 5.71199 21.1925 5.71845 21.1733C5.72492 21.1541 5.72492 21.1285 5.73138 21.1092C5.73784 21.09 5.73784 21.0644 5.7443 21.0452C5.75076 21.026 5.75076 21.0004 5.75722 20.9812C5.76368 20.962 5.76369 20.9364 5.77015 20.9172C5.77661 20.898 5.77661 20.8723 5.78307 20.8531C5.78953 20.8339 5.78953 20.8083 5.79599 20.7891C5.80245 20.7699 5.80245 20.7443 5.80892 20.7251C5.81538 20.7059 5.81538 20.6803 5.82184 20.6611C5.8283 20.6419 5.8283 20.6162 5.83476 20.597C5.84122 20.5778 5.84122 20.5522 5.84768 20.533C5.85415 20.5138 5.85415 20.4882 5.86061 20.469C5.86707 20.4498 5.86707 20.4242 5.87353 20.405C5.87999 20.3858 5.87999 20.3601 5.88645 20.3409C5.89292 20.3217 5.89938 20.2961 5.89938 20.2769C5.90584 20.2577 5.9123 20.2321 5.9123 20.2129C5.9123 20.1937 5.92522 20.1681 5.92522 20.1489C5.93168 20.1297 5.93815 20.104 5.93815 20.0848C5.94461 20.0656 5.95107 20.04 5.95107 20.0208C5.95753 20.0016 5.96399 19.976 5.96399 19.9568C5.97045 19.9376 5.97692 19.912 5.98338 19.8928C5.98984 19.8736 5.9963 19.8479 6.00276 19.8287C6.00922 19.8095 6.01568 19.7839 6.02215 19.7647C6.02861 19.7455 6.03507 19.7199 6.04153 19.7007C6.04799 19.6815 6.05445 19.6559 6.06092 19.6367C6.06738 19.6174 6.07384 19.5918 6.0803 19.5726C6.08676 19.5534 6.09322 19.5278 6.09968 19.5086C6.10615 19.4894 6.11261 19.4638 6.11907 19.4446C6.12553 19.4254 6.13199 19.3998 6.13845 19.3806C6.14492 19.3613 6.15138 19.3357 6.15784 19.3165C6.1643 19.2973 6.17076 19.2717 6.17722 19.2525C6.18368 19.2333 6.19015 19.2077 6.19661 19.1885C6.20307 19.1693 6.20953 19.1437 6.21599 19.1244C6.22245 19.1052 6.22892 19.0796 6.23538 19.0604C6.24184 19.0412 6.2483 19.0156 6.25476 18.9964C6.26122 18.9772 6.26768 18.9516 6.27415 18.9324C6.28061 18.9132 6.28707 18.8876 6.29353 18.8683C6.29999 18.8491 6.30645 18.8235 6.31291 18.8043C6.31938 18.7851 6.32584 18.7595 6.3323 18.7403C6.33876 18.7211 6.34522 18.6955 6.35168 18.6763C6.35815 18.6571 6.36461 18.6315 6.37107 18.6122C6.37753 18.593 6.38399 18.5674 6.39045 18.5482C6.39691 18.529 6.40338 18.5034 6.40984 18.4842C6.4163 18.465 6.42276 18.4394 6.42922 18.4202C6.43568 18.401 6.44215 18.3753 6.44861 18.3561C6.45507 18.3369 6.46153 18.3113 6.46799 18.2921C6.47445 18.2729 6.48092 18.2473 6.48738 18.2281C6.49384 18.2089 6.5003 18.1897 6.50676 18.1641C6.51322 18.1449 6.51968 18.1192 6.52615 18.1C6.53261 18.0808 6.53907 18.0616 6.54553 18.036C6.55199 18.0168 6.55845 17.9912 6.56491 17.972C6.57138 17.9528 6.57784 17.9336 6.59076 17.908C6.59722 17.8888 6.60368 17.8695 6.61661 17.8439C6.62307 17.8247 6.62953 17.8055 6.64245 17.7799C6.64891 17.7607 6.65538 17.7415 6.6683 17.7159C6.67476 17.6967 6.68122 17.6775 6.69415 17.6519C6.70061 17.6327 6.70707 17.6134 6.71999 17.5878C6.72645 17.5686 6.73938 17.5494 6.74584 17.5238C6.7523 17.5046 6.76522 17.4854 6.77168 17.4598C6.77815 17.4406 6.79107 17.4214 6.79753 17.3958C6.80399 17.3766 6.81691 17.3573 6.82338 17.3317C6.82984 17.3125 6.84276 17.2933 6.84922 17.2677C6.85568 17.2485 6.86861 17.2293 6.87507 17.2037C6.88153 17.1845 6.89445 17.1653 6.90091 17.1397C6.90738 17.1204 6.9203 17.1012 6.92676 17.0756C6.93322 17.0564 6.94614 17.0372 6.95261 17.0116C6.95907 16.9924 6.97199 16.9732 6.97845 16.9476C6.98491 16.9284 6.99784 16.9092 7.0043 16.89C7.01076 16.8707 7.02368 16.8515 7.03014 16.8259C7.03661 16.8067 7.04953 16.7875 7.05599 16.7683C7.06245 16.7491 7.07538 16.7299 7.08184 16.7107C7.0883 16.6915 7.10122 16.6723 7.10768 16.6531C7.11414 16.6339 7.12707 16.6146 7.13353 16.5954C7.13999 16.5762 7.15291 16.557 7.15938 16.5378C7.16584 16.5186 7.17876 16.4994 7.18522 16.4802C7.19168 16.461 7.20461 16.4418 7.21107 16.4226C7.21753 16.4034 7.23045 16.3842 7.23691 16.3649C7.24338 16.3457 7.2563 16.3265 7.26276 16.3073C7.26922 16.2881 7.28214 16.2689 7.28861 16.2497C7.29507 16.2305 7.30799 16.2113 7.31445 16.1921C7.32091 16.1729 7.33384 16.1537 7.3403 16.1345C7.35322 16.1152 7.35968 16.096 7.37261 16.0768C7.37907 16.0576 7.39199 16.0384 7.40491 16.0192C7.41784 16 7.4243 15.9808 7.43722 15.9616C7.45014 15.9424 7.45661 15.9232 7.46953 15.904C7.48245 15.8848 7.48891 15.8655 7.50184 15.8463C7.51476 15.8271 7.52122 15.8079 7.53414 15.7887C7.54707 15.7695 7.55353 15.7503 7.56645 15.7311C7.57937 15.7119 7.58584 15.6927 7.59876 15.6735C7.61168 15.6543 7.61814 15.6351 7.63107 15.6158C7.64399 15.5966 7.65045 15.5774 7.66338 15.5582C7.6763 15.539 7.68276 15.5198 7.69568 15.5006C7.70861 15.4814 7.71507 15.4622 7.72799 15.443C7.74091 15.4238 7.74737 15.4046 7.7603 15.3854C7.77322 15.3661 7.77968 15.3469 7.79261 15.3277C7.80553 15.3085 7.81199 15.2893 7.82491 15.2701C7.83784 15.2509 7.8443 15.2317 7.85722 15.2125C7.87014 15.1933 7.8766 15.1741 7.88953 15.1549C7.90245 15.1357 7.90891 15.1164 7.92184 15.0972C7.93476 15.078 7.94122 15.0588 7.95414 15.0396C7.96707 15.0204 7.97353 15.0012 7.98645 14.982C7.99937 14.9628 8.00584 14.9436 8.01876 14.9244C8.03168 14.9052 8.03814 14.886 8.05107 14.8667C8.06399 14.8475 8.07045 14.8283 8.08337 14.8091C8.0963 14.7899 8.10276 14.7707 8.11568 14.7515C8.1286 14.7323 8.14153 14.7131 8.14799 14.6939C8.16091 14.6747 8.17384 14.6555 8.1803 14.6363C8.19322 14.617 8.20614 14.5978 8.21261 14.5786C8.22553 14.5594 8.23845 14.5402 8.24491 14.521C8.25784 14.5018 8.27076 14.4826 8.27722 14.4634C8.29014 14.4442 8.30307 14.425 8.30953 14.4058C8.32245 14.3866 8.33537 14.3673 8.34184 14.3481C8.35476 14.3289 8.36768 14.3097 8.37414 14.2905C8.38707 14.2713 8.39999 14.2521 8.41291 14.2329C8.42583 14.2137 8.43876 14.1945 8.45168 14.1753C8.4646 14.1561 8.47753 14.1369 8.49045 14.1176C8.50337 14.0984 8.5163 14.0792 8.52922 14.06C8.54214 14.0408 8.55507 14.0216 8.56799 14.0024C8.58091 13.9832 8.59384 13.964 8.60676 13.9448C8.61968 13.9256 8.6326 13.9064 8.64553 13.8872C8.65845 13.8679 8.67137 13.8487 8.6843 13.8295C8.69722 13.8103 8.71014 13.7911 8.72307 13.7719C8.73599 13.7527 8.74891 13.7335 8.76184 13.7143C8.77476 13.6951 8.78768 13.6759 8.8006 13.6567C8.81353 13.6375 8.82645 13.6182 8.83937 13.599C8.8523 13.5798 8.86522 13.5606 8.87814 13.5414C8.89107 13.5222 8.90399 13.503 8.91691 13.4838C8.92983 13.4646 8.94276 13.4454 8.95568 13.4262C8.9686 13.407 8.98153 13.3878 8.99445 13.3749C9.00737 13.3557 9.0203 13.3365 9.03322 13.3237C9.04614 13.3045 9.05906 13.2853 9.07199 13.2725C9.08491 13.2533 9.09783 13.2341 9.11076 13.2213C9.12368 13.2021 9.1366 13.1829 9.14953 13.1701C9.16245 13.1509 9.17537 13.1317 9.1883 13.1188C9.20122 13.0996 9.21414 13.0804 9.22707 13.0676C9.23999 13.0484 9.25291 13.0292 9.26583 13.0164C9.27876 12.9972 9.29168 12.978 9.3046 12.9652C9.31753 12.946 9.33045 12.9268 9.34337 12.914C9.3563 12.8948 9.36922 12.8755 9.38214 12.8627C9.39506 12.8435 9.40799 12.8243 9.42091 12.8115C9.43383 12.7923 9.44676 12.7731 9.45968 12.7603C9.4726 12.7411 9.48553 12.7219 9.49845 12.7091C9.51137 12.6899 9.5243 12.6771 9.53722 12.6579C9.55014 12.6387 9.56306 12.6258 9.57599 12.6066C9.58891 12.5874 9.60183 12.5746 9.61476 12.5554C9.62768 12.5362 9.6406 12.5234 9.65353 12.5042C9.66645 12.485 9.67937 12.4722 9.69229 12.453C9.70522 12.4338 9.71814 12.421 9.73106 12.4018C9.74399 12.3826 9.75691 12.3697 9.76983 12.3505C9.78276 12.3313 9.79568 12.3185 9.8086 12.2993C9.82153 12.2801 9.83445 12.2673 9.85383 12.2481C9.86676 12.2289 9.87968 12.2161 9.89906 12.1969C9.91199 12.1777 9.92491 12.1649 9.94429 12.1457C9.95722 12.1265 9.97014 12.1136 9.98953 12.0944C10.0024 12.0752 10.0154 12.0624 10.0348 12.0432C10.0477 12.024 10.0606 12.0112 10.08 11.992C10.0929 11.9728 10.1058 11.96 10.1252 11.9408C10.1381 11.9216 10.1511 11.9088 10.1704 11.8896C10.1834 11.8703 10.2028 11.8575 10.2157 11.8383C10.2286 11.8191 10.248 11.8063 10.2609 11.7871C10.2738 11.7679 10.2932 11.7551 10.3061 11.7359C10.3191 11.7167 10.3384 11.7039 10.3514 11.6847C10.3643 11.6655 10.3837 11.6527 10.3966 11.6335C10.4095 11.6142 10.4289 11.6014 10.4418 11.5822C10.4548 11.563 10.4741 11.5502 10.4871 11.531C10.5 11.5118 10.5194 11.499 10.5323 11.4798C10.5452 11.4606 10.5646 11.4478 10.5775 11.4286C10.5904 11.4094 10.6098 11.3966 10.6228 11.3774C10.6357 11.3581 10.6551 11.3453 10.668 11.3261C10.6809 11.3069 10.7003 11.2941 10.7132 11.2749C10.7261 11.2557 10.7455 11.2429 10.7584 11.2237C10.7714 11.2045 10.7908 11.1917 10.8037 11.1725C10.8166 11.1533 10.836 11.1405 10.8489 11.1212C10.8618 11.102 10.8812 11.0892 10.8941 11.07C10.9071 11.0572 10.9264 11.038 10.9394 11.0252C10.9523 11.0124 10.9717 10.9932 10.9846 10.9804C10.9975 10.9676 11.0169 10.9484 11.0298 10.9356C11.0428 10.9228 11.0621 10.9036 11.0751 10.8908C11.088 10.878 11.1074 10.8587 11.1203 10.8459C11.1332 10.8331 11.1526 10.8139 11.1655 10.8011C11.1784 10.7883 11.1978 10.7691 11.2108 10.7563C11.2237 10.7435 11.2431 10.7243 11.256 10.7115C11.2689 10.6987 11.2883 10.6795 11.3012 10.6667C11.3141 10.6539 11.3335 10.6347 11.3464 10.6218C11.3594 10.609 11.3788 10.5898 11.3917 10.577C11.4046 10.5642 11.424 10.545 11.4369 10.5322C11.4563 10.5194 11.4692 10.5002 11.4886 10.4874C11.508 10.4746 11.5209 10.4554 11.5403 10.4426C11.5597 10.4298 11.5726 10.4106 11.592 10.3978C11.6114 10.385 11.6243 10.3657 11.6437 10.3529C11.6631 10.3401 11.676 10.3209 11.6954 10.3081C11.7148 10.2953 11.7277 10.2761 11.7471 10.2633C11.7664 10.2505 11.7794 10.2313 11.7988 10.2185C11.8181 10.2057 11.8311 10.1865 11.8504 10.1737C11.8698 10.1609 11.8828 10.1417 11.9021 10.1289C11.9215 10.116 11.9344 10.0968 11.9538 10.084C11.9732 10.0712 11.9861 10.052 12.0055 10.0392C12.0249 10.0264 12.0378 10.0072 12.0572 9.9944C12.0766 9.98159 12.0895 9.96238 12.1089 9.94958C12.1283 9.93677 12.1412 9.91757 12.1606 9.90476C12.18 9.89196 12.1929 9.87275 12.2123 9.85994C12.2317 9.84714 12.2446 9.82793 12.264 9.81513C12.2834 9.80232 12.2963 9.78952 12.3157 9.77031C12.3351 9.7575 12.348 9.7447 12.3674 9.72549C12.3868 9.71269 12.3997 9.69988 12.4191 9.68067C12.4384 9.66787 12.4514 9.65506 12.4708 9.63585C12.4901 9.62305 12.5031 9.61024 12.5224 9.59104C12.5418 9.57823 12.5548 9.56543 12.5741 9.54622C12.5935 9.53341 12.6064 9.52061 12.6258 9.5014C12.6452 9.4886 12.6581 9.47579 12.6775 9.45658C12.6969 9.44378 12.7098 9.43097 12.7292 9.41176C12.7486 9.39896 12.7615 9.38615 12.7809 9.36695C12.8003 9.35414 12.8132 9.34134 12.8326 9.32853C12.852 9.31573 12.8649 9.30292 12.8843 9.29012C12.9037 9.27731 12.9166 9.26451 12.936 9.2517C12.9554 9.2389 12.9683 9.22609 12.9877 9.21328C13.0071 9.20048 13.02 9.18768 13.0394 9.17487C13.0588 9.16207 13.0717 9.14926 13.0911 9.13645C13.1104 9.12365 13.1234 9.11084 13.1428 9.09804C13.1621 9.08523 13.1751 9.07243 13.1944 9.05962C13.2138 9.04682 13.2332 9.03401 13.2461 9.02121C13.2655 9.0084 13.2849 8.9956 13.2978 8.98279C13.3172 8.96999 13.3366 8.95718 13.3495 8.94438C13.3689 8.93157 13.3883 8.91877 13.4012 8.90596C13.4206 8.89316 13.44 8.88035 13.4529 8.86755C13.4723 8.85474 13.4917 8.84194 13.5046 8.82913C13.524 8.81633 13.5434 8.80352 13.5563 8.79072C13.5757 8.77791 13.5951 8.76511 13.608 8.7523C13.6274 8.7395 13.6468 8.72669 13.6597 8.71389C13.6791 8.70108 13.6984 8.68828 13.7114 8.67547C13.7308 8.66267 13.7501 8.64986 13.7631 8.63705C13.7824 8.62425 13.8018 8.61144 13.8148 8.59864C13.8341 8.58583 13.8535 8.57303 13.8664 8.56022C13.8858 8.54742 13.9052 8.53461 13.9246 8.52181C13.944 8.509 13.9634 8.4962 13.9828 8.48339C14.0021 8.47059 14.0215 8.45778 14.0409 8.44498C14.0603 8.43217 14.0797 8.41937 14.0991 8.40656C14.1184 8.39376 14.1378 8.38095 14.1572 8.36815C14.1766 8.35534 14.196 8.34254 14.2154 8.32973C14.2348 8.31693 14.2541 8.30412 14.2735 8.29132C14.2929 8.27851 14.3123 8.26571 14.3317 8.2529C14.3511 8.2401 14.3704 8.22729 14.3898 8.21449C14.4092 8.20168 14.4286 8.18888 14.448 8.17607C14.4674 8.16327 14.4868 8.15046 14.5061 8.13766C14.5255 8.12485 14.5449 8.11204 14.5643 8.09924C14.5837 8.08643 14.6031 8.07363 14.6224 8.06082C14.6418 8.04802 14.6612 8.03521 14.6806 8.02241C14.7 8.0096 14.7194 7.9968 14.7388 7.9904C14.7581 7.97759 14.7775 7.96479 14.7969 7.95838C14.8163 7.94558 14.8357 7.93277 14.8551 7.92637C14.8744 7.91357 14.8938 7.90076 14.9132 7.89436C14.9326 7.88155 14.952 7.86875 14.9714 7.86234C14.9908 7.84954 15.0101 7.83673 15.0295 7.83033C15.0489 7.81753 15.0683 7.80472 15.0877 7.79832C15.1071 7.78551 15.1264 7.77271 15.1458 7.76631C15.1652 7.7535 15.1846 7.7471 15.204 7.73429C15.2234 7.72149 15.2427 7.71509 15.2621 7.70228C15.2815 7.68948 15.3009 7.68307 15.3203 7.67027C15.3397 7.65746 15.3591 7.65106 15.3784 7.63826C15.3978 7.62545 15.4172 7.61905 15.4366 7.60624C15.456 7.59344 15.4754 7.58704 15.4947 7.57423C15.5141 7.56142 15.5335 7.55502 15.5529 7.54222C15.5723 7.52941 15.5917 7.52301 15.6111 7.5102C15.6304 7.4974 15.6498 7.491 15.6692 7.47819C15.6886 7.46539 15.708 7.45898 15.7274 7.44618C15.7467 7.43337 15.7661 7.42697 15.7855 7.41417C15.8049 7.40136 15.8243 7.39496 15.8437 7.38215C15.8631 7.36935 15.8824 7.36295 15.9018 7.35014C15.9212 7.33733 15.9406 7.33093 15.96 7.31813C15.9794 7.30532 15.9987 7.29892 16.0181 7.28611C16.0375 7.27331 16.0569 7.26691 16.0763 7.2541C16.0957 7.2413 16.1151 7.23489 16.1344 7.22209C16.1538 7.20928 16.1732 7.20288 16.1926 7.19008C16.212 7.17727 16.2314 7.17087 16.2507 7.15806C16.2701 7.14526 16.2895 7.13886 16.3089 7.12605C16.3283 7.11325 16.3477 7.10684 16.3671 7.09404C16.3864 7.08123 16.4058 7.07483 16.4252 7.06203C16.4446 7.04922 16.464 7.04282 16.4834 7.03001C16.5027 7.01721 16.5221 7.0108 16.5415 6.998C16.5609 6.9916 16.5803 6.97879 16.5997 6.97239C16.6191 6.95958 16.6384 6.95318 16.6578 6.94678C16.6772 6.94038 16.6966 6.92757 16.716 6.92117C16.7354 6.91477 16.7547 6.90196 16.7741 6.89556C16.7935 6.88916 16.8129 6.87635 16.8323 6.86995C16.8517 6.86355 16.8711 6.85074 16.8904 6.84434C16.9098 6.83794 16.9292 6.82513 16.9486 6.81873C16.968 6.81232 16.9874 6.79952 17.0067 6.79312C17.0261 6.78671 17.0455 6.77391 17.0649 6.76751C17.0843 6.7611 17.1037 6.7483 17.1295 6.7419C17.1489 6.73549 17.1683 6.72269 17.1877 6.71629C17.2071 6.70988 17.2264 6.69708 17.2458 6.69068C17.2652 6.68427 17.2846 6.67147 17.304 6.66507C17.3234 6.65866 17.3427 6.64586 17.3686 6.63946C17.388 6.63305 17.4074 6.62025 17.4332 6.61385C17.4526 6.60744 17.472 6.59464 17.4978 6.58824C17.5172 6.58183 17.5366 6.56903 17.5624 6.56262C17.5818 6.55622 17.6012 6.54342 17.6271 6.53701C17.6464 6.53061 17.6658 6.51781 17.6917 6.5114C17.7111 6.505 17.7304 6.4922 17.7563 6.48579C17.7757 6.47939 17.7951 6.46659 17.8209 6.46018C17.8403 6.45378 17.8597 6.44098 17.8855 6.43457C17.9049 6.42817 17.9243 6.41537 17.9501 6.40896C17.9695 6.40256 17.9889 6.38976 18.0147 6.38335C18.0341 6.37695 18.0535 6.36415 18.0794 6.35774C18.0987 6.35134 18.1181 6.34494 18.144 6.33213C18.1634 6.32573 18.1827 6.31933 18.2086 6.30652C18.228 6.30012 18.2474 6.29372 18.2732 6.28091C18.2926 6.27451 18.312 6.26811 18.3378 6.2553C18.3637 6.2425 18.3766 6.2425 18.4024 6.22969C18.4218 6.22329 18.4412 6.21689 18.4671 6.20408C18.4864 6.19768 18.5058 6.19128 18.5317 6.18487C18.5511 6.17847 18.5704 6.17207 18.5963 6.16567C18.6157 6.15926 18.6415 6.15286 18.6609 6.14646C18.6803 6.14006 18.7061 6.13365 18.7255 6.12725C18.7449 6.12085 18.7707 6.11445 18.7901 6.10804C18.8095 6.10164 18.8354 6.09524 18.8547 6.08884C18.8741 6.08243 18.9 6.07603 18.9194 6.06963C18.9387 6.06323 18.9646 6.05682 18.984 6.05042C19.0034 6.04402 19.0292 6.03761 19.0486 6.03121C19.068 6.02481 19.0938 6.01841 19.1132 6.012C19.1326 6.0056 19.1584 5.9992 19.1778 5.9928C19.1972 5.98639 19.2231 5.97999 19.2424 5.97359C19.2618 5.96719 19.2877 5.96078 19.3071 5.95438C19.3264 5.94798 19.3523 5.94158 19.3717 5.93517C19.3911 5.92877 19.4169 5.92237 19.4363 5.91597C19.4557 5.90956 19.4815 5.90316 19.5009 5.89676C19.5203 5.89036 19.5461 5.88395 19.5655 5.87755C19.5849 5.87115 19.6107 5.86475 19.6301 5.85834C19.6495 5.85194 19.6754 5.84554 19.6947 5.83914C19.7141 5.83273 19.74 5.82633 19.7594 5.81993C19.7787 5.81353 19.8046 5.80712 19.824 5.80072C19.8434 5.79432 19.8692 5.78792 19.8886 5.78151C19.908 5.77511 19.9338 5.76871 19.9532 5.7623C19.9726 5.7559 19.9984 5.7495 20.0178 5.7431C20.0372 5.73669 20.063 5.73029 20.0824 5.72389C20.1018 5.71749 20.1277 5.71108 20.1471 5.70468C20.1664 5.69828 20.1923 5.69188 20.2117 5.68547C20.2311 5.67907 20.2569 5.67267 20.2763 5.66627C20.2957 5.65986 20.3215 5.65346 20.3409 5.64706C20.3603 5.64066 20.3861 5.63425 20.4055 5.62785C20.4249 5.62145 20.4507 5.61505 20.4701 5.61505C20.4895 5.60864 20.5154 5.60224 20.5347 5.60224C20.5541 5.59584 20.58 5.58944 20.5994 5.58944C20.6187 5.58303 20.6446 5.57663 20.664 5.57663C20.6834 5.57663 20.7092 5.56383 20.7286 5.56383C20.748 5.55742 20.7738 5.55102 20.7932 5.55102C20.8126 5.54462 20.8384 5.53822 20.8578 5.53822C20.8772 5.53181 20.9031 5.52541 20.9224 5.52541C20.9418 5.51901 20.9677 5.51901 20.987 5.51261C21.0064 5.5062 21.0323 5.5062 21.0517 5.4998C21.071 5.4934 21.0969 5.4934 21.1163 5.48699C21.1357 5.48059 21.1615 5.48059 21.1809 5.47419C21.2003 5.46779 21.2261 5.46779 21.2455 5.46138C21.2649 5.45498 21.2907 5.45498 21.3101 5.44858C21.3295 5.44218 21.3554 5.44218 21.3747 5.43577C21.3941 5.42937 21.42 5.42937 21.4394 5.42297C21.4587 5.41657 21.4846 5.41657 21.504 5.41016C21.5234 5.40376 21.5492 5.40376 21.5686 5.39736C21.588 5.39096 21.6138 5.39096 21.6332 5.38455C21.6526 5.37815 21.6784 5.37815 21.6978 5.37175C21.7172 5.36535 21.743 5.36535 21.7624 5.35894C21.7818 5.35254 21.8077 5.35254 21.827 5.34614C21.8464 5.33974 21.8723 5.33974 21.8917 5.33333C21.911 5.32693 21.9369 5.32693 21.9563 5.32053C21.9757 5.31413 22.0015 5.31413 22.0209 5.30772C22.0403 5.30132 22.0661 5.30132 22.0855 5.29492C22.1049 5.28852 22.1307 5.28852 22.1501 5.28211C22.1695 5.27571 22.1954 5.27571 22.2147 5.26931C22.2341 5.26291 22.26 5.26291 22.2794 5.2565C22.2987 5.2501 22.3246 5.2501 22.344 5.2501C22.3634 5.2437 22.3892 5.2437 22.4086 5.2437C22.428 5.2437 22.4538 5.2373 22.4732 5.2373C22.4926 5.2373 22.5184 5.23089 22.5378 5.23089C22.5572 5.23089 22.583 5.22449 22.6024 5.22449C22.6218 5.22449 22.6477 5.21809 22.667 5.21809C22.6864 5.21809 22.7123 5.21168 22.7317 5.21168C22.751 5.21168 22.7769 5.20528 22.7963 5.20528C22.8157 5.20528 22.8415 5.19888 22.8609 5.19888C22.8803 5.19888 22.9061 5.19248 22.9255 5.19248C22.9449 5.19248 22.9707 5.18607 22.9901 5.18607C23.0095 5.18607 23.0354 5.17967 23.0547 5.17967C23.0741 5.17967 23.1 5.17327 23.1194 5.17327C23.1387 5.17327 23.1646 5.16687 23.184 5.16687C23.2034 5.16687 23.2292 5.16046 23.2486 5.16046C23.268 5.16046 23.2938 5.15406 23.3132 5.15406C23.3326 5.15406 23.3584 5.14766 23.3778 5.14766C23.3972 5.14766 23.423 5.14126 23.4424 5.14126C23.4618 5.14126 23.4877 5.13485 23.507 5.13485C23.5264 5.13485 23.5523 5.12845 23.5717 5.12845C23.591 5.12845 23.6169 5.12205 23.6363 5.12205C23.6557 5.12205 23.6815 5.11565 23.7009 5.11565C23.7203 5.11565 23.7461 5.10924 23.7655 5.10924C23.7849 5.10924 23.8107 5.10924 23.8301 5.10284C23.8495 5.10284 23.8754 5.10284 23.8947 5.09644C23.9141 5.09644 23.94 5.09644 23.9594 5.09004C23.9787 5.09004 24.0046 5.09004 24.024 5.08363C24.0434 5.08363 24.0692 5.08363 24.0886 5.07723C24.108 5.07723 24.1338 5.07723 24.1532 5.07083C24.1726 5.07083 24.1984 5.07083 24.2178 5.07083C24.2372 5.07083 24.263 5.07083 24.2824 5.07083C24.3018 5.07083 24.3277 5.07083 24.347 5.07083C24.3664 5.07083 24.3923 5.07083 24.4117 5.07083C24.431 5.07083 24.4569 5.07083 24.4763 5.07083C24.4957 5.07083 24.5215 5.07083 24.5409 5.07083C24.5603 5.07083 24.5861 5.07083 24.6055 5.07083C24.6249 5.07083 24.6507 5.07083 24.6701 5.07083C24.6895 5.07083 24.7154 5.07083 24.7347 5.07083C24.7541 5.07083 24.78 5.07083 24.7994 5.07083C24.8187 5.07083 24.8446 5.07083 24.864 5.07083C24.8834 5.07083 24.9092 5.07083 24.9286 5.07083C24.948 5.07083 24.9738 5.07083 24.9932 5.07083C25.0061 5.07083 25.019 5.07083 25.032 5.07083Z" fill="#1B93C7"/>
</svg>
