<svg width="14" height="15" viewBox="0 0 14 15" fill="none" xmlns="http://www.w3.org/2000/svg">
<path d="M11.2712 4.23522C11.2718 5.03209 11.0362 5.81121 10.5943 6.47407C10.1524 7.13692 9.52407 7.6537 8.78869 7.95905C8.05331 8.2644 7.24397 8.3446 6.46305 8.18949C5.68212 8.03438 4.9647 7.65095 4.40154 7.08768C3.83837 6.52442 3.45476 5.80661 3.29923 5.0251C3.1437 4.24359 3.22323 3.43346 3.52777 2.6972C3.83231 1.96093 4.34817 1.33161 5.0101 0.888836C5.67203 0.44606 6.4503 0.209717 7.24645 0.209717C8.31338 0.209717 9.33666 0.633737 10.0914 1.38858C10.8461 2.14342 11.2705 3.16733 11.2712 4.23522Z" fill="#1B93C7"/>
<path d="M0.770989 14.6431C0.752699 13.7802 0.90672 12.9223 1.22402 12.1197C1.54131 11.3171 2.0155 10.586 2.61878 9.96926C3.22206 9.3525 3.9423 8.86249 4.73725 8.52796C5.53221 8.19343 6.38589 8.02112 7.24825 8.02112C8.11061 8.02112 8.9643 8.19343 9.75925 8.52796C10.5542 8.86249 11.2744 9.3525 11.8777 9.96926C12.481 10.586 12.9552 11.3171 13.2725 12.1197C13.5898 12.9223 13.7438 13.7802 13.7255 14.6431H0.770989Z" fill="#1B93C7"/>
</svg>
